<?xml version="1.0" encoding="utf-8"?>
<!-- Generator: Adobe Illustrator 22.0.0, SVG Export Plug-In . SVG Version: 6.00 Build 0)  -->
<svg version="1.1" id="Camada_1" xmlns="http://www.w3.org/2000/svg" xmlns:xlink="http://www.w3.org/1999/xlink" x="0px" y="0px"
	 viewBox="0 0 192.2 246.9" style="enable-background:new 0 0 192.2 246.9;" xml:space="preserve">
<style type="text/css">
	.st0{fill:url(#SVGID_1_);}
	.st1{fill:url(#SVGID_2_);}
	.st2{fill:url(#SVGID_3_);}
	.st3{fill:url(#SVGID_4_);}
	.st4{fill:#FFFFFF;}
	.st5{fill:url(#SVGID_5_);}
	.st6{fill:url(#SVGID_6_);}
	.st7{fill:url(#SVGID_7_);}
	.st8{fill:url(#SVGID_8_);}
	.st9{fill:url(#SVGID_9_);}
	.st10{fill:url(#SVGID_10_);}
	.st11{fill:url(#SVGID_11_);}
	.st12{fill:url(#SVGID_12_);}
	.st13{fill:url(#SVGID_13_);}
	.st14{fill:url(#SVGID_14_);}
	.st15{fill:url(#SVGID_15_);}
	.st16{fill:url(#SVGID_16_);}
	.st17{fill:url(#SVGID_17_);}
</style>
<g>
	<g>
		
			<linearGradient id="SVGID_1_" gradientUnits="userSpaceOnUse" x1="143.9456" y1="71.8279" x2="143.7893" y2="71.8572" gradientTransform="matrix(0.7269 0 0 0.7269 -57.0779 105.3684)">
			<stop  offset="0" style="stop-color:#E6ECF5"/>
			<stop  offset="0.5126" style="stop-color:#CAD9E9"/>
			<stop  offset="1" style="stop-color:#B1C8DD"/>
		</linearGradient>
		<path class="st0" d="M47.5,157.4c-0.1,0.1-0.1,0.3-0.1,0.4L47.5,157.4L47.5,157.4z"/>
	</g>
	<g>
		
			<linearGradient id="SVGID_2_" gradientUnits="userSpaceOnUse" x1="332.9394" y1="-68.0102" x2="182.7112" y2="-20.1038" gradientTransform="matrix(0.7269 0 0 0.7269 -57.0779 105.3684)">
			<stop  offset="0" style="stop-color:#68E4F1"/>
			<stop  offset="1" style="stop-color:#66A6FF"/>
		</linearGradient>
		<path class="st1" d="M178.8,45.3c0,30.7-21.7,68.1-48.5,83.6c-13.3,7.7-25.4,8.5-34.2,3.6c-0.5-0.3-1-0.7-1.5-0.9l-0.1-0.1
			c-2.7-1.8-5-4.2-6.9-7.2c-0.5-0.7-0.9-1.5-1.4-2.3c-2.8-5.4-4.4-12.4-4.4-20.6c0-30.7,21.7-68.2,48.5-83.6c5.3-3.1,10.4-5,15.2-6
			c3.1-0.7,6-0.8,8.8-0.7c3.7,0.3,7.1,1.3,10.1,3l0.4,0.2l0.4,0.2c0.1,0.1,0.1,0.1,0.2,0.2C173.8,19.9,178.9,30.5,178.8,45.3z"/>
		
			<linearGradient id="SVGID_3_" gradientUnits="userSpaceOnUse" x1="306.1812" y1="-124.886" x2="305.9561" y2="-124.8142" gradientTransform="matrix(0.7269 0 0 0.7269 -57.0779 105.3684)">
			<stop  offset="0" style="stop-color:#77CDCA"/>
			<stop  offset="1" style="stop-color:#508883"/>
		</linearGradient>
		<path class="st2" d="M165.6,14.7L165.6,14.7c-0.1-0.1-0.2-0.1-0.3-0.2L165.6,14.7z"/>
		
			<linearGradient id="SVGID_4_" gradientUnits="userSpaceOnUse" x1="214.2817" y1="-25.0704" x2="257.708" y2="-144.5998" gradientTransform="matrix(0.7269 0 0 0.7269 -57.0779 105.3684)">
			<stop  offset="0" style="stop-color:#68E4F1"/>
			<stop  offset="1" style="stop-color:#66A6FF"/>
		</linearGradient>
		<path class="st3" d="M164.5,14.1c-3-1.7-6.4-2.7-10.1-3c-2.8-0.2-5.7,0-8.8,0.7c-4.8,0.9-9.9,2.9-15.2,6
			c-26.8,15.4-48.5,52.9-48.5,83.6c0,8.3,1.6,15.2,4.4,20.6c0.4,0.8,0.9,1.6,1.4,2.3c1.9,3,4.2,5.4,6.9,7.2l-17.1-9.8
			c-8.8-5-14.2-16.1-14.2-31.5c0-30.7,21.7-68.1,48.5-83.6c13.4-7.7,25.1-8.2,33.9-3.3l0.2,0.1l1.2,0.7L164.5,14.1z"/>
		<polygon class="st4" points="131.8,90.2 133.7,78.9 142.1,72 143.8,60.9 135.5,67.7 141.1,34.1 125.6,43 119.3,81.1 111.1,87.8 
			108.9,99.3 117.4,92.3 114.1,112.5 155.8,88.4 157.9,75.1 		"/>
	</g>
</g>
<g>
	
		<linearGradient id="SVGID_5_" gradientUnits="userSpaceOnUse" x1="200.5629" y1="-2.6908" x2="50.8232" y2="33.027" gradientTransform="matrix(0.7269 0 0 0.7269 -57.0779 105.3684)">
		<stop  offset="0" style="stop-color:#68E4F1"/>
		<stop  offset="1" style="stop-color:#66A6FF"/>
	</linearGradient>
	<polygon class="st5" points="0,112 52.3,81.7 104.7,112 52.7,142.4 	"/>
	
		<linearGradient id="SVGID_6_" gradientUnits="userSpaceOnUse" x1="78.5224" y1="-42.9473" x2="151.022" y2="-42.9473" gradientTransform="matrix(0.7269 0 0 0.7269 -57.0779 105.3684)">
		<stop  offset="0" style="stop-color:#68E4F1"/>
		<stop  offset="1" style="stop-color:#66A6FF"/>
	</linearGradient>
	<polygon class="st6" points="0,104.3 52.3,13.6 52.7,134.7 	"/>
	
		<linearGradient id="SVGID_7_" gradientUnits="userSpaceOnUse" x1="150.4717" y1="-42.9473" x2="222.5587" y2="-42.9473" gradientTransform="matrix(0.7269 0 0 0.7269 -57.0779 105.3684)">
		<stop  offset="0" style="stop-color:#68E4F1"/>
		<stop  offset="1" style="stop-color:#66A6FF"/>
	</linearGradient>
	<polygon class="st7" points="52.3,13.6 104.7,104.3 52.7,134.7 	"/>
	
		<linearGradient id="SVGID_8_" gradientUnits="userSpaceOnUse" x1="78.5224" y1="71.7865" x2="151.4347" y2="71.7865" gradientTransform="matrix(0.7269 0 0 0.7269 -57.0779 105.3684)">
		<stop  offset="0" style="stop-color:#68E4F1"/>
		<stop  offset="1" style="stop-color:#66A6FF"/>
	</linearGradient>
	<polygon class="st8" points="0,112 53,203.1 52.7,142.4 	"/>
	
		<linearGradient id="SVGID_9_" gradientUnits="userSpaceOnUse" x1="151.022" y1="71.7865" x2="222.5587" y2="71.7865" gradientTransform="matrix(0.7269 0 0 0.7269 -57.0779 105.3684)">
		<stop  offset="0" style="stop-color:#68E4F1"/>
		<stop  offset="1" style="stop-color:#66A6FF"/>
	</linearGradient>
	<polygon class="st9" points="52.7,142.4 53,203.1 104.7,112 	"/>
</g>
<g>
	<g>
		<g>
			
				<linearGradient id="SVGID_10_" gradientUnits="userSpaceOnUse" x1="286.9242" y1="154.1065" x2="161.5884" y2="201.373" gradientTransform="matrix(0.7248 -5.506076e-02 5.506076e-02 0.7248 -64.2581 100.0647)">
				<stop  offset="0" style="stop-color:#68E4F1"/>
				<stop  offset="1" style="stop-color:#66A6FF"/>
			</linearGradient>
			<path class="st10" d="M190.7,184.2l1.4,18c0.9,10.1-4.9,20.6-17.7,29.4c-25.3,17.3-68.3,20.5-96.2,7.1
				c-6.9-3.3-12.2-7.3-15.9-11.8c-3.7-4.4-5.8-9.4-6.2-14.3l-1.4-18.2c0.9,10,8.3,19.5,22.2,26.2c27.8,13.4,70.9,10.2,96.2-7.1
				C185.6,204.7,191.4,194.1,190.7,184.2z"/>
			
				<linearGradient id="SVGID_11_" gradientUnits="userSpaceOnUse" x1="153.1072" y1="141.3998" x2="340.8714" y2="141.3998" gradientTransform="matrix(0.7248 -5.506076e-02 5.506076e-02 0.7248 -64.2581 100.0647)">
				<stop  offset="0" style="stop-color:#68E4F1"/>
				<stop  offset="1" style="stop-color:#66A6FF"/>
			</linearGradient>
			<path class="st11" d="M190.6,183.9v0.2c0.7,10-5.1,20.5-17.7,29.1c-25.3,17.3-68.3,20.5-96.2,7.1c-13.8-6.7-21.3-16.1-22.2-26.2
				c-0.9-10.1,4.9-20.6,17.7-29.4c25.3-17.3,68.4-20.5,96.2-7.1C182.4,164.4,189.8,173.9,190.6,183.9z"/>
		</g>
		
			<linearGradient id="SVGID_12_" gradientUnits="userSpaceOnUse" x1="187.5952" y1="136.1055" x2="295.2121" y2="136.1055" gradientTransform="matrix(0.7248 -5.506076e-02 5.506076e-02 0.7248 -64.2581 100.0647)">
			<stop  offset="0" style="stop-color:#3F57C6"/>
			<stop  offset="1" style="stop-color:#4E6CFA"/>
		</linearGradient>
		<path class="st12" d="M141,199.3c0.3-1.9-0.5-3.7-2.3-5.5c2.8,0.3,5.5,0.2,8.1-0.4c2.5-0.6,4.9-1.5,6.9-2.9
			c3.3-2.3,4.4-4.7,3.3-7.4c-0.9-2.3-3.3-4.5-7.3-6.8l6-4.1l-7.9-3.8l-5.9,4l-4.8-2.3l5.9-4l-7.9-3.8l-5.9,4l-4-2l0,0l-4.9-2.4
			l-7.1,4.9l4.9,2.4l-26.5,18.4l-4.9-2.4l-7.1,4.9l8.9,4.3l-3.3,2.3l7.9,3.8l3.3-2.3l3.9,1.9l0,0l0.9,0.4l-3.3,2.3l7.9,3.8l3.3-2.3
			c5.4,2.5,10.3,3.7,15,3.9c5,0.1,9.4-1,12.9-3.5C139.3,203,140.7,201.2,141,199.3z M138.8,179.4c1.5,0.7,2.6,1.5,3.3,2.2
			c0.6,0.4,1.1,0.9,1.2,1.5c0.6,1.2,0,2.3-1.6,3.4s-3.4,1.6-5.6,1.5c-0.9,0-1.9-0.1-2.8-0.4c-1.4-0.3-2.8-0.8-4.3-1.5l-4-1.9
			l-4.8-2.3l-1.5-0.7l9.7-6.6l5.5,2.6l0,0l0.9,0.4L138.8,179.4z M121.4,200.6c-1.6-0.1-3.4-0.4-5.3-1.2c-0.7-0.3-1.4-0.6-2.1-0.9
			l-5.8-2.8l-0.9-0.4l0,0l-5.5-2.6l10.1-6.9l1.5,0.7l4.8,2.3l5.8,2.8c0.7,0.4,1.4,0.7,2,1c3.8,2.3,4.1,4.4,1.2,6.4
			C125.5,200.2,123.6,200.7,121.4,200.6z"/>
	</g>
</g>
<g>
	<g>
		<g>
			
				<linearGradient id="SVGID_13_" gradientUnits="userSpaceOnUse" x1="286.8653" y1="111.4636" x2="161.5296" y2="158.73" gradientTransform="matrix(0.7248 -5.506076e-02 5.506076e-02 0.7248 -64.2581 100.0647)">
				<stop  offset="0" style="stop-color:#68E4F1"/>
				<stop  offset="1" style="stop-color:#66A6FF"/>
			</linearGradient>
			<path class="st13" d="M188.3,153.3l1.4,18c0.9,10.1-4.9,20.6-17.7,29.4c-25.3,17.3-68.3,20.5-96.2,7.1
				c-6.9-3.3-12.2-7.3-15.9-11.8c-3.7-4.4-5.8-9.4-6.2-14.3l-1.4-18.2c0.9,10,8.3,19.5,22.2,26.2c27.8,13.4,70.9,10.2,96.2-7.1
				C183.3,173.8,189.1,163.4,188.3,153.3z"/>
			
				<linearGradient id="SVGID_14_" gradientUnits="userSpaceOnUse" x1="153.1618" y1="98.9095" x2="340.926" y2="98.9095" gradientTransform="matrix(0.7248 -5.506076e-02 5.506076e-02 0.7248 -64.2581 100.0647)">
				<stop  offset="0" style="stop-color:#68E4F1"/>
				<stop  offset="1" style="stop-color:#66A6FF"/>
			</linearGradient>
			<path class="st14" d="M188.3,153.1v0.2c0.7,10-5.1,20.5-17.7,29.1c-25.3,17.3-68.3,20.5-96.2,7.1c-13.8-6.7-21.3-16.1-22.2-26.2
				c-0.9-10.1,4.9-20.6,17.7-29.4c25.3-17.3,68.4-20.5,96.2-7.1C180,133.7,187.4,143.1,188.3,153.1z"/>
		</g>
		
			<linearGradient id="SVGID_15_" gradientUnits="userSpaceOnUse" x1="187.6265" y1="93.5257" x2="295.3122" y2="93.5257" gradientTransform="matrix(0.7248 -5.506076e-02 5.506076e-02 0.7248 -64.2581 100.0647)">
			<stop  offset="0" style="stop-color:#3B6CFF"/>
			<stop  offset="1" style="stop-color:#2F56CB"/>
		</linearGradient>
		<path class="st15" d="M138.7,168.5c0.3-1.9-0.5-3.7-2.3-5.5c2.8,0.3,5.5,0.2,8.1-0.4c2.5-0.6,4.9-1.5,6.9-2.9
			c3.3-2.3,4.4-4.7,3.3-7.4c-0.9-2.3-3.3-4.5-7.3-6.8l6-4.1l-7.9-3.8l-5.9,4l-4.8-2.3l5.9-4l-7.9-3.8l-5.9,4l-4-2l0,0l-4.9-2.4
			l-7.1,4.9l4.9,2.4l-26.9,18.3l-4.9-2.4l-7.1,4.9l8.9,4.3l-3.3,2.3l7.9,3.8l3.3-2.3l3.9,1.9l0,0l0.9,0.4l-3.3,2.3l7.9,3.8l3.3-2.3
			c5.4,2.5,10.3,3.7,15,3.9c5,0.1,9.4-1,12.9-3.5C136.9,172.2,138.3,170.4,138.7,168.5z M136.5,148.6c1.5,0.7,2.6,1.5,3.3,2.2
			c0.6,0.4,1.1,0.9,1.2,1.5c0.6,1.2,0,2.3-1.6,3.4s-3.4,1.6-5.6,1.5c-0.9,0-1.9-0.1-2.8-0.4c-1.4-0.3-2.8-0.8-4.3-1.5l-4-1.9
			l-4.8-2.3l-1.5-0.7l9.7-6.6l5.5,2.6l0,0l0.9,0.4L136.5,148.6z M119,169.8c-1.6-0.1-3.4-0.4-5.3-1.2c-0.7-0.3-1.4-0.6-2.1-0.9
			l-5.8-2.8l-0.9-0.4l0,0l-5.5-2.6l10.1-6.9l1.5,0.7l4.8,2.3l5.8,2.8c0.7,0.4,1.4,0.7,2,1c3.8,2.3,4.1,4.4,1.2,6.4
			C123.2,169.4,121.2,169.9,119,169.8z"/>
	</g>
</g>
<g>
	<g>
		<g>
			
				<linearGradient id="SVGID_16_" gradientUnits="userSpaceOnUse" x1="286.8709" y1="68.9916" x2="161.5351" y2="116.2582" gradientTransform="matrix(0.7248 -5.506076e-02 5.506076e-02 0.7248 -64.2581 100.0647)">
				<stop  offset="0" style="stop-color:#68E4F1"/>
				<stop  offset="1" style="stop-color:#66A6FF"/>
			</linearGradient>
			<path class="st16" d="M186,122.5l1.4,18c0.9,10.1-4.9,20.6-17.7,29.4c-25.3,17.3-68.3,20.5-96.2,7.1c-6.9-3.3-12.2-7.3-15.9-11.8
				c-3.7-4.4-5.8-9.4-6.2-14.3L50,132.7c0.9,10,8.3,19.5,22.2,26.2c27.8,13.4,70.9,10.2,96.2-7.1C181,143,186.8,132.6,186,122.5z"/>
			<linearGradient id="SVGID_17_" gradientUnits="userSpaceOnUse" x1="49.8094" y1="127.3501" x2="186.0565" y2="127.3501">
				<stop  offset="0" style="stop-color:#68E4F1"/>
				<stop  offset="1" style="stop-color:#66A6FF"/>
			</linearGradient>
			<path class="st17" d="M186,122.3v0.2c0.7,10-5.1,20.5-17.7,29.1c-25.3,17.3-68.3,20.5-96.2,7.1c-13.8-6.7-21.3-16.1-22.2-26.2
				c-0.9-10.1,4.9-20.6,17.7-29.4C92.9,85.8,136,82.6,163.8,96C177.7,102.8,185.1,112.4,186,122.3z"/>
		</g>
		<path class="st4" d="M136.3,137.7c0.3-1.9-0.5-3.7-2.3-5.5c2.8,0.3,5.5,0.2,8.1-0.4c2.5-0.6,4.9-1.5,6.9-2.9
			c3.3-2.3,4.4-4.7,3.3-7.4c-0.9-2.3-3.3-4.5-7.3-6.8l6-4.1l-7.9-3.8l-5.9,4l-4.8-2.3l5.9-4l-7.9-3.8l-5.9,4l-4-2l0,0l-4.9-2.4
			l-7.1,4.9l4.9,2.4l-26.7,18.2l-4.9-2.4l-7.1,4.9l8.9,4.3l-3.3,2.3l7.9,3.8l3.3-2.3l3.9,1.9l0,0l0.9,0.4L93,141l7.9,3.8l3.3-2.3
			c5.4,2.5,10.3,3.7,15,3.9c5,0.1,9.4-1,12.9-3.5C134.6,141.4,136,139.6,136.3,137.7z M134.2,117.7c1.5,0.7,2.6,1.5,3.3,2.2
			c0.6,0.4,1.1,0.9,1.2,1.5c0.6,1.2,0,2.3-1.6,3.4s-3.4,1.6-5.6,1.5c-0.9,0-1.9-0.1-2.8-0.4c-1.4-0.3-2.8-0.8-4.3-1.5l-4-1.9
			l-4.8-2.3l-1.5-0.7l9.7-6.6l5.5,2.6l0,0l0.9,0.4L134.2,117.7z M116.7,139c-1.6-0.1-3.4-0.4-5.3-1.2c-0.7-0.3-1.4-0.6-2.1-0.9
			l-5.8-2.8l-0.9-0.4l0,0l-5.5-2.6l10.1-6.9l1.5,0.7l4.8,2.3l5.8,2.8c0.7,0.4,1.4,0.7,2,1c3.8,2.3,4.1,4.4,1.2,6.4
			C120.9,138.6,118.8,139.1,116.7,139z"/>
	</g>
</g>
</svg>
