<?xml version="1.0" encoding="utf-8"?>
<!-- Generator: Adobe Illustrator 22.0.0, SVG Export Plug-In . SVG Version: 6.00 Build 0)  -->
<svg version="1.1" id="Camada_1" xmlns="http://www.w3.org/2000/svg" xmlns:xlink="http://www.w3.org/1999/xlink" x="0px" y="0px"
	 viewBox="0 0 841.9 595.3" style="enable-background:new 0 0 841.9 595.3;" xml:space="preserve">
<style type="text/css">
	.st0{fill:url(#SVGID_1_);}
	.st1{fill:url(#SVGID_2_);}
	.st2{opacity:0.6;fill:#66A6FF;}
	.st3{fill:url(#SVGID_3_);}
	.st4{fill:url(#SVGID_4_);stroke:#FFFFFF;stroke-width:3;stroke-miterlimit:10;stroke-dasharray:9;}
	.st5{fill:#FFFFFF;}
</style>
<g>
	<linearGradient id="SVGID_1_" gradientUnits="userSpaceOnUse" x1="99.4399" y1="281.4329" x2="268.8208" y2="281.4329">
		<stop  offset="0" style="stop-color:#68E4F1"/>
		<stop  offset="1" style="stop-color:#66A6FF"/>
	</linearGradient>
	<path class="st0" d="M195.7,347.4H99.4v-39.2l90-137h51.1v137h28.3v39.2h-28.3v44.2h-44.8V347.4z M195.7,232.2H195l-48.9,76h49.5
		V232.2z"/>
	<linearGradient id="SVGID_2_" gradientUnits="userSpaceOnUse" x1="547.79" y1="281.4329" x2="717.1709" y2="281.4329">
		<stop  offset="0" style="stop-color:#68E4F1"/>
		<stop  offset="1" style="stop-color:#66A6FF"/>
	</linearGradient>
	<path class="st1" d="M644,347.4h-96.2v-39.2l90-137h51.1v137h28.3v39.2h-28.3v44.2H644V347.4z M644,232.2h-0.6l-48.9,76H644V232.2z
		"/>
</g>
<g>
	<path class="st2" d="M431.6,383.3c-33.4,1.3-59.3-33-80.3-78.2c-20.9-45.2-30.3-87.1-7.7-111.8l-1.1-3l26.4-13.1
		c1.1-0.6,2.2-1.1,3.3-1.7c36.8-17.1,87.1,13.3,112.4,67.8c25.2,54.5,15.9,112.5-20.9,129.5l-30.4,13.6L431.6,383.3z"/>
	<linearGradient id="SVGID_3_" gradientUnits="userSpaceOnUse" x1="314.7019" y1="284.996" x2="476.3732" y2="284.996">
		<stop  offset="0" style="stop-color:#68E4F1"/>
		<stop  offset="1" style="stop-color:#66A6FF"/>
	</linearGradient>
	<path class="st3" d="M349.8,186.3c-36.8,17.1-46.2,75.1-20.9,129.5c25.2,54.5,75.6,84.8,112.4,67.8c36.8-17.1,46.2-75.1,20.9-129.5
		C436.9,199.6,386.6,169.3,349.8,186.3z"/>
	<linearGradient id="SVGID_4_" gradientUnits="userSpaceOnUse" x1="323.0894" y1="285.1283" x2="465.0005" y2="285.1283">
		<stop  offset="0" style="stop-color:#68E4F1"/>
		<stop  offset="1" style="stop-color:#66A6FF"/>
	</linearGradient>
	<path class="st4" d="M353.5,197.6c-32.1,14.9-40,66.2-17.6,114.5s66.6,75.5,98.8,60.6s40-66.2,17.6-114.5
		C429.8,209.8,385.6,182.7,353.5,197.6z"/>
	<path class="st5" d="M423.8,320.3c0,7.2-2.2,12-6,14.2c-3.7,2.2-8.7,2-14.3-1v15.9l-9.3-5.6v-15.9l-5.5-3.3v15.9l-9.3-5.6V319
		l-16.6-9.9v-12.8l9,5.4v-56.9l-9-5.4v-12.8l9,5.4l0,0l7.6,4.5v-15.9l9.3,5.6v15.9l5.5,3.3v-15.9l9.3,5.6v16.1
		c4.7,3.4,9,8.3,12.2,14.2c2.9,5.5,4.5,11.2,4.5,17.2c0,3.2-0.4,5.9-1.6,8c-1.1,1.6-2.6,2.6-4.5,3v0.7c2.6,3.1,4.8,6.6,6.5,10.5
		C422.7,309.9,423.8,315.1,423.8,320.3z M406.5,268.3c-1.6-2.8-3.7-5-6.3-6.5l-17-10.1v19.1l18.7,11.2c2.1,1.2,3.7,1,4.9,0
		c1.2-1.1,1.9-2.9,1.9-5.5C408.6,273.6,407.9,270.8,406.5,268.3z M412.5,313.4c0-3.4-0.7-6.4-2.1-9.3c-1.9-3.7-4.7-7.1-7.6-8.8
		l-19.6-11.7v25l19,11.3c2.9,1.8,5.7,1.7,7.7,0.6C411.6,319.5,412.5,316.8,412.5,313.4z"/>
</g>
</svg>
