<?xml version="1.0" encoding="utf-8"?>
<!-- Generator: Adobe Illustrator 22.1.0, SVG Export Plug-In . SVG Version: 6.00 Build 0)  -->
<svg version="1.1" id="Camada_1" xmlns="http://www.w3.org/2000/svg" xmlns:xlink="http://www.w3.org/1999/xlink" x="0px" y="0px"
	 viewBox="0 0 330 153" style="enable-background:new 0 0 330 153;" xml:space="preserve">
<style type="text/css">
	.st0{fill:#FFFFFF;}
</style>
<g>
	<g id="BTC_2_">
		<path class="st0" d="M176.5,86.9c-1.3-0.6-4.1-1.5-7.6-1.7c-3.4-0.2-7.8,0-7.8,0V100c0,0,4.6,0.1,7.6-0.1c3-0.2,6.2-1,7.8-1.9
			c1.6-0.9,3.5-2.2,3.5-5.6C180.1,89,177.8,87.6,176.5,86.9z"/>
		<path class="st0" d="M166.9,78.4c2.5-0.1,5.2-0.7,7.1-1.7c1.9-1.1,3-2.7,2.9-5.3c0-2.5-1.7-4.6-4.6-5.5c-2.8-0.9-4.7-0.9-6.9-1
			c-2.2,0-4.3,0.1-4.3,0.1v13.3C161.2,78.4,164.4,78.5,166.9,78.4z"/>
		<path class="st0" d="M165.6,26.9c-30.7,0-55.7,24.9-55.7,55.7s24.9,55.7,55.7,55.7s55.7-24.9,55.7-55.7S196.3,26.9,165.6,26.9z
			 M188.3,103.9c-4.1,2.9-8.6,3.4-10.6,3.7c-1,0.1-2.6,0.2-4.4,0.3v11.1h-6.9v-11c-1.3,0-3.1,0-5.3,0v11h-6.9v-11
			c-6.8,0-13.5,0-13.5,0l1.4-8.2c0,0,2.7,0,4.1,0s2-0.1,2.6-0.7c0.6-0.5,0.7-1.4,0.7-2.1s0-26.7,0-28.4s-0.1-2.3-1-3.2s-2.7-1-3.8-1
			s-4,0-4,0v-7.1c0,0,6.5,0,13.5,0v-11h6.9v11c1.9,0,3.7,0,5.3,0v-11h6.9v11.1c5.1,0.3,8.9,1.3,12.3,3.7c4.3,3.2,4.1,8.7,4,10
			c-0.1,1.3-0.7,3.8-1.8,5.5c-1.2,1.6-4,3.3-4,3.3s3.3,0.7,5.7,2.5s4.1,4.9,4,9.4C193.3,96.5,192.4,101,188.3,103.9z"/>
	</g>
	<path class="st0" d="M84,12.4c-30.8,0-55.7,24.9-55.7,55.7s24.9,55.7,55.7,55.7s55.7-24.9,55.7-55.7S114.7,12.4,84,12.4z M83.2,105
		l-22-31.2l22,12.9L83.2,105L83.2,105z M83.2,82.2l-22.2-13l22.2-9.7V82.2z M83.2,57.9l-21.4,9.4l21.4-36
		C83.2,31.3,83.2,57.9,83.2,57.9z M84.7,31.3l21.7,36.2l-21.7-9.5V31.3z M84.7,105V86.8l22-12.9L84.7,105z M84.7,82.2V59.5l22.2,9.7
		L84.7,82.2z"/>
	<path id="LTC" class="st0" d="M246.8,12.4c-30.7,0-55.7,24.9-55.7,55.7c0,30.7,24.9,55.7,55.7,55.7c30.7,0,55.7-24.9,55.7-55.7
		C302.5,37.3,277.5,12.4,246.8,12.4z M268.4,95.2h-43.5l3.7-17.4l-7.1,4.9l1.7-9.5l7.4-5.1l7.3-34.8h13.6l-5,23.9l17.7-12.2
		l-2.1,9.9l-17.7,12.1l-3.5,16.6h29.9L268.4,95.2z"/>
</g>
</svg>
