<?xml version="1.0" encoding="utf-8"?>
<!-- Generator: Adobe Illustrator 22.0.0, SVG Export Plug-In . SVG Version: 6.00 Build 0)  -->
<svg version="1.1" id="Camada_1" xmlns="http://www.w3.org/2000/svg" xmlns:xlink="http://www.w3.org/1999/xlink" x="0px" y="0px"
	 viewBox="0 0 313.1 360" style="enable-background:new 0 0 313.1 360;" xml:space="preserve">
<style type="text/css">
	.st0{fill:url(#SVGID_1_);}
	.st1{fill:#FFFFFF;}
	.st2{fill:none;stroke:#C5E4FA;stroke-width:6;stroke-miterlimit:10;}
	.st3{fill:url(#SVGID_2_);}
	.st4{fill:url(#SVGID_3_);}
	.st5{fill:url(#SVGID_4_);}
	.st6{fill:url(#SVGID_5_);}
	.st7{fill:url(#SVGID_6_);}
	.st8{fill:url(#SVGID_7_);}
	.st9{fill:#AFB4C0;}
</style>
<g>
	<g id="Layer_2_1_">
		<g id="Layer_1-2">
			<g>
				
					<linearGradient id="SVGID_1_" gradientUnits="userSpaceOnUse" x1="18.7641" y1="181.85" x2="292.9359" y2="181.85" gradientTransform="matrix(1 0 0 -1 0 362)">
					<stop  offset="0" style="stop-color:#E6ECF5"/>
					<stop  offset="0.5126" style="stop-color:#EEF1F6"/>
					<stop  offset="1" style="stop-color:#EEF1F6"/>
				</linearGradient>
				<path class="st0" d="M26.1,63l182.6-49.5c5.3-1.4,10.7,1.7,12.1,7l71.8,264.7c1.4,5.3-1.7,10.7-7,12.1L103,346.8
					c-5.3,1.4-10.7-1.7-12.1-7L19.1,75.1C17.7,69.8,20.8,64.4,26.1,63z"/>
			</g>
			<g>
				<path class="st1" d="M49.7,25.3h196.9c3.3,0,6,2.7,6,6v282c0,3.3-2.7,6-6,6H49.7c-3.3,0-6-2.7-6-6v-282
					C43.6,28,46.3,25.3,49.7,25.3z"/>
			</g>
			<path class="st2" d="M217.8,136.4"/>
			
				<linearGradient id="SVGID_2_" gradientUnits="userSpaceOnUse" x1="65.1" y1="289.15" x2="233.0076" y2="289.15" gradientTransform="matrix(1 0 0 -1 0 362)">
				<stop  offset="0" style="stop-color:#E6ECF5"/>
				<stop  offset="0.5126" style="stop-color:#EEF1F6"/>
				<stop  offset="1" style="stop-color:#EEF1F6"/>
			</linearGradient>
			<path class="st3" d="M231.1,85.5h-164c-1.1,0-2-0.9-2-2V62.2c0-1.1,0.9-2,2-2H231c1.1,0,2,0.9,2,2v21.2
				C233.1,84.6,232.2,85.5,231.1,85.5z"/>
			
				<linearGradient id="SVGID_3_" gradientUnits="userSpaceOnUse" x1="65.1" y1="252.05" x2="233.0076" y2="252.05" gradientTransform="matrix(1 0 0 -1 0 362)">
				<stop  offset="0" style="stop-color:#E6ECF5"/>
				<stop  offset="0.5126" style="stop-color:#EEF1F6"/>
				<stop  offset="1" style="stop-color:#EEF1F6"/>
			</linearGradient>
			<path class="st4" d="M231.1,122.6h-164c-1.1,0-2-0.9-2-2V99.3c0-1.1,0.9-2,2-2H231c1.1,0,2,0.9,2,2v21.2
				C233.1,121.7,232.2,122.6,231.1,122.6z"/>
			
				<linearGradient id="SVGID_4_" gradientUnits="userSpaceOnUse" x1="65.1" y1="215" x2="233.0076" y2="215" gradientTransform="matrix(1 0 0 -1 0 362)">
				<stop  offset="0" style="stop-color:#E6ECF5"/>
				<stop  offset="0.5126" style="stop-color:#EEF1F6"/>
				<stop  offset="1" style="stop-color:#EEF1F6"/>
			</linearGradient>
			<path class="st5" d="M231.1,159.6h-164c-1.1,0-2-0.9-2-2v-21.2c0-1.1,0.9-2,2-2H231c1.1,0,2,0.9,2,2v21.2
				C233.1,158.7,232.2,159.6,231.1,159.6z"/>
			
				<linearGradient id="SVGID_5_" gradientUnits="userSpaceOnUse" x1="65.1" y1="177.9" x2="233.0076" y2="177.9" gradientTransform="matrix(1 0 0 -1 0 362)">
				<stop  offset="0" style="stop-color:#E6ECF5"/>
				<stop  offset="0.5126" style="stop-color:#EEF1F6"/>
				<stop  offset="1" style="stop-color:#EEF1F6"/>
			</linearGradient>
			<path class="st6" d="M231.1,196.7h-164c-1.1,0-2-0.9-2-2v-21.2c0-1.1,0.9-2,2-2H231c1.1,0,2,0.9,2,2v21.2
				C233.1,195.8,232.2,196.7,231.1,196.7z"/>
			
				<linearGradient id="SVGID_6_" gradientUnits="userSpaceOnUse" x1="65.1" y1="140.8" x2="233.0076" y2="140.8" gradientTransform="matrix(1 0 0 -1 0 362)">
				<stop  offset="0" style="stop-color:#E6ECF5"/>
				<stop  offset="0.5126" style="stop-color:#EEF1F6"/>
				<stop  offset="1" style="stop-color:#EEF1F6"/>
			</linearGradient>
			<path class="st7" d="M231.1,233.8h-164c-1.1,0-2-0.9-2-2v-21.2c0-1.1,0.9-2,2-2H231c1.1,0,2,0.9,2,2v21.2
				C233.1,232.9,232.2,233.8,231.1,233.8z"/>
			
				<linearGradient id="SVGID_7_" gradientUnits="userSpaceOnUse" x1="62.5" y1="83.3" x2="230.4" y2="83.3" gradientTransform="matrix(1 0 0 -1 0 362)">
				<stop  offset="0" style="stop-color:#68E4F1"/>
				<stop  offset="1" style="stop-color:#66A6FF"/>
			</linearGradient>
			<path class="st8" d="M217.8,291.3H75.1c-6.9,0-12.6-5.7-12.6-12.6l0,0c0-6.9,5.7-12.6,12.6-12.6h142.7c6.9,0,12.6,5.7,12.6,12.6
				l0,0C230.4,285.6,224.8,291.3,217.8,291.3z"/>
			<path class="st2" d="M105.6,136.4"/>
			<g>
				<path class="st9" d="M73,69.9h4.5v0.9H74V73h3.2v0.9H74V77h-1V69.9z"/>
				<path class="st9" d="M82.7,77h-0.9v-0.7l0,0c-0.1,0.3-0.3,0.5-0.6,0.6c-0.3,0.2-0.6,0.2-1,0.2c-0.2,0-0.5,0-0.7-0.1
					s-0.4-0.2-0.5-0.3c-0.2-0.1-0.3-0.3-0.4-0.6c-0.1-0.2-0.1-0.5-0.1-0.8v-3.1h0.9V75c0,0.2,0,0.4,0.1,0.6s0.1,0.3,0.2,0.4
					s0.2,0.2,0.3,0.2c0.1,0,0.3,0.1,0.4,0.1c0.2,0,0.4,0,0.5-0.1s0.3-0.2,0.4-0.3c0.1-0.1,0.2-0.3,0.3-0.5c0.1-0.2,0.1-0.4,0.1-0.7
					v-2.4h0.9L82.7,77L82.7,77z"/>
				<path class="st9" d="M84.1,69.4H85V77h-0.9V69.4z"/>
				<path class="st9" d="M86.5,69.4h0.9V77h-0.9V69.4z"/>
				<path class="st9" d="M91.8,69.9h1.3l3.9,5.8l0,0v-5.8h1V77h-1.2l-3.9-5.8l0,0V77h-1v-7.1H91.8z"/>
				<path class="st9" d="M99.6,72.8c0.3-0.2,0.5-0.4,0.9-0.5c0.3-0.1,0.7-0.2,1-0.2s0.6,0,0.9,0.1c0.2,0.1,0.5,0.2,0.6,0.4
					s0.3,0.3,0.4,0.5s0.1,0.4,0.1,0.6v2.4c0,0.2,0,0.3,0,0.5c0,0.1,0,0.3,0,0.4h-0.8c0-0.2,0-0.5,0-0.7l0,0
					c-0.2,0.3-0.4,0.5-0.7,0.7c-0.3,0.1-0.6,0.2-1,0.2c-0.2,0-0.4,0-0.6-0.1s-0.4-0.1-0.5-0.3c-0.1-0.1-0.3-0.3-0.4-0.4
					c-0.1-0.2-0.1-0.4-0.1-0.6c0-0.3,0.1-0.6,0.2-0.8s0.3-0.4,0.6-0.5c0.2-0.1,0.5-0.2,0.8-0.3s0.7-0.1,1-0.1h0.7v-0.2
					c0-0.1,0-0.2-0.1-0.4c0-0.1-0.1-0.2-0.2-0.3c-0.1-0.1-0.2-0.2-0.4-0.2c-0.1-0.1-0.3-0.1-0.5-0.1s-0.3,0-0.5,0.1
					s-0.2,0.1-0.4,0.1c-0.1,0-0.2,0.1-0.3,0.2c-0.1,0.1-0.2,0.1-0.2,0.2L99.6,72.8z M102.1,74.7c-0.2,0-0.4,0-0.7,0
					c-0.2,0-0.4,0.1-0.6,0.1c-0.2,0.1-0.3,0.2-0.4,0.3c-0.1,0.1-0.2,0.3-0.2,0.5c0,0.3,0.1,0.5,0.3,0.6c0.2,0.1,0.4,0.2,0.7,0.2
					c0.2,0,0.5,0,0.6-0.1c0.2-0.1,0.3-0.2,0.4-0.3s0.2-0.3,0.2-0.4c0-0.2,0.1-0.3,0.1-0.5v-0.3L102.1,74.7L102.1,74.7z"/>
				<path class="st9" d="M104.8,72.3h0.8V73l0,0c0-0.1,0.1-0.1,0.2-0.2s0.2-0.2,0.3-0.3c0.1-0.1,0.3-0.2,0.5-0.2
					c0.2-0.1,0.4-0.1,0.6-0.1c0.4,0,0.7,0.1,0.9,0.2c0.2,0.1,0.4,0.4,0.6,0.7c0.2-0.3,0.4-0.5,0.7-0.7c0.3-0.1,0.6-0.2,0.8-0.2
					c0.4,0,0.7,0.1,0.9,0.2c0.2,0.1,0.4,0.3,0.5,0.5s0.2,0.4,0.3,0.7c0.1,0.2,0.1,0.5,0.1,0.8V77h-1v-2.6c0-0.2,0-0.4,0-0.5
					c0-0.2-0.1-0.3-0.1-0.4c-0.1-0.1-0.2-0.2-0.3-0.3c-0.1-0.1-0.3-0.1-0.5-0.1c-0.4,0-0.7,0.1-0.9,0.4s-0.3,0.6-0.3,1V77H108v-2.5
					c0-0.2,0-0.4,0-0.6s-0.1-0.3-0.1-0.5c-0.1-0.1-0.2-0.2-0.3-0.3s-0.3-0.1-0.5-0.1s-0.3,0-0.5,0.1c-0.1,0.1-0.3,0.2-0.4,0.3
					c-0.1,0.1-0.2,0.3-0.3,0.5c-0.1,0.2-0.1,0.4-0.1,0.7V77h-0.9L104.8,72.3L104.8,72.3z"/>
				<path class="st9" d="M114,75c0,0.2,0,0.4,0.1,0.6s0.2,0.3,0.4,0.4s0.3,0.2,0.5,0.3c0.2,0.1,0.4,0.1,0.6,0.1
					c0.3,0,0.5-0.1,0.7-0.2s0.4-0.3,0.6-0.5l0.7,0.5c-0.5,0.6-1.2,1-2.1,1c-0.4,0-0.7-0.1-1-0.2s-0.6-0.3-0.8-0.5
					c-0.2-0.2-0.4-0.5-0.5-0.8s-0.2-0.6-0.2-1s0.1-0.7,0.2-1s0.3-0.6,0.5-0.8c0.2-0.2,0.5-0.4,0.8-0.5s0.6-0.2,1-0.2
					s0.8,0.1,1.1,0.2c0.3,0.1,0.5,0.3,0.7,0.6s0.3,0.5,0.4,0.8s0.1,0.6,0.1,0.9V75H114z M116.8,74.2c0-0.2,0-0.4-0.1-0.6
					s-0.1-0.3-0.3-0.4c-0.1-0.1-0.3-0.2-0.4-0.3c-0.2-0.1-0.4-0.1-0.6-0.1s-0.4,0-0.6,0.1s-0.3,0.2-0.5,0.3s-0.2,0.3-0.3,0.4
					c-0.1,0.2-0.1,0.3-0.1,0.5L116.8,74.2L116.8,74.2z"/>
			</g>
			<g>
				<path class="st9" d="M73,106.9h4.6v0.9H74v2.1h3.4v0.9H74v2.3h3.8v0.9H73V106.9z"/>
				<path class="st9" d="M78.8,109.3h0.8v0.7l0,0c0-0.1,0.1-0.1,0.2-0.2s0.2-0.2,0.3-0.3c0.1-0.1,0.3-0.2,0.5-0.2
					c0.2-0.1,0.4-0.1,0.6-0.1c0.4,0,0.7,0.1,0.9,0.2c0.2,0.1,0.4,0.4,0.6,0.7c0.2-0.3,0.4-0.5,0.7-0.7c0.3-0.1,0.6-0.2,0.8-0.2
					c0.4,0,0.7,0.1,0.9,0.2c0.2,0.1,0.4,0.3,0.5,0.5s0.2,0.4,0.3,0.7c0.1,0.2,0.1,0.5,0.1,0.8v2.8h-0.9v-2.6c0-0.2,0-0.4,0-0.5
					c0-0.2-0.1-0.3-0.1-0.4c-0.1-0.1-0.2-0.2-0.3-0.3c-0.1-0.1-0.3-0.1-0.5-0.1c-0.4,0-0.7,0.1-0.9,0.4s-0.3,0.6-0.3,1v2.6h-1v-2.5
					c0-0.2,0-0.4,0-0.6s-0.1-0.3-0.1-0.5c-0.1-0.1-0.2-0.2-0.3-0.3S81.2,110,81,110s-0.3,0-0.5,0.1c-0.1,0.1-0.3,0.2-0.4,0.3
					c-0.1,0.1-0.2,0.3-0.3,0.5c-0.1,0.2-0.1,0.4-0.1,0.7v2.5h-0.9C78.8,114.1,78.8,109.3,78.8,109.3z"/>
				<path class="st9" d="M87.4,109.8c0.3-0.2,0.5-0.4,0.9-0.5c0.3-0.1,0.7-0.2,1-0.2s0.6,0,0.9,0.1c0.2,0.1,0.5,0.2,0.6,0.4
					s0.3,0.3,0.4,0.5s0.1,0.4,0.1,0.6v2.4c0,0.2,0,0.3,0,0.5c0,0.1,0,0.3,0,0.4h-0.8c0-0.2,0-0.5,0-0.7l0,0
					c-0.2,0.3-0.4,0.5-0.7,0.7c-0.3,0.1-0.6,0.2-1,0.2c-0.2,0-0.4,0-0.6-0.1s-0.4-0.1-0.5-0.3c-0.1-0.1-0.3-0.3-0.4-0.4
					c-0.1-0.2-0.1-0.4-0.1-0.6c0-0.3,0.1-0.6,0.2-0.8s0.3-0.4,0.6-0.5c0.2-0.1,0.5-0.2,0.8-0.3s0.7-0.1,1-0.1h0.7v-0.2
					c0-0.1,0-0.2-0.1-0.4c0-0.1-0.1-0.2-0.2-0.3c-0.1-0.1-0.2-0.2-0.4-0.2c-0.1-0.1-0.3-0.1-0.5-0.1s-0.3,0-0.5,0.1
					s-0.2,0.1-0.4,0.1c-0.1,0-0.2,0.1-0.3,0.2c-0.1,0.1-0.2,0.1-0.2,0.2L87.4,109.8z M89.9,111.7c-0.2,0-0.4,0-0.7,0
					c-0.2,0-0.4,0.1-0.6,0.1c-0.2,0.1-0.3,0.2-0.4,0.3c-0.1,0.1-0.2,0.3-0.2,0.5c0,0.3,0.1,0.5,0.3,0.6c0.2,0.1,0.4,0.2,0.7,0.2
					c0.2,0,0.5,0,0.6-0.1c0.2-0.1,0.3-0.2,0.4-0.3s0.2-0.3,0.2-0.4c0-0.2,0.1-0.3,0.1-0.5v-0.3L89.9,111.7L89.9,111.7z"/>
				<path class="st9" d="M92.4,107.6c0-0.2,0.1-0.3,0.2-0.5c0.1-0.1,0.3-0.2,0.5-0.2s0.3,0.1,0.5,0.2c0.1,0.1,0.2,0.3,0.2,0.5
					s-0.1,0.3-0.2,0.5s-0.3,0.2-0.5,0.2s-0.3-0.1-0.5-0.2S92.4,107.7,92.4,107.6z M92.6,109.3h0.9v4.7h-0.9V109.3z"/>
				<path class="st9" d="M95,106.4h0.9v7.6H95V106.4z"/>
			</g>
			<g>
				<path class="st9" d="M73,143.6h2.5c0.5,0,0.8,0.1,1.1,0.2c0.3,0.1,0.5,0.3,0.7,0.5s0.3,0.4,0.4,0.6c0.1,0.2,0.1,0.5,0.1,0.7
					s0,0.4-0.1,0.7c-0.1,0.2-0.2,0.5-0.4,0.6s-0.4,0.3-0.7,0.5c-0.3,0.1-0.7,0.2-1.1,0.2H74v3.1h-1V143.6z M73.9,146.7h1.3
					c0.2,0,0.4,0,0.6,0s0.3-0.1,0.5-0.2s0.3-0.2,0.3-0.3c0.1-0.1,0.1-0.3,0.1-0.6c0-0.2,0-0.4-0.1-0.6c-0.1-0.1-0.2-0.3-0.3-0.3
					c-0.1-0.1-0.3-0.1-0.5-0.2c-0.2,0-0.4,0-0.6,0h-1.3V146.7z"/>
				<path class="st9" d="M78.7,143.1h0.9v3.6l0,0c0.1-0.3,0.3-0.5,0.6-0.6c0.3-0.2,0.6-0.2,1-0.2c0.2,0,0.4,0,0.7,0.1
					c0.2,0.1,0.4,0.2,0.5,0.3c0.2,0.1,0.3,0.3,0.4,0.6c0.1,0.2,0.1,0.5,0.1,0.8v3H82v-2.8c0-0.2,0-0.4-0.1-0.6
					c-0.1-0.2-0.1-0.3-0.2-0.4c-0.1-0.1-0.2-0.2-0.3-0.2c-0.1,0-0.3-0.1-0.4-0.1c-0.2,0-0.4,0-0.5,0.1s-0.3,0.2-0.4,0.3
					s-0.2,0.3-0.3,0.5c-0.1,0.2-0.1,0.4-0.1,0.7v2.4h-0.9L78.7,143.1L78.7,143.1z"/>
				<path class="st9" d="M84,148.3c0-0.3,0.1-0.7,0.2-1s0.3-0.6,0.5-0.8s0.5-0.4,0.8-0.5s0.6-0.2,1-0.2s0.7,0.1,1,0.2
					s0.6,0.3,0.8,0.5s0.4,0.5,0.5,0.8s0.2,0.6,0.2,1s-0.1,0.7-0.2,1s-0.3,0.6-0.5,0.8s-0.5,0.4-0.8,0.5s-0.6,0.2-1,0.2
					s-0.7-0.1-1-0.2c-0.3-0.1-0.6-0.3-0.8-0.5c-0.2-0.2-0.4-0.5-0.5-0.8S84,148.6,84,148.3z M85,148.3c0,0.2,0,0.5,0.1,0.7
					s0.2,0.4,0.3,0.5c0.1,0.1,0.3,0.3,0.5,0.3c0.2,0.1,0.4,0.1,0.6,0.1s0.5,0,0.7-0.1s0.4-0.2,0.5-0.3s0.2-0.3,0.3-0.5
					c0.1-0.2,0.1-0.4,0.1-0.7c0-0.2,0-0.5-0.1-0.7s-0.2-0.4-0.3-0.5c-0.1-0.1-0.3-0.3-0.5-0.3s-0.4-0.1-0.7-0.1
					c-0.2,0-0.5,0-0.6,0.1s-0.4,0.2-0.5,0.3s-0.2,0.3-0.3,0.5C85,147.8,85,148.1,85,148.3z"/>
				<path class="st9" d="M90.2,145.9h0.9v0.7l0,0c0.1-0.3,0.3-0.5,0.6-0.6c0.3-0.2,0.6-0.2,1-0.2c0.2,0,0.4,0,0.7,0.1
					c0.2,0.1,0.4,0.2,0.5,0.3c0.2,0.1,0.3,0.3,0.4,0.6c0.1,0.2,0.1,0.5,0.1,0.8v3h-0.9v-2.8c0-0.2,0-0.4-0.1-0.6
					c-0.1-0.2-0.1-0.3-0.2-0.4c-0.1-0.1-0.2-0.2-0.3-0.2c-0.1,0-0.3-0.1-0.4-0.1c-0.2,0-0.4,0-0.5,0.1s-0.3,0.2-0.4,0.3
					s-0.2,0.3-0.3,0.5c-0.1,0.2-0.1,0.4-0.1,0.7v2.4h-0.9L90.2,145.9L90.2,145.9z"/>
				<path class="st9" d="M96.4,148.6c0,0.2,0,0.4,0.1,0.6s0.2,0.3,0.4,0.4s0.3,0.2,0.5,0.3s0.4,0.1,0.6,0.1c0.3,0,0.5-0.1,0.7-0.2
					c0.2-0.1,0.4-0.3,0.6-0.5l0.7,0.5c-0.5,0.6-1.2,1-2.1,1c-0.4,0-0.7-0.1-1-0.2c-0.3-0.1-0.6-0.3-0.8-0.5
					c-0.2-0.2-0.4-0.5-0.5-0.8s-0.2-0.6-0.2-1s0.1-0.7,0.2-1s0.3-0.6,0.5-0.8s0.5-0.4,0.8-0.5s0.6-0.2,1-0.2s0.8,0.1,1.1,0.2
					c0.3,0.1,0.5,0.3,0.7,0.6s0.3,0.5,0.4,0.8s0.1,0.6,0.1,0.9v0.3L96.4,148.6L96.4,148.6z M99.2,147.9c0-0.2,0-0.4-0.1-0.6
					c-0.1-0.2-0.1-0.3-0.3-0.4c-0.1-0.1-0.3-0.2-0.4-0.3c-0.2-0.1-0.4-0.1-0.6-0.1s-0.4,0-0.6,0.1s-0.3,0.2-0.5,0.3
					s-0.2,0.3-0.3,0.4c-0.1,0.2-0.1,0.3-0.1,0.5h2.9V147.9z"/>
				<path class="st9" d="M104.3,143.6h1.3l3.9,5.8l0,0v-5.8h1v7.1h-1.2l-3.9-5.8l0,0v5.8h-1v-7.1H104.3z"/>
				<path class="st9" d="M116.2,150.7h-0.9V150l0,0c-0.1,0.3-0.3,0.5-0.6,0.6c-0.3,0.2-0.6,0.2-1,0.2c-0.2,0-0.5,0-0.7-0.1
					s-0.4-0.2-0.5-0.3c-0.2-0.1-0.3-0.3-0.4-0.6c-0.1-0.2-0.1-0.5-0.1-0.8v-3.1h0.9v2.8c0,0.2,0,0.4,0.1,0.6
					c0.1,0.2,0.1,0.3,0.2,0.4c0.1,0.1,0.2,0.2,0.3,0.2c0.1,0,0.3,0.1,0.4,0.1c0.2,0,0.4,0,0.5-0.1s0.3-0.2,0.4-0.3s0.2-0.3,0.3-0.5
					c0.1-0.2,0.1-0.4,0.1-0.7V146h0.9L116.2,150.7L116.2,150.7z"/>
				<path class="st9" d="M117.6,145.9h0.8v0.7l0,0c0-0.1,0.1-0.1,0.2-0.2c0.1-0.1,0.2-0.2,0.3-0.3c0.1-0.1,0.3-0.2,0.5-0.2
					c0.2-0.1,0.4-0.1,0.6-0.1c0.4,0,0.7,0.1,0.9,0.2c0.2,0.1,0.4,0.4,0.6,0.7c0.2-0.3,0.4-0.5,0.7-0.7c0.3-0.1,0.6-0.2,0.8-0.2
					c0.4,0,0.7,0.1,0.9,0.2c0.2,0.1,0.4,0.3,0.5,0.5s0.2,0.4,0.3,0.7c0.1,0.2,0.1,0.5,0.1,0.8v2.8h-0.9V148c0-0.2,0-0.4,0-0.5
					c0-0.2-0.1-0.3-0.1-0.4c-0.1-0.1-0.2-0.2-0.3-0.3c-0.1-0.1-0.3-0.1-0.5-0.1c-0.4,0-0.7,0.1-0.9,0.4s-0.3,0.6-0.3,1v2.6h-0.9
					v-2.5c0-0.2,0-0.4,0-0.6c0-0.2-0.1-0.3-0.1-0.5c-0.1-0.1-0.2-0.2-0.3-0.3s-0.3-0.1-0.5-0.1s-0.3,0-0.5,0.1
					c-0.1,0.1-0.3,0.2-0.4,0.3s-0.2,0.3-0.3,0.5c-0.1,0.2-0.1,0.4-0.1,0.7v2.5h-0.9v-4.9H117.6z"/>
				<path class="st9" d="M126.1,143.1h0.9v3.5l0,0c0.2-0.2,0.4-0.4,0.7-0.6c0.3-0.1,0.6-0.2,1-0.2s0.7,0.1,1,0.2s0.5,0.3,0.8,0.5
					c0.2,0.2,0.4,0.5,0.5,0.8s0.2,0.6,0.2,1s-0.1,0.7-0.2,1c-0.1,0.3-0.3,0.6-0.5,0.8s-0.5,0.4-0.8,0.5s-0.6,0.2-1,0.2
					c-0.3,0-0.6-0.1-0.9-0.2c-0.3-0.1-0.5-0.3-0.7-0.6l0,0v0.7h-0.9L126.1,143.1L126.1,143.1z M128.6,149.9c0.2,0,0.5,0,0.7-0.1
					s0.4-0.2,0.5-0.3s0.2-0.3,0.3-0.5s0.1-0.4,0.1-0.7c0-0.2,0-0.5-0.1-0.7s-0.2-0.4-0.3-0.5s-0.3-0.3-0.5-0.3s-0.4-0.1-0.7-0.1
					c-0.2,0-0.5,0-0.6,0.1c-0.2,0.1-0.4,0.2-0.5,0.3s-0.2,0.3-0.3,0.5c-0.1,0.2-0.1,0.4-0.1,0.7c0,0.2,0,0.5,0.1,0.7
					s0.2,0.4,0.3,0.5c0.1,0.1,0.3,0.3,0.5,0.3C128.1,149.9,128.3,149.9,128.6,149.9z"/>
				<path class="st9" d="M132.9,148.6c0,0.2,0,0.4,0.1,0.6s0.2,0.3,0.4,0.4s0.3,0.2,0.5,0.3s0.4,0.1,0.6,0.1c0.3,0,0.5-0.1,0.7-0.2
					c0.2-0.1,0.4-0.3,0.6-0.5l0.7,0.5c-0.5,0.6-1.2,1-2.1,1c-0.4,0-0.7-0.1-1-0.2c-0.3-0.1-0.6-0.3-0.8-0.5s-0.4-0.5-0.5-0.8
					s-0.2-0.6-0.2-1s0.1-0.7,0.2-1s0.3-0.6,0.5-0.8s0.5-0.4,0.8-0.5s0.6-0.2,1-0.2s0.8,0.1,1.1,0.2c0.3,0.1,0.5,0.3,0.7,0.6
					s0.3,0.5,0.4,0.8c0.1,0.3,0.1,0.6,0.1,0.9v0.3L132.9,148.6L132.9,148.6z M135.7,147.9c0-0.2,0-0.4-0.1-0.6
					c-0.1-0.2-0.1-0.3-0.3-0.4c-0.1-0.1-0.3-0.2-0.4-0.3c-0.2-0.1-0.4-0.1-0.6-0.1c-0.2,0-0.4,0-0.6,0.1c-0.2,0.1-0.3,0.2-0.5,0.3
					s-0.2,0.3-0.3,0.4c-0.1,0.2-0.1,0.3-0.1,0.5h2.9V147.9z"/>
				<path class="st9" d="M137.8,145.9h0.9v0.7l0,0c0.1-0.1,0.1-0.2,0.2-0.3c0.1-0.1,0.2-0.2,0.3-0.3s0.3-0.1,0.4-0.2
					s0.3-0.1,0.4-0.1c0.1,0,0.3,0,0.4,0.1v1c-0.1,0-0.1,0-0.2,0s-0.1,0-0.2,0c-0.4,0-0.8,0.1-1,0.4s-0.3,0.6-0.3,1.1v2.4h-0.9
					L137.8,145.9L137.8,145.9z"/>
			</g>
			<g>
				<path class="st9" d="M77.9,181.5c-0.2-0.3-0.5-0.5-0.8-0.6s-0.6-0.2-1-0.2s-0.8,0.1-1.1,0.2c-0.3,0.1-0.6,0.4-0.8,0.6
					c-0.2,0.3-0.4,0.6-0.5,0.9c-0.1,0.4-0.2,0.7-0.2,1.1c0,0.4,0.1,0.7,0.2,1.1s0.3,0.6,0.5,0.9c0.2,0.3,0.5,0.5,0.8,0.6
					s0.7,0.2,1.1,0.2s0.8-0.1,1.1-0.2c0.3-0.2,0.6-0.4,0.8-0.7l0.8,0.6c-0.1,0.1-0.1,0.2-0.3,0.3c-0.1,0.1-0.3,0.3-0.5,0.4
					c-0.2,0.1-0.5,0.3-0.8,0.4c-0.3,0.1-0.7,0.2-1.1,0.2c-0.6,0-1.1-0.1-1.5-0.3s-0.8-0.5-1.1-0.8c-0.3-0.3-0.6-0.7-0.7-1.2
					c-0.2-0.4-0.2-0.9-0.2-1.3c0-0.5,0.1-1.1,0.3-1.5c0.2-0.5,0.4-0.9,0.8-1.2c0.3-0.3,0.7-0.6,1.2-0.8s1-0.3,1.5-0.3
					s0.9,0.1,1.4,0.3s0.8,0.5,1.1,0.8L77.9,181.5z"/>
				<path class="st9" d="M84,187h-0.9v-0.7l0,0c-0.1,0.3-0.3,0.5-0.6,0.6c-0.3,0.2-0.6,0.2-1,0.2c-0.2,0-0.5,0-0.7-0.1
					s-0.4-0.2-0.5-0.3c-0.2-0.1-0.3-0.3-0.4-0.6c-0.1-0.2-0.1-0.5-0.1-0.8v-3.1h0.9v2.8c0,0.2,0,0.4,0.1,0.6
					c0.1,0.2,0.1,0.3,0.2,0.4c0.1,0.1,0.2,0.2,0.3,0.2c0.1,0,0.3,0.1,0.4,0.1c0.2,0,0.4,0,0.5-0.1s0.3-0.2,0.4-0.3s0.2-0.3,0.3-0.5
					c0.1-0.2,0.1-0.4,0.1-0.7v-2.4h1V187z"/>
				<path class="st9" d="M85.3,182.3h0.9v0.7l0,0c0.1-0.1,0.1-0.2,0.2-0.3s0.2-0.2,0.3-0.3c0.1-0.1,0.3-0.1,0.4-0.2s0.3-0.1,0.4-0.1
					s0.3,0,0.4,0.1v1c-0.1,0-0.1,0-0.2,0s-0.1,0-0.2,0c-0.4,0-0.8,0.1-1,0.4s-0.3,0.6-0.3,1.1v2.4h-0.9
					C85.3,187.1,85.3,182.3,85.3,182.3z"/>
				<path class="st9" d="M89,182.3h0.9v0.7l0,0c0.1-0.1,0.1-0.2,0.2-0.3s0.2-0.2,0.3-0.3c0.1-0.1,0.3-0.1,0.4-0.2s0.3-0.1,0.4-0.1
					s0.3,0,0.4,0.1v1c-0.1,0-0.1,0-0.2,0s-0.1,0-0.2,0c-0.4,0-0.8,0.1-1,0.4s-0.3,0.6-0.3,1.1v2.4H89V182.3z"/>
				<path class="st9" d="M93.2,185c0,0.2,0,0.4,0.1,0.6s0.2,0.3,0.4,0.4s0.3,0.2,0.5,0.3s0.4,0.1,0.6,0.1c0.3,0,0.5-0.1,0.7-0.2
					c0.2-0.1,0.4-0.3,0.6-0.5l0.7,0.5c-0.5,0.6-1.2,1-2.1,1c-0.4,0-0.7-0.1-1-0.2c-0.3-0.1-0.6-0.3-0.8-0.5
					c-0.2-0.2-0.4-0.5-0.5-0.8s-0.2-0.6-0.2-1s0.1-0.7,0.2-1s0.3-0.6,0.5-0.8s0.5-0.4,0.8-0.5s0.6-0.2,1-0.2s0.8,0.1,1.1,0.2
					c0.3,0.1,0.5,0.3,0.7,0.6s0.3,0.5,0.4,0.8s0.1,0.6,0.1,0.9v0.3L93.2,185L93.2,185z M96.1,184.2c0-0.2,0-0.4-0.1-0.6
					c-0.1-0.2-0.1-0.3-0.3-0.4c-0.1-0.1-0.3-0.2-0.4-0.3c-0.2-0.1-0.4-0.1-0.6-0.1s-0.4,0-0.6,0.1s-0.3,0.2-0.5,0.3
					s-0.2,0.3-0.3,0.4c-0.1,0.2-0.1,0.3-0.1,0.5h2.9V184.2z"/>
				<path class="st9" d="M98.1,182.3H99v0.7l0,0c0.1-0.3,0.3-0.5,0.6-0.6c0.3-0.2,0.6-0.2,1-0.2c0.2,0,0.4,0,0.7,0.1
					c0.2,0.1,0.4,0.2,0.5,0.3c0.2,0.1,0.3,0.3,0.4,0.6c0.1,0.2,0.1,0.5,0.1,0.8v3h-0.9v-2.8c0-0.2,0-0.4-0.1-0.6
					c-0.1-0.2-0.1-0.3-0.2-0.4c-0.1-0.1-0.2-0.2-0.3-0.2c-0.1,0-0.3-0.1-0.4-0.1c-0.2,0-0.4,0-0.5,0.1s-0.3,0.2-0.4,0.3
					s-0.2,0.3-0.3,0.5c-0.1,0.2-0.1,0.4-0.1,0.7v2.4h-0.9L98.1,182.3L98.1,182.3z"/>
				<path class="st9" d="M107.1,183.5c-0.2-0.2-0.3-0.3-0.5-0.4s-0.4-0.1-0.7-0.1c-0.2,0-0.5,0-0.6,0.1s-0.3,0.2-0.5,0.4
					c-0.1,0.2-0.2,0.3-0.3,0.5c-0.1,0.2-0.1,0.4-0.1,0.6c0,0.2,0,0.4,0.1,0.6c0.1,0.2,0.2,0.4,0.3,0.5c0.1,0.1,0.3,0.3,0.5,0.3
					c0.2,0.1,0.4,0.1,0.6,0.1c0.3,0,0.5,0,0.6-0.1s0.3-0.2,0.5-0.4l0.6,0.6c-0.2,0.3-0.5,0.4-0.8,0.6s-0.6,0.2-1,0.2s-0.7-0.1-1-0.2
					s-0.6-0.3-0.8-0.5c-0.2-0.2-0.4-0.5-0.5-0.8s-0.2-0.6-0.2-1s0.1-0.7,0.2-1s0.3-0.6,0.5-0.8s0.5-0.4,0.8-0.5s0.6-0.2,1-0.2
					c0.3,0,0.7,0.1,1,0.2c0.3,0.1,0.6,0.3,0.8,0.6L107.1,183.5z"/>
				<path class="st9" d="M107.9,182.3h1l1.4,3.7l0,0l1.3-3.7h1l-2.2,5.8c-0.1,0.2-0.2,0.4-0.2,0.6c-0.1,0.2-0.2,0.3-0.3,0.4
					c-0.1,0.1-0.3,0.2-0.4,0.3c-0.2,0.1-0.4,0.1-0.6,0.1c-0.1,0-0.3,0-0.4,0s-0.3-0.1-0.4-0.1l0.1-0.8c0.2,0.1,0.4,0.1,0.5,0.1
					s0.3,0,0.4-0.1s0.2-0.1,0.2-0.2c0.1-0.1,0.1-0.2,0.2-0.2c0-0.1,0.1-0.2,0.1-0.3l0.3-0.8L107.9,182.3z"/>
			</g>
			<g>
				<path class="st9" d="M73,216.9h2.5c0.5,0,0.8,0.1,1.1,0.2c0.3,0.1,0.5,0.3,0.7,0.5s0.3,0.4,0.4,0.6c0.1,0.2,0.1,0.5,0.1,0.7
					s0,0.4-0.1,0.7c-0.1,0.2-0.2,0.5-0.4,0.6c-0.2,0.2-0.4,0.3-0.7,0.5c-0.3,0.1-0.7,0.2-1.1,0.2H74v3.1h-1V216.9z M73.9,220h1.3
					c0.2,0,0.4,0,0.6,0s0.3-0.1,0.5-0.2s0.3-0.2,0.3-0.3c0.1-0.2,0.1-0.3,0.1-0.6s0-0.4-0.1-0.6c-0.1-0.2-0.2-0.3-0.3-0.3
					c-0.1-0.1-0.3-0.1-0.5-0.2c-0.2,0-0.4,0-0.6,0h-1.3V220z"/>
				<path class="st9" d="M78.7,219.8c0.3-0.2,0.5-0.4,0.9-0.5c0.3-0.1,0.7-0.2,1-0.2s0.6,0,0.9,0.1s0.5,0.2,0.6,0.3s0.3,0.3,0.4,0.5
					s0.1,0.4,0.1,0.6v2.4c0,0.2,0,0.3,0,0.5c0,0.1,0,0.3,0,0.4h-0.8c0-0.2,0-0.5,0-0.7l0,0c-0.2,0.3-0.4,0.5-0.7,0.7
					c-0.3,0.1-0.6,0.2-1,0.2c-0.2,0-0.4,0-0.6-0.1s-0.4-0.2-0.5-0.3s-0.3-0.3-0.4-0.4s-0.1-0.4-0.1-0.6c0-0.3,0.1-0.6,0.2-0.8
					s0.3-0.4,0.6-0.5c0.2-0.1,0.5-0.2,0.8-0.3s0.7-0.1,1-0.1h0.7v-0.2c0-0.1,0-0.2-0.1-0.4c0-0.1-0.1-0.2-0.2-0.3s-0.2-0.2-0.4-0.2
					c-0.1-0.1-0.3-0.1-0.5-0.1s-0.3,0-0.5,0s-0.2,0.1-0.4,0.1c-0.1,0-0.2,0.1-0.3,0.2c-0.1,0.1-0.2,0.1-0.2,0.2L78.7,219.8z
					 M81.2,221.7c-0.2,0-0.4,0-0.7,0c-0.2,0-0.4,0.1-0.6,0.1c-0.2,0.1-0.3,0.2-0.4,0.3s-0.2,0.3-0.2,0.5c0,0.3,0.1,0.5,0.3,0.6
					c0.2,0.1,0.4,0.2,0.7,0.2c0.2,0,0.5,0,0.6-0.1c0.2-0.1,0.3-0.2,0.4-0.3s0.2-0.3,0.2-0.4c0-0.2,0.1-0.3,0.1-0.5v-0.3h-0.4V221.7z
					"/>
				<path class="st9" d="M86.4,220.5c-0.1-0.1-0.2-0.2-0.4-0.3c-0.2-0.1-0.3-0.1-0.6-0.1c-0.2,0-0.4,0-0.6,0.1s-0.2,0.2-0.2,0.4
					c0,0.1,0,0.3,0.1,0.3c0.1,0.1,0.2,0.2,0.3,0.2c0.1,0.1,0.3,0.1,0.4,0.1s0.3,0,0.4,0.1c0.2,0,0.4,0.1,0.5,0.2
					c0.2,0.1,0.3,0.2,0.4,0.3s0.2,0.2,0.3,0.4c0.1,0.2,0.1,0.3,0.1,0.6s-0.1,0.5-0.2,0.7s-0.3,0.3-0.4,0.5s-0.3,0-0.5,0
					c-0.2,0.1-0.5,0.1-0.7,0.1c-0.4,0-0.7-0.1-1-0.2c-0.3-0.1-0.6-0.3-0.8-0.7l0.7-0.6c0.1,0.1,0.3,0.3,0.5,0.4
					c0.2,0.1,0.4,0.2,0.7,0.2c0.1,0,0.2,0,0.3,0c0.1,0,0.2-0.1,0.3-0.1c0.1,0,0.2-0.1,0.2-0.2s0.1-0.2,0.1-0.3s0-0.2-0.1-0.3
					s-0.2-0.2-0.3-0.2c-0.1,0-0.2-0.1-0.4-0.1c-0.1,0-0.2-0.1-0.3-0.1c-0.2,0-0.4-0.1-0.5-0.2c-0.2-0.1-0.3-0.1-0.5-0.2
					c-0.1-0.1-0.2-0.2-0.3-0.4s-0.1-0.3-0.1-0.6c0-0.2,0.1-0.5,0.2-0.6s0.2-0.3,0.4-0.5s0.4-0.2,0.6-0.3s0.4-0.1,0.7-0.1
					c0.3,0,0.6,0.1,0.9,0.2c0.3,0.1,0.5,0.3,0.7,0.6L86.4,220.5z"/>
				<path class="st9" d="M90.8,220.5c-0.1-0.1-0.2-0.2-0.4-0.3c-0.2-0.1-0.3-0.1-0.6-0.1c-0.2,0-0.4,0-0.6,0.1s-0.2,0.2-0.2,0.4
					c0,0.1,0,0.3,0.1,0.3c0.1,0.1,0.2,0.2,0.3,0.2c0.1,0.1,0.3,0.1,0.4,0.1s0.3,0,0.4,0.1c0.2,0,0.4,0.1,0.5,0.2
					c0.2,0.1,0.3,0.2,0.4,0.3s0.2,0.2,0.3,0.4c0.1,0.2,0.1,0.3,0.1,0.6s-0.1,0.5-0.2,0.7s-0.3,0.3-0.4,0.5s-0.4,0.2-0.6,0.3
					s-0.5,0.1-0.7,0.1c-0.4,0-0.7-0.1-1-0.2c-0.3-0.1-0.6-0.3-0.8-0.7l0.7-0.6c0.1,0.1,0.3,0.3,0.5,0.4c0.2,0.1,0.4,0.2,0.7,0.2
					c0.1,0,0.2,0,0.3,0c0.1,0,0.2-0.1,0.3-0.1c0.1,0,0.2-0.1,0.2-0.2s0.1-0.2,0.1-0.3s0-0.2-0.1-0.3s-0.2-0.2-0.3-0.2
					c-0.1,0-0.2-0.1-0.4-0.1c-0.1,0-0.2-0.1-0.3-0.1c-0.2,0-0.4-0.1-0.5-0.2c-0.2-0.1-0.3-0.1-0.5-0.2c-0.1-0.1-0.2-0.2-0.3-0.4
					s-0.1-0.3-0.1-0.6c0-0.2,0.1-0.5,0.2-0.6s0.2-0.3,0.4-0.5s0.4-0.2,0.6-0.3s0.4-0.1,0.7-0.1c0.3,0,0.6,0.1,0.9,0.2
					c0.3,0.1,0.5,0.3,0.7,0.6L90.8,220.5z"/>
				<path class="st9" d="M92.2,219.3h1l1.1,3.5l0,0l1.1-3.5h1l1.2,3.5l0,0l1-3.5h1L98,224h-0.9l-1.3-3.5l0,0l-1.1,3.5h-1L92.2,219.3
					z"/>
				<path class="st9" d="M100.1,221.6c0-0.3,0.1-0.7,0.2-1s0.3-0.6,0.5-0.8s0.5-0.4,0.8-0.5s0.6-0.2,1-0.2s0.7,0.1,1,0.2
					s0.6,0.3,0.8,0.5s0.4,0.5,0.5,0.8s0.2,0.6,0.2,1s-0.1,0.7-0.2,1s-0.3,0.6-0.5,0.8s-0.5,0.4-0.8,0.5s-0.6,0.2-1,0.2
					s-0.7-0.1-1-0.2c-0.3-0.1-0.6-0.3-0.8-0.5s-0.4-0.5-0.5-0.8S100.1,222,100.1,221.6z M101.1,221.6c0,0.2,0,0.5,0.1,0.7
					s0.2,0.4,0.3,0.5c0.1,0.1,0.3,0.3,0.5,0.3s0.4,0.1,0.6,0.1s0.5,0,0.7-0.1s0.4-0.2,0.5-0.3s0.2-0.3,0.3-0.5
					c0.1-0.2,0.1-0.4,0.1-0.7c0-0.2,0-0.5-0.1-0.7s-0.2-0.4-0.3-0.5c-0.1-0.1-0.3-0.3-0.5-0.3c-0.2-0.1-0.4-0.1-0.7-0.1
					c-0.2,0-0.5,0-0.6,0.1c-0.2,0.1-0.4,0.2-0.5,0.3s-0.2,0.3-0.3,0.5C101.1,221.2,101.1,221.4,101.1,221.6z"/>
				<path class="st9" d="M106.3,219.3h0.9v0.7l0,0c0.1-0.1,0.1-0.2,0.2-0.3s0.2-0.2,0.3-0.3c0.1-0.1,0.3-0.1,0.4-0.2
					c0.1,0,0.3-0.1,0.4-0.1s0.3,0,0.4,0.1v1c-0.1,0-0.1,0-0.2,0s-0.1,0-0.2,0c-0.4,0-0.8,0.1-1,0.4c-0.2,0.2-0.3,0.6-0.3,1.1v2.4
					h-0.9C106.3,224.1,106.3,219.3,106.3,219.3z"/>
				<path class="st9" d="M114.5,224h-0.9v-0.7l0,0c-0.2,0.3-0.4,0.5-0.7,0.6s-0.6,0.2-0.9,0.2c-0.4,0-0.7-0.1-1-0.2
					c-0.3-0.1-0.5-0.3-0.8-0.5c-0.2-0.2-0.4-0.5-0.5-0.8s-0.2-0.6-0.2-1s0.1-0.7,0.2-1s0.3-0.6,0.5-0.8s0.5-0.4,0.8-0.5
					s0.6-0.2,1-0.2c0.3,0,0.7,0.1,1,0.2c0.3,0.1,0.5,0.3,0.7,0.6l0,0v-3.5h0.9L114.5,224L114.5,224z M112.1,223.3
					c0.2,0,0.5,0,0.7-0.1s0.4-0.2,0.5-0.3s0.2-0.3,0.3-0.5c0.1-0.2,0.1-0.4,0.1-0.7c0-0.2,0-0.5-0.1-0.7s-0.2-0.4-0.3-0.5
					c-0.1-0.1-0.3-0.3-0.5-0.3c-0.2-0.1-0.4-0.1-0.7-0.1c-0.2,0-0.5,0-0.6,0.1c-0.2,0.1-0.4,0.2-0.5,0.3s-0.2,0.3-0.3,0.5
					c-0.1,0.2-0.1,0.4-0.1,0.7c0,0.2,0,0.5,0.1,0.7s0.2,0.4,0.3,0.5c0.1,0.1,0.3,0.3,0.5,0.3S111.8,223.3,112.1,223.3z"/>
			</g>
			<g>
				<path class="st1" d="M117.8,276.4c-0.2-0.3-0.5-0.5-0.8-0.6s-0.6-0.2-1-0.2s-0.8,0.1-1.1,0.2c-0.3,0.1-0.6,0.4-0.8,0.6
					c-0.2,0.3-0.4,0.6-0.5,0.9c-0.1,0.4-0.2,0.7-0.2,1.1s0.1,0.7,0.2,1.1c0.1,0.3,0.3,0.6,0.5,0.9s0.5,0.5,0.8,0.6s0.7,0.2,1.1,0.2
					s0.8-0.1,1.1-0.2c0.3-0.2,0.6-0.4,0.8-0.7l0.8,0.6c-0.1,0.1-0.1,0.2-0.3,0.3c-0.1,0.1-0.3,0.3-0.5,0.4s-0.5,0.3-0.8,0.4
					s-0.7,0.2-1.1,0.2c-0.6,0-1.1-0.1-1.5-0.3c-0.5-0.2-0.8-0.5-1.1-0.8c-0.3-0.3-0.6-0.7-0.7-1.2c-0.2-0.4-0.2-0.9-0.2-1.3
					c0-0.5,0.1-1.1,0.3-1.5c0.2-0.5,0.4-0.9,0.8-1.2s0.7-0.6,1.2-0.8s1-0.3,1.5-0.3s0.9,0.1,1.4,0.3s0.8,0.5,1.1,0.8L117.8,276.4z"
					/>
				<path class="st1" d="M119.7,277.2h0.9v0.7l0,0c0.1-0.1,0.1-0.2,0.2-0.3c0.1-0.1,0.2-0.2,0.3-0.3s0.3-0.1,0.4-0.2
					c0.1,0,0.3-0.1,0.4-0.1s0.3,0,0.4,0.1v1c-0.1,0-0.1,0-0.2,0s-0.1,0-0.2,0c-0.4,0-0.8,0.1-1,0.4c-0.2,0.2-0.3,0.6-0.3,1.2v2.4
					h-0.9C119.7,282.1,119.7,277.2,119.7,277.2z"/>
				<path class="st1" d="M123.9,279.9c0,0.2,0,0.4,0.1,0.6s0.2,0.3,0.4,0.4s0.3,0.2,0.5,0.3c0.2,0.1,0.4,0.1,0.6,0.1
					c0.3,0,0.5-0.1,0.7-0.2s0.4-0.3,0.6-0.5l0.7,0.5c-0.5,0.6-1.2,1-2.1,1c-0.4,0-0.7-0.1-1-0.2s-0.6-0.3-0.8-0.5
					c-0.2-0.2-0.4-0.5-0.5-0.8s-0.2-0.6-0.2-1s0.1-0.7,0.2-1s0.3-0.6,0.5-0.8c0.2-0.2,0.5-0.4,0.8-0.5s0.6-0.2,1-0.2
					s0.8,0.1,1.1,0.2c0.3,0.1,0.5,0.3,0.7,0.6c0.2,0.2,0.3,0.5,0.4,0.8s0.1,0.6,0.1,0.9v0.3L123.9,279.9L123.9,279.9z M126.8,279.2
					c0-0.2,0-0.4-0.1-0.6s-0.1-0.3-0.3-0.4s-0.3-0.2-0.4-0.3s-0.4-0.1-0.6-0.1s-0.4,0-0.6,0.1s-0.3,0.2-0.5,0.3
					c-0.1,0.1-0.2,0.3-0.3,0.4s-0.1,0.3-0.1,0.5h2.9V279.2z"/>
				<path class="st1" d="M128.8,277.8c0.3-0.2,0.5-0.4,0.9-0.5c0.3-0.1,0.7-0.2,1-0.2s0.6,0,0.9,0.1c0.2,0.1,0.5,0.2,0.6,0.4
					s0.3,0.3,0.4,0.5c0.1,0.2,0.1,0.4,0.1,0.6v2.4c0,0.2,0,0.3,0,0.5c0,0.1,0,0.3,0,0.4h-0.8c0-0.2,0-0.5,0-0.7l0,0
					c-0.2,0.3-0.4,0.5-0.7,0.7s-0.6,0.2-1,0.2c-0.2,0-0.4,0-0.6-0.1c-0.2-0.1-0.4-0.1-0.5-0.3c-0.1-0.1-0.3-0.3-0.4-0.4
					c-0.1-0.2-0.1-0.4-0.1-0.6c0-0.3,0.1-0.6,0.2-0.8c0.1-0.2,0.3-0.4,0.6-0.5s0.5-0.2,0.8-0.3s0.7-0.1,1-0.1h0.7v-0.2
					c0-0.1,0-0.2-0.1-0.4c0-0.1-0.1-0.2-0.2-0.3c-0.1-0.1-0.2-0.2-0.4-0.2c-0.1-0.1-0.3-0.1-0.5-0.1s-0.3,0-0.5,0.1
					s-0.2,0.1-0.4,0.1c-0.1,0-0.2,0.1-0.3,0.2s-0.2,0.1-0.2,0.2L128.8,277.8z M131.4,279.6c-0.2,0-0.4,0-0.7,0s-0.4,0.1-0.6,0.1
					c-0.2,0.1-0.3,0.2-0.4,0.3c-0.1,0.1-0.2,0.3-0.2,0.5c0,0.3,0.1,0.5,0.3,0.6s0.4,0.2,0.7,0.2c0.2,0,0.5,0,0.6-0.1
					c0.2-0.1,0.3-0.2,0.4-0.3c0.1-0.1,0.2-0.3,0.2-0.4c0-0.2,0.1-0.3,0.1-0.5v-0.3h-0.4V279.6z"/>
				<path class="st1" d="M136.5,278h-1.3v2.1c0,0.1,0,0.3,0,0.4s0,0.2,0.1,0.3c0,0.1,0.1,0.2,0.2,0.2s0.2,0.1,0.4,0.1
					c0.1,0,0.2,0,0.3,0s0.2-0.1,0.3-0.1v0.8c-0.1,0.1-0.2,0.1-0.4,0.1s-0.3,0-0.4,0c-0.3,0-0.6,0-0.8-0.1s-0.3-0.2-0.4-0.4
					s-0.1-0.3-0.2-0.5c0-0.2,0-0.4,0-0.6V278h-1v-0.8h1v-1.3h0.9v1.3h1.3L136.5,278L136.5,278z"/>
				<path class="st1" d="M138.4,279.9c0,0.2,0,0.4,0.1,0.6s0.2,0.3,0.4,0.4s0.3,0.2,0.5,0.3c0.2,0.1,0.4,0.1,0.6,0.1
					c0.3,0,0.5-0.1,0.7-0.2s0.4-0.3,0.6-0.5l0.7,0.5c-0.5,0.6-1.2,1-2.1,1c-0.4,0-0.7-0.1-1-0.2s-0.6-0.3-0.8-0.5s-0.4-0.5-0.5-0.8
					s-0.2-0.6-0.2-1s0.1-0.7,0.2-1c0.1-0.3,0.3-0.6,0.5-0.8c0.2-0.2,0.5-0.4,0.8-0.5s0.6-0.2,1-0.2s0.8,0.1,1.1,0.2s0.5,0.3,0.7,0.6
					c0.2,0.2,0.3,0.5,0.4,0.8c0.1,0.3,0.1,0.6,0.1,0.9v0.3L138.4,279.9L138.4,279.9z M141.2,279.2c0-0.2,0-0.4-0.1-0.6
					s-0.1-0.3-0.3-0.4s-0.3-0.2-0.4-0.3s-0.4-0.1-0.6-0.1c-0.2,0-0.4,0-0.6,0.1c-0.2,0.1-0.3,0.2-0.5,0.3c-0.1,0.1-0.2,0.3-0.3,0.4
					s-0.1,0.3-0.1,0.5h2.9V279.2z"/>
				<path class="st1" d="M146.1,277.8c0.3-0.2,0.5-0.4,0.9-0.5c0.3-0.1,0.7-0.2,1-0.2s0.6,0,0.9,0.1c0.2,0.1,0.5,0.2,0.6,0.4
					s0.3,0.3,0.4,0.5c0.1,0.2,0.1,0.4,0.1,0.6v2.4c0,0.2,0,0.3,0,0.5c0,0.1,0,0.3,0,0.4h-0.8c0-0.2,0-0.5,0-0.7l0,0
					c-0.2,0.3-0.4,0.5-0.7,0.7s-0.6,0.2-1,0.2c-0.2,0-0.4,0-0.6-0.1c-0.2-0.1-0.4-0.1-0.5-0.3c-0.1-0.1-0.3-0.3-0.4-0.4
					c-0.1-0.2-0.1-0.4-0.1-0.6c0-0.3,0.1-0.6,0.2-0.8c0.1-0.2,0.3-0.4,0.6-0.5s0.5-0.2,0.8-0.3s0.7-0.1,1-0.1h0.7v-0.2
					c0-0.1,0-0.2-0.1-0.4c0-0.1-0.1-0.2-0.2-0.3c-0.1-0.1-0.2-0.2-0.4-0.2c-0.1-0.1-0.3-0.1-0.5-0.1s-0.3,0-0.5,0.1
					s-0.2,0.1-0.4,0.1c-0.1,0-0.2,0.1-0.3,0.2s-0.2,0.1-0.2,0.2L146.1,277.8z M148.6,279.6c-0.2,0-0.4,0-0.7,0s-0.4,0.1-0.6,0.1
					c-0.2,0.1-0.3,0.2-0.4,0.3c-0.1,0.1-0.2,0.3-0.2,0.5c0,0.3,0.1,0.5,0.3,0.6s0.4,0.2,0.7,0.2c0.2,0,0.5,0,0.6-0.1
					c0.2-0.1,0.3-0.2,0.4-0.3c0.1-0.1,0.2-0.3,0.2-0.4c0-0.2,0.1-0.3,0.1-0.5v-0.3h-0.4V279.6z"/>
				<path class="st1" d="M154.6,278.4c-0.2-0.2-0.3-0.3-0.5-0.4s-0.4-0.1-0.7-0.1c-0.2,0-0.5,0-0.6,0.1s-0.3,0.2-0.5,0.4
					c-0.1,0.2-0.2,0.3-0.3,0.5s-0.1,0.4-0.1,0.6s0,0.4,0.1,0.6s0.2,0.4,0.3,0.5s0.3,0.3,0.5,0.3c0.2,0.1,0.4,0.1,0.6,0.1
					c0.3,0,0.5,0,0.6-0.1s0.3-0.2,0.5-0.4l0.6,0.6c-0.2,0.3-0.5,0.4-0.8,0.6s-0.6,0.2-1,0.2s-0.7-0.1-1-0.2s-0.6-0.3-0.8-0.5
					s-0.4-0.5-0.5-0.8s-0.2-0.6-0.2-1s0.1-0.7,0.2-1s0.3-0.6,0.5-0.8s0.5-0.4,0.8-0.5s0.6-0.2,1-0.2c0.3,0,0.7,0.1,1,0.2
					s0.6,0.3,0.8,0.6L154.6,278.4z"/>
				<path class="st1" d="M159.4,278.4c-0.2-0.2-0.3-0.3-0.5-0.4s-0.4-0.1-0.7-0.1c-0.2,0-0.5,0-0.6,0.1s-0.3,0.2-0.5,0.4
					c-0.1,0.2-0.2,0.3-0.3,0.5s-0.1,0.4-0.1,0.6s0,0.4,0.1,0.6s0.2,0.4,0.3,0.5s0.3,0.3,0.5,0.3c0.2,0.1,0.4,0.1,0.6,0.1
					c0.3,0,0.5,0,0.6-0.1s0.3-0.2,0.5-0.4l0.6,0.6c-0.2,0.3-0.5,0.4-0.8,0.6s-0.6,0.2-1,0.2s-0.7-0.1-1-0.2s-0.6-0.3-0.8-0.5
					s-0.4-0.5-0.5-0.8s-0.2-0.6-0.2-1s0.1-0.7,0.2-1s0.3-0.6,0.5-0.8s0.5-0.4,0.8-0.5s0.6-0.2,1-0.2c0.3,0,0.7,0.1,1,0.2
					s0.6,0.3,0.8,0.6L159.4,278.4z"/>
				<path class="st1" d="M160.6,279.6c0-0.3,0.1-0.7,0.2-1c0.1-0.3,0.3-0.6,0.5-0.8s0.5-0.4,0.8-0.5s0.6-0.2,1-0.2s0.7,0.1,1,0.2
					s0.6,0.3,0.8,0.5s0.4,0.5,0.5,0.8s0.2,0.6,0.2,1s-0.1,0.7-0.2,1c-0.1,0.3-0.3,0.6-0.5,0.8c-0.2,0.2-0.5,0.4-0.8,0.5
					s-0.6,0.2-1,0.2s-0.7-0.1-1-0.2s-0.6-0.3-0.8-0.5s-0.4-0.5-0.5-0.8C160.7,280.2,160.6,279.9,160.6,279.6z M161.6,279.6
					c0,0.2,0,0.5,0.1,0.7s0.2,0.4,0.3,0.5s0.3,0.3,0.5,0.3c0.2,0.1,0.4,0.1,0.6,0.1c0.2,0,0.5,0,0.7-0.1s0.4-0.2,0.5-0.3
					c0.1-0.1,0.2-0.3,0.3-0.5s0.1-0.4,0.1-0.7s0-0.5-0.1-0.7s-0.2-0.4-0.3-0.5s-0.3-0.3-0.5-0.3c-0.2-0.1-0.4-0.1-0.7-0.1
					c-0.2,0-0.5,0-0.6,0.1c-0.2,0.1-0.4,0.2-0.5,0.3c-0.1,0.1-0.2,0.3-0.3,0.5S161.6,279.3,161.6,279.6z"/>
				<path class="st1" d="M171,281.9h-0.9v-0.7l0,0c-0.1,0.3-0.3,0.5-0.6,0.6s-0.6,0.2-1,0.2c-0.2,0-0.5,0-0.7-0.1s-0.4-0.2-0.5-0.3
					c-0.2-0.1-0.3-0.3-0.4-0.6c-0.1-0.2-0.1-0.5-0.1-0.8v-3h0.9v2.8c0,0.2,0,0.4,0.1,0.6s0.1,0.3,0.2,0.4c0.1,0.1,0.2,0.2,0.3,0.2
					s0.3,0.1,0.4,0.1c0.2,0,0.4,0,0.5-0.1c0.2-0.1,0.3-0.2,0.4-0.3c0.1-0.1,0.2-0.3,0.3-0.5s0.1-0.4,0.1-0.7v-2.4h0.9v4.6H171z"/>
				<path class="st1" d="M172.4,277.2h0.9v0.7l0,0c0.1-0.3,0.3-0.5,0.6-0.6c0.3-0.2,0.6-0.2,1-0.2c0.2,0,0.4,0,0.7,0.1
					c0.2,0.1,0.4,0.2,0.5,0.3c0.2,0.1,0.3,0.3,0.4,0.6c0.1,0.2,0.1,0.5,0.1,0.8v3h-0.9v-2.8c0-0.2,0-0.4-0.1-0.6s-0.1-0.3-0.2-0.4
					c-0.1-0.1-0.2-0.2-0.3-0.2s-0.3-0.1-0.4-0.1c-0.2,0-0.4,0-0.5,0.1c-0.2,0.1-0.3,0.2-0.4,0.3s-0.2,0.3-0.3,0.5s-0.1,0.4-0.1,0.7
					v2.4h-0.9v-4.6H172.4z"/>
				<path class="st1" d="M180.5,278h-1.3v2.1c0,0.1,0,0.3,0,0.4s0,0.2,0.1,0.3c0,0.1,0.1,0.2,0.2,0.2c0.1,0.1,0.2,0.1,0.4,0.1
					c0.1,0,0.2,0,0.3,0s0.2-0.1,0.3-0.1v0.8c-0.1,0.1-0.2,0.1-0.4,0.1s-0.3,0-0.4,0c-0.3,0-0.6,0-0.8-0.1s-0.3-0.2-0.4-0.4
					c-0.1-0.2-0.1-0.3-0.2-0.5c0-0.2,0-0.4,0-0.6V278h-1v-0.8h1v-1.3h0.9v1.3h1.3L180.5,278L180.5,278z"/>
			</g>
		</g>
	</g>
</g>
</svg>
