<?xml version="1.0" encoding="utf-8"?>
<!-- Generator: Adobe Illustrator 22.0.0, SVG Export Plug-In . SVG Version: 6.00 Build 0)  -->
<svg version="1.1" id="Camada_1" xmlns="http://www.w3.org/2000/svg" xmlns:xlink="http://www.w3.org/1999/xlink" x="0px" y="0px"
	 viewBox="0 0 236.5 242" style="enable-background:new 0 0 236.5 242;" xml:space="preserve">
<style type="text/css">
	.st0{fill:url(#SVGID_1_);}
	.st1{fill:#1C3DC9;}
	.st2{fill:#489CF7;}
</style>
<g>
	<g transform="translate(10,10) scale(1 1)">
		<linearGradient id="SVGID_1_" gradientUnits="userSpaceOnUse" x1="-8.1" y1="112.4" x2="222.3" y2="112.4">
			<stop  offset="0" style="stop-color:#68E4F1"/>
			<stop  offset="1" style="stop-color:#66A6FF"/>
		</linearGradient>
		<path class="st0" d="M107.1,112.3L107.1,112.3l113.5-19.8c1.2,6.5,1.7,13.2,1.7,19.9c0,63.6-51.6,115.2-115.2,115.2
			S-8.1,176-8.1,112.4S43.5-2.8,107.1-2.8L107.1,112.3z"/>
		<path class="st1" d="M107.1,112.3L107.1,112.3l104.8-47.8c4,8.9,6.9,18.2,8.7,27.8L107.1,112.3z"/>
		<path class="st2" d="M107.1,112.3L107.1,112.3l0.1-115.2c45.1,0.1,85.9,26.4,104.7,67.4L107.1,112.3z"/>
	</g>
	<g transform="translate(10,10) scale(1 1)">
	</g>
</g>
</svg>
