<?xml version="1.0" encoding="utf-8"?>
<!-- Generator: Adobe Illustrator 22.0.0, SVG Export Plug-In . SVG Version: 6.00 Build 0)  -->
<svg version="1.1" id="Camada_1" xmlns="http://www.w3.org/2000/svg" xmlns:xlink="http://www.w3.org/1999/xlink" x="0px" y="0px"
	 viewBox="0 0 398 437" style="enable-background:new 0 0 398 437;" xml:space="preserve">
<style type="text/css">
	.st0{fill:url(#LTC_1_);}
	.st1{fill:url(#SVGID_1_);}
	.st2{fill:url(#SVGID_2_);}
	.st3{fill:url(#SVGID_3_);}
	.st4{fill:url(#SVGID_4_);}
	.st5{fill:url(#SVGID_5_);}
	.st6{fill:url(#SVGID_6_);}
	.st7{fill:url(#SVGID_7_);}
	.st8{fill:url(#SVGID_8_);}
	.st9{fill:url(#SVGID_9_);}
	.st10{fill:url(#SVGID_10_);}
	.st11{fill:url(#SVGID_11_);}
</style>
<g id="Coins">
	
		<linearGradient id="LTC_1_" gradientUnits="userSpaceOnUse" x1="197.4" y1="300.1" x2="261.8" y2="300.1" gradientTransform="matrix(1 0 0 -1 0 438)">
		<stop  offset="0" style="stop-color:#68E4F1"/>
		<stop  offset="1" style="stop-color:#66A6FF"/>
	</linearGradient>
	<path id="LTC" class="st0" d="M229.6,105.7c-17.8,0-32.2,14.4-32.2,32.2s14.4,32.2,32.2,32.2s32.2-14.4,32.2-32.2
		C261.8,120.1,247.4,105.7,229.6,105.7z M242.1,153.5H217l2.1-10.1l-4.1,2.8l1-5.5l4.3-3l4.2-20.1h7.8l-2.9,13.8l10.2-7l-1.2,5.7
		l-10.2,7l-2,9.6h17.3L242.1,153.5z"/>
	<g id="BTC_2_">
		
			<linearGradient id="SVGID_1_" gradientUnits="userSpaceOnUse" x1="292.6461" y1="359.282" x2="307.3501" y2="359.282" gradientTransform="matrix(1 0 0 -1 0 438)">
			<stop  offset="0" style="stop-color:#68E4F1"/>
			<stop  offset="1" style="stop-color:#66A6FF"/>
		</linearGradient>
		<path class="st1" d="M304.6,74.3c-1-0.5-3.2-1.2-5.9-1.3c-2.6-0.2-6.1,0-6.1,0v11.5c0,0,3.6,0.1,5.9-0.1c2.4-0.2,4.8-0.8,6.1-1.5
			c1.2-0.7,2.7-1.7,2.7-4.4C307.4,76,305.6,74.9,304.6,74.3z"/>
		
			<linearGradient id="SVGID_2_" gradientUnits="userSpaceOnUse" x1="292.684" y1="375.5433" x2="304.9785" y2="375.5433" gradientTransform="matrix(1 0 0 -1 0 438)">
			<stop  offset="0" style="stop-color:#68E4F1"/>
			<stop  offset="1" style="stop-color:#66A6FF"/>
		</linearGradient>
		<path class="st2" d="M297.1,67.7c2-0.1,4-0.5,5.6-1.3c1.5-0.8,2.3-2.1,2.3-4.1s-1.3-3.6-3.6-4.3c-2.2-0.7-3.7-0.7-5.4-0.8
			s-3.4,0.1-3.4,0.1v10.3C292.6,67.7,295.2,67.8,297.1,67.7z"/>
		
			<linearGradient id="SVGID_3_" gradientUnits="userSpaceOnUse" x1="252.7" y1="367" x2="339.5" y2="367" gradientTransform="matrix(1 0 0 -1 0 438)">
			<stop  offset="0" style="stop-color:#68E4F1"/>
			<stop  offset="1" style="stop-color:#66A6FF"/>
		</linearGradient>
		<path class="st3" d="M296.1,27.6c-24,0-43.4,19.5-43.4,43.4s19.5,43.4,43.4,43.4c24,0,43.4-19.5,43.4-43.4S320,27.6,296.1,27.6z
			 M313.7,87.6c-3.2,2.3-6.7,2.6-8.2,2.9c-0.8,0.1-2,0.2-3.4,0.3v8.7h-5.4v-8.6c-1,0-2.5,0-4.1,0v8.6h-5.4v-8.6
			c-5.3,0-10.5,0-10.5,0l1.1-6.4c0,0,2.1,0,3.2,0s1.5-0.1,2-0.5s0.5-1.1,0.5-1.6s0-20.8,0-22.2s-0.1-1.8-0.8-2.5
			c-0.7-0.7-2.1-0.8-3-0.8s-3.1,0-3.1,0v-5.6c0,0,5.1,0,10.5,0v-8.6h5.4v8.6c1.5,0,2.9,0,4.1,0v-8.6h5.4v8.7c4,0.2,7,1,9.6,2.9
			c3.4,2.5,3.2,6.8,3.1,7.8s-0.5,3-1.4,4.3s-3.1,2.6-3.1,2.6s2.6,0.5,4.4,1.9s3.2,3.8,3.1,7.4C317.7,81.8,317,85.3,313.7,87.6z"/>
	</g>
	<g id="BTC_1_">
		
			<linearGradient id="SVGID_4_" gradientUnits="userSpaceOnUse" x1="171.3738" y1="347.4097" x2="182.4298" y2="347.4097" gradientTransform="matrix(1 0 0 -1 0 438)">
			<stop  offset="0" style="stop-color:#68E4F1"/>
			<stop  offset="1" style="stop-color:#66A6FF"/>
		</linearGradient>
		<path class="st4" d="M180.4,87.3c-0.7-0.4-2.4-0.9-4.4-1s-4.5,0-4.5,0v8.6c0,0,2.7,0.1,4.5-0.1s3.6-0.6,4.5-1.1s2-1.3,2-3.3
			C182.4,88.5,181.1,87.7,180.4,87.3z"/>
		
			<linearGradient id="SVGID_5_" gradientUnits="userSpaceOnUse" x1="171.4" y1="359.6278" x2="180.6435" y2="359.6278" gradientTransform="matrix(1 0 0 -1 0 438)">
			<stop  offset="0" style="stop-color:#68E4F1"/>
			<stop  offset="1" style="stop-color:#66A6FF"/>
		</linearGradient>
		<path class="st5" d="M174.7,82.3c1.5-0.1,3-0.4,4.2-1c1.1-0.6,1.8-1.6,1.7-3.1s-1-2.7-2.7-3.2s-2.8-0.5-4-0.6
			c-1.3,0-2.5,0.1-2.5,0.1v7.8C171.4,82.3,173.3,82.4,174.7,82.3z"/>
		
			<linearGradient id="SVGID_6_" gradientUnits="userSpaceOnUse" x1="141.3" y1="353.3" x2="206.5999" y2="353.3" gradientTransform="matrix(1 0 0 -1 0 438)">
			<stop  offset="0" style="stop-color:#68E4F1"/>
			<stop  offset="1" style="stop-color:#66A6FF"/>
		</linearGradient>
		<path class="st6" d="M173.9,52.1c-18,0-32.6,14.6-32.6,32.6s14.6,32.6,32.6,32.6s32.6-14.6,32.6-32.6S192,52.1,173.9,52.1z
			 M187.2,97.3c-2.4,1.7-5,2-6.2,2.2c-0.6,0.1-1.5,0.1-2.6,0.2v6.5h-4v-6.4c-0.7,0-1.8,0-3.1,0v6.4h-4v-6.4c-4,0-7.9,0-7.9,0
			l0.8-4.8c0,0,1.6,0,2.4,0c0.8,0,1.2-0.1,1.5-0.4s0.4-0.8,0.4-1.2c0-0.4,0-15.6,0-16.7s-0.1-1.3-0.6-1.9c-0.5-0.5-1.6-0.6-2.2-0.6
			c-0.6,0-2.3,0-2.3,0V70c0,0,3.8,0,7.9,0v-6.4h4V70c1.1,0,2.2,0,3.1,0v-6.4h4V70c3,0.2,5.2,0.7,7.2,2.2c2.5,1.9,2.4,5.1,2.3,5.9
			c-0.1,0.8-0.4,2.2-1.1,3.2c-0.7,1-2.3,1.9-2.3,1.9s2,0.4,3.3,1.4c1.4,1,2.4,2.9,2.3,5.5C190.2,92.9,189.7,95.6,187.2,97.3z"/>
	</g>
	
		<linearGradient id="SVGID_7_" gradientUnits="userSpaceOnUse" x1="85.6" y1="294.2" x2="150" y2="294.2" gradientTransform="matrix(1 0 0 -1 0 438)">
		<stop  offset="0" style="stop-color:#68E4F1"/>
		<stop  offset="1" style="stop-color:#66A6FF"/>
	</linearGradient>
	<path class="st7" d="M117.8,111.6c-17.8,0-32.2,14.4-32.2,32.2S100,176,117.8,176s32.2-14.4,32.2-32.2S135.6,111.6,117.8,111.6z
		 M117.4,165.1l-12.7-18l12.7,7.4V165.1L117.4,165.1z M117.4,151.9l-12.8-7.5l12.8-5.6V151.9z M117.4,137.9l-12.4,5.4l12.4-20.8
		C117.4,122.5,117.4,137.9,117.4,137.9z M118.2,122.5l12.6,20.9l-12.6-5.5C118.2,137.9,118.2,122.5,118.2,122.5z M118.2,165.1v-10.5
		l12.7-7.4L118.2,165.1z M118.2,151.9v-13.1l12.8,5.6L118.2,151.9z"/>
</g>
<g>
	<g>
		
			<linearGradient id="SVGID_8_" gradientUnits="userSpaceOnUse" x1="70.8" y1="160.825" x2="285.3" y2="160.825" gradientTransform="matrix(1 0 0 -1 0 438)">
			<stop  offset="0" style="stop-color:#68E4F1"/>
			<stop  offset="1" style="stop-color:#66A6FF"/>
		</linearGradient>
		<path class="st8" d="M280,155.5l-43.5-7c-38.7-6.2-78.1-6.2-116.8,0l-43.6,7c-3.1,0.5-5.3,3.3-5.3,6.6v120.1
			c0,28.8,10.2,56.7,28.7,77.7c26.3,29.9,62.8,46.9,78.5,50.6h0.1c15.7-3.7,52.2-20.6,78.5-50.6c18.5-21.1,28.7-48.9,28.7-77.7
			V162.1C285.3,158.8,283.1,156,280,155.5z"/>
		
			<linearGradient id="SVGID_9_" gradientUnits="userSpaceOnUse" x1="180.6095" y1="165.3696" x2="77.7" y2="165.3696" gradientTransform="matrix(1 0 0 -1 0 438)">
			<stop  offset="0" style="stop-color:#68E4F1"/>
			<stop  offset="1" style="stop-color:#66A6FF"/>
		</linearGradient>
		<path class="st9" d="M175.3,155.7c0-7.4-19.9-5.2-26.1-4.9c-12,0.6-24,2-35.8,4.2l-26.6,5.1c-5.3,1-9.2,6.5-9.2,12.9v107.3
			c0,27,7.9,52.6,22.4,72.3c13.7,18.6,30.9,31.7,44.3,39.5c7.5,4.4,36.3,4.4,36.3-5.5L175.3,155.7z"/>
		
			<linearGradient id="SVGID_10_" gradientUnits="userSpaceOnUse" x1="2445.9617" y1="163.6416" x2="2547.2617" y2="163.6416" gradientTransform="matrix(-0.988 3.756287e-02 -3.728386e-02 -0.9806 2696.7158 338.8762)">
			<stop  offset="0" style="stop-color:#68E4F1"/>
			<stop  offset="1" style="stop-color:#66A6FF"/>
		</linearGradient>
		<path class="st10" d="M178.9,157.4c-0.3-7.4,15.6-5.7,21.6-5.6c11.6,0.1,23.2,1.1,34.6,2.9l25.8,4.1c5.1,0.8,9.1,6.1,9.3,12.5
			l4.1,106.7c1,26.9-5.7,52.7-18.8,72.7c-12.5,19-28.5,32.7-41.2,40.9c-7.1,4.7-35.7,5.8-36.1-4.1L178.9,157.4z"/>
	</g>
	
		<linearGradient id="SVGID_11_" gradientUnits="userSpaceOnUse" x1="130.325" y1="169.9875" x2="225.889" y2="169.9875" gradientTransform="matrix(1 0 0 -1 0 438)">
		<stop  offset="0" style="stop-color:#E6ECF5"/>
		<stop  offset="0.5126" style="stop-color:#EEF1F6"/>
		<stop  offset="1" style="stop-color:#EEF1F6"/>
	</linearGradient>
	<path class="st11" d="M223.7,245.4l-55.5,55.5c-1.4,1.4-3.2,2.2-5.2,2.2c-1.9,0-3.8-0.8-5.2-2.2l-25.3-25.3
		c-2.9-2.9-2.9-7.5,0-10.4s7.5-2.9,10.4,0l20.2,20.2l50.3-50.3c2.9-2.9,7.5-2.9,10.4,0S226.5,242.6,223.7,245.4z"/>
</g>
</svg>
