<?xml version="1.0" encoding="utf-8"?>
<!-- Generator: Adobe Illustrator 22.0.0, SVG Export Plug-In . SVG Version: 6.00 Build 0)  -->
<svg version="1.1" id="Camada_1" xmlns="http://www.w3.org/2000/svg" xmlns:xlink="http://www.w3.org/1999/xlink" x="0px" y="0px"
	 viewBox="0 0 398 437" style="enable-background:new 0 0 398 437;" xml:space="preserve">
<style type="text/css">
	.st0{fill:url(#SVGID_1_);}
	.st1{fill:url(#SVGID_2_);}
	.st2{fill:#F14C5D;}
	.st3{fill:#F3D351;}
	.st4{fill:#72BE77;}
	.st5{fill:url(#SVGID_3_);}
	.st6{fill:#101530;}
	.st7{fill:url(#SVGID_4_);}
	.st8{fill:url(#SVGID_5_);}
	.st9{fill:url(#SVGID_6_);}
	.st10{opacity:0.3;}
	.st11{fill:#222222;}
	.st12{fill:url(#SVGID_7_);}
	.st13{display:none;}
	.st14{display:inline;}
	.st15{fill:url(#SVGID_8_);}
	.st16{fill:url(#SVGID_9_);}
	.st17{fill:url(#SVGID_10_);}
</style>
<linearGradient id="SVGID_1_" gradientUnits="userSpaceOnUse" x1="11.5" y1="364.3" x2="387.2" y2="364.3" gradientTransform="matrix(1 0 0 -1 0 438)">
	<stop  offset="0" style="stop-color:#68E4F1"/>
	<stop  offset="1" style="stop-color:#66A6FF"/>
</linearGradient>
<path class="st0" d="M380.4,54.6H18.1c-3.7,0-6.6,3.7-6.6,8.2v30h375.7v-30C387.1,58.3,384.1,54.6,380.4,54.6z"/>
<linearGradient id="SVGID_2_" gradientUnits="userSpaceOnUse" x1="11.4" y1="210.55" x2="387.1" y2="210.55" gradientTransform="matrix(1 0 0 -1 0 438)">
	<stop  offset="0" style="stop-color:#E6ECF5"/>
	<stop  offset="0.5126" style="stop-color:#EEF1F6"/>
	<stop  offset="1" style="stop-color:#EEF1F6"/>
</linearGradient>
<rect x="11.4" y="92.9" class="st1" width="375.7" height="269.1"/>
<g>
	<g>
		<circle class="st2" cx="34.6" cy="73.7" r="5.9"/>
		<circle class="st3" cx="54.1" cy="73.7" r="5.9"/>
		<circle class="st4" cx="73.5" cy="73.7" r="5.9"/>
	</g>
	<g>
		
			<linearGradient id="SVGID_3_" gradientUnits="userSpaceOnUse" x1="102.7" y1="364.3" x2="353.6" y2="364.3" gradientTransform="matrix(1 0 0 -1 0 438)">
			<stop  offset="0" style="stop-color:#E6ECF5"/>
			<stop  offset="0.5126" style="stop-color:#EEF1F6"/>
			<stop  offset="1" style="stop-color:#EEF1F6"/>
		</linearGradient>
		<path class="st5" d="M351.6,86.2H104.7c-1.1,0-2-0.9-2-2v-21c0-1.1,0.9-2,2-2h246.9c1.1,0,2,0.9,2,2v21
			C353.6,85.3,352.7,86.2,351.6,86.2z"/>
		<g>
			<path class="st4" d="M128.7,70.7h0.6v2.6l0,0c0.1-0.2,0.2-0.3,0.4-0.4s0.4-0.2,0.7-0.2c0.2,0,0.3,0,0.5,0.1s0.3,0.1,0.4,0.2
				c0.1,0.1,0.2,0.2,0.3,0.4c0.1,0.2,0.1,0.4,0.1,0.6v2.2h-0.6v-2c0-0.2,0-0.3-0.1-0.4c0-0.1-0.1-0.2-0.2-0.3s-0.2-0.1-0.2-0.2
				s-0.2,0-0.3,0s-0.3,0-0.4,0.1c-0.1,0-0.2,0.1-0.3,0.2s-0.2,0.2-0.2,0.4c0,0.1-0.1,0.3-0.1,0.5v1.8h-0.6L128.7,70.7L128.7,70.7z"
				/>
			<path class="st4" d="M134.6,73.2h-0.9v1.6c0,0.1,0,0.2,0,0.3s0,0.2,0.1,0.3c0,0.1,0.1,0.1,0.1,0.2c0.1,0,0.2,0.1,0.3,0.1
				s0.2,0,0.2,0c0.1,0,0.2,0,0.2-0.1v0.6c-0.1,0-0.2,0.1-0.3,0.1s-0.2,0-0.3,0c-0.2,0-0.4,0-0.6-0.1c-0.1-0.1-0.2-0.2-0.3-0.3
				c-0.1-0.1-0.1-0.2-0.1-0.4c0-0.1,0-0.3,0-0.4v-1.8h-0.8v-0.6h0.8v-1h0.6v1h0.9v0.5H134.6z"/>
			<path class="st4" d="M137.2,73.2h-0.9v1.6c0,0.1,0,0.2,0,0.3s0,0.2,0.1,0.3c0,0.1,0.1,0.1,0.1,0.2c0.1,0,0.2,0.1,0.3,0.1
				s0.2,0,0.2,0c0.1,0,0.2,0,0.2-0.1v0.6c-0.1,0-0.2,0.1-0.3,0.1s-0.2,0-0.3,0c-0.2,0-0.4,0-0.6-0.1c-0.1-0.1-0.2-0.2-0.3-0.3
				c-0.1-0.1-0.1-0.2-0.1-0.4c0-0.1,0-0.3,0-0.4v-1.8h-0.8v-0.6h0.8v-1h0.6v1h0.9v0.5H137.2z"/>
			<path class="st4" d="M138.1,72.7h0.6v0.5l0,0c0.1-0.2,0.3-0.3,0.5-0.4s0.4-0.2,0.7-0.2s0.5,0,0.7,0.1s0.4,0.2,0.5,0.4
				c0.2,0.2,0.3,0.4,0.4,0.6c0.1,0.2,0.1,0.5,0.1,0.7c0,0.3,0,0.5-0.1,0.7s-0.2,0.4-0.4,0.6s-0.3,0.3-0.5,0.4s-0.5,0.1-0.7,0.1
				s-0.5-0.1-0.7-0.2s-0.4-0.2-0.5-0.4l0,0v2.5h-0.6V72.7z M139.8,73.2c-0.2,0-0.3,0-0.5,0.1c-0.1,0.1-0.3,0.1-0.4,0.2
				c-0.1,0.1-0.2,0.2-0.2,0.4c-0.1,0.1-0.1,0.3-0.1,0.5s0,0.3,0.1,0.5c0.1,0.1,0.1,0.3,0.2,0.4c0.1,0.1,0.2,0.2,0.4,0.2
				c0.1,0.1,0.3,0.1,0.5,0.1s0.3,0,0.5-0.1s0.3-0.1,0.4-0.2c0.1-0.1,0.2-0.2,0.2-0.4c0.1-0.1,0.1-0.3,0.1-0.5s0-0.3-0.1-0.5
				c-0.1-0.1-0.1-0.3-0.2-0.4c-0.1-0.1-0.2-0.2-0.4-0.2C140.2,73.2,140,73.2,139.8,73.2z"/>
			<path class="st4" d="M144.3,73.5c-0.1-0.1-0.2-0.2-0.3-0.2s-0.3-0.1-0.4-0.1c-0.2,0-0.3,0-0.4,0.1c-0.1,0.1-0.2,0.2-0.2,0.3
				c0,0.1,0,0.2,0.1,0.2c0.1,0.1,0.1,0.1,0.2,0.2c0.1,0,0.2,0.1,0.3,0.1s0.2,0,0.3,0.1c0.1,0,0.3,0.1,0.4,0.1c0.1,0,0.2,0.1,0.3,0.2
				s0.2,0.2,0.2,0.3c0.1,0.1,0.1,0.2,0.1,0.4c0,0.2,0,0.4-0.1,0.5s-0.2,0.2-0.3,0.3s-0.3,0.1-0.4,0.2s-0.3,0.1-0.5,0.1
				c-0.3,0-0.5,0-0.7-0.1s-0.4-0.2-0.6-0.5l0.5-0.4c0.1,0.1,0.2,0.2,0.4,0.3c0.1,0.1,0.3,0.1,0.5,0.1c0.1,0,0.2,0,0.2,0
				c0.1,0,0.2,0,0.2-0.1c0.1,0,0.1-0.1,0.2-0.1c0-0.1,0.1-0.1,0.1-0.2s0-0.2-0.1-0.2c-0.1-0.1-0.1-0.1-0.2-0.1s-0.2-0.1-0.3-0.1
				s-0.2,0-0.2-0.1c-0.1,0-0.3-0.1-0.4-0.1s-0.2-0.1-0.3-0.2s-0.2-0.2-0.2-0.3s-0.1-0.2-0.1-0.4c0-0.2,0-0.3,0.1-0.5
				s0.2-0.2,0.3-0.3c0.1-0.1,0.3-0.2,0.4-0.2c0.2,0,0.3-0.1,0.5-0.1s0.5,0,0.7,0.1s0.4,0.2,0.5,0.4L144.3,73.5z"/>
			<path class="st4" d="M146.2,73.6c-0.1,0-0.2,0-0.3-0.1s-0.1-0.2-0.1-0.3s0-0.2,0.1-0.3s0.2-0.1,0.3-0.1s0.2,0,0.3,0.1
				s0.1,0.2,0.1,0.3s0,0.2-0.1,0.3S146.3,73.6,146.2,73.6z M145.7,75.7c0-0.1,0-0.2,0.1-0.3c0.1-0.1,0.2-0.1,0.3-0.1s0.2,0,0.3,0.1
				s0.1,0.2,0.1,0.3c0,0.1,0,0.2-0.1,0.3c-0.1,0.1-0.2,0.1-0.3,0.1s-0.2,0-0.3-0.1C145.8,75.9,145.7,75.8,145.7,75.7z"/>
			<path class="st4" d="M147.7,76.4l-0.5-0.2l2.3-5.6l0.5,0.2L147.7,76.4z"/>
			<path class="st4" d="M150.5,76.4l-0.5-0.2l2.3-5.6l0.5,0.2L150.5,76.4z"/>
			<path class="st6" d="M154.9,72.7h0.7l0.8,2.6l0,0l0.8-2.6h0.7l0.9,2.6l0,0l0.7-2.6h0.7l-1.1,3.4h-0.7l-0.9-2.6l0,0l-0.8,2.6H156
				L154.9,72.7z"/>
			<path class="st6" d="M160.4,72.7h0.7l0.8,2.6l0,0l0.8-2.6h0.7l0.9,2.6l0,0l0.7-2.6h0.7l-1.1,3.4h-0.7l-0.9-2.6l0,0l-0.8,2.6h-0.7
				L160.4,72.7z"/>
			<path class="st6" d="M165.8,72.7h0.7l0.8,2.6l0,0l0.8-2.6h0.7l0.9,2.6l0,0l0.7-2.6h0.7l-1.1,3.4h-0.7l-0.9-2.6l0,0l-0.8,2.6H167
				L165.8,72.7z"/>
			<path class="st6" d="M171.8,76.1c-0.1,0-0.2,0-0.3-0.1s-0.1-0.2-0.1-0.3c0-0.1,0-0.2,0.1-0.3c0.1-0.1,0.2-0.1,0.3-0.1
				s0.2,0,0.3,0.1s0.1,0.2,0.1,0.3c0,0.1,0,0.2-0.1,0.3C172.1,76.1,172,76.1,171.8,76.1z"/>
			<path class="st6" d="M175.8,73.6c-0.1-0.1-0.2-0.2-0.4-0.3c-0.1-0.1-0.3-0.1-0.5-0.1s-0.3,0-0.5,0.1c-0.1,0.1-0.2,0.2-0.3,0.3
				c-0.1,0.1-0.2,0.2-0.2,0.4c0,0.1-0.1,0.3-0.1,0.5s0,0.3,0.1,0.5c0.1,0.1,0.1,0.3,0.2,0.4c0.1,0.1,0.2,0.2,0.3,0.2
				c0.1,0.1,0.3,0.1,0.5,0.1s0.3,0,0.5-0.1s0.2-0.2,0.4-0.3l0.5,0.5c-0.2,0.2-0.4,0.3-0.6,0.4s-0.5,0.1-0.7,0.1
				c-0.3,0-0.5,0-0.7-0.1s-0.4-0.2-0.6-0.4c-0.2-0.2-0.3-0.3-0.4-0.6c-0.1-0.2-0.1-0.5-0.1-0.7s0-0.5,0.1-0.7s0.2-0.4,0.4-0.6
				s0.3-0.3,0.6-0.4c0.2-0.1,0.5-0.1,0.7-0.1s0.5,0,0.7,0.1s0.4,0.2,0.6,0.4L175.8,73.6z"/>
			<path class="st6" d="M176.6,74.4c0-0.2,0-0.5,0.1-0.7s0.2-0.4,0.4-0.6s0.4-0.3,0.6-0.4c0.2-0.1,0.5-0.1,0.7-0.1s0.5,0,0.7,0.1
				s0.4,0.2,0.6,0.4c0.2,0.2,0.3,0.4,0.4,0.6c0.1,0.2,0.1,0.4,0.1,0.7c0,0.3,0,0.5-0.1,0.7s-0.2,0.4-0.4,0.6s-0.4,0.3-0.6,0.4
				c-0.2,0.1-0.5,0.1-0.7,0.1s-0.5,0-0.7-0.1s-0.4-0.2-0.6-0.4c-0.2-0.2-0.3-0.4-0.4-0.6C176.7,74.9,176.6,74.6,176.6,74.4z
				 M177.3,74.4c0,0.2,0,0.3,0.1,0.5c0.1,0.1,0.1,0.3,0.2,0.4c0.1,0.1,0.2,0.2,0.4,0.2s0.3,0.1,0.5,0.1s0.3,0,0.5-0.1
				s0.3-0.1,0.4-0.2c0.1-0.1,0.2-0.2,0.2-0.4c0.1-0.1,0.1-0.3,0.1-0.5s0-0.3-0.1-0.5c-0.1-0.1-0.1-0.3-0.2-0.4
				c-0.1-0.1-0.2-0.2-0.4-0.2c-0.1-0.1-0.3-0.1-0.5-0.1s-0.3,0-0.5,0.1c-0.1,0.1-0.3,0.1-0.4,0.2c-0.1,0.1-0.2,0.2-0.2,0.4
				C177.4,74.1,177.3,74.2,177.3,74.4z"/>
			<path class="st6" d="M181,71.5c0-0.1,0-0.2,0.1-0.3s0.2-0.1,0.3-0.1s0.2,0,0.3,0.1s0.1,0.2,0.1,0.3s0,0.2-0.1,0.3
				s-0.2,0.1-0.3,0.1s-0.2,0-0.3-0.1S181,71.6,181,71.5z M181.1,72.7h0.6v3.4h-0.6V72.7z"/>
			<path class="st6" d="M182.8,72.7h0.6v0.5l0,0c0.1-0.2,0.2-0.3,0.4-0.4s0.4-0.2,0.7-0.2c0.2,0,0.3,0,0.5,0.1s0.3,0.1,0.4,0.2
				c0.1,0.1,0.2,0.2,0.3,0.4c0.1,0.2,0.1,0.4,0.1,0.6v2.2h-0.6v-2c0-0.2,0-0.3-0.1-0.4c0-0.1-0.1-0.2-0.2-0.3s-0.2-0.1-0.2-0.2
				s-0.2,0-0.3,0s-0.3,0-0.4,0.1c-0.1,0-0.2,0.1-0.3,0.2s-0.2,0.2-0.2,0.4c0,0.1-0.1,0.3-0.1,0.5v1.8h-0.6L182.8,72.7L182.8,72.7z"
				/>
			<path class="st6" d="M186.8,72.7h0.6v0.5l0,0c0,0,0.1-0.1,0.1-0.2s0.1-0.1,0.2-0.2c0.1-0.1,0.2-0.1,0.3-0.2
				c0.1,0,0.3-0.1,0.4-0.1c0.3,0,0.5,0.1,0.6,0.2c0.2,0.1,0.3,0.3,0.4,0.5c0.1-0.2,0.3-0.4,0.5-0.5s0.4-0.2,0.6-0.2
				c0.3,0,0.5,0,0.6,0.1c0.2,0.1,0.3,0.2,0.4,0.3c0.1,0.1,0.2,0.3,0.2,0.5s0.1,0.4,0.1,0.6v2h-0.6v-1.9c0-0.1,0-0.3,0-0.4
				s-0.1-0.2-0.1-0.3c-0.1-0.1-0.1-0.2-0.2-0.2c-0.1-0.1-0.2-0.1-0.4-0.1c-0.3,0-0.5,0.1-0.7,0.3s-0.2,0.4-0.2,0.7V76H189v-1.8
				c0-0.2,0-0.3,0-0.4s-0.1-0.3-0.1-0.4s-0.1-0.2-0.2-0.2c-0.1-0.1-0.2-0.1-0.4-0.1c-0.1,0-0.2,0-0.3,0.1c-0.1,0-0.2,0.1-0.3,0.2
				s-0.1,0.2-0.2,0.4c0,0.1-0.1,0.3-0.1,0.5v1.8h-0.6V72.7z"/>
			<path class="st6" d="M192.9,71.5c0-0.1,0-0.2,0.1-0.3s0.2-0.1,0.3-0.1s0.2,0,0.3,0.1s0.1,0.2,0.1,0.3s0,0.2-0.1,0.3
				s-0.2,0.1-0.3,0.1s-0.2,0-0.3-0.1S192.9,71.6,192.9,71.5z M193,72.7h0.6v3.4H193V72.7z"/>
			<path class="st6" d="M196.5,73.2h-0.9v1.6c0,0.1,0,0.2,0,0.3s0,0.2,0.1,0.3c0,0.1,0.1,0.1,0.1,0.2c0.1,0,0.2,0.1,0.3,0.1
				s0.2,0,0.2,0c0.1,0,0.2,0,0.2-0.1v0.6c-0.1,0-0.2,0.1-0.3,0.1s-0.2,0-0.3,0c-0.2,0-0.4,0-0.6-0.1c-0.1-0.1-0.2-0.2-0.3-0.3
				c-0.1-0.1-0.1-0.2-0.1-0.4c0-0.1,0-0.3,0-0.4v-1.8h-0.8v-0.6h0.8v-1h0.6v1h0.9v0.5H196.5z"/>
			<path class="st6" d="M199.2,73.2h-0.9v1.6c0,0.1,0,0.2,0,0.3s0,0.2,0.1,0.3c0,0.1,0.1,0.1,0.1,0.2c0.1,0,0.2,0.1,0.3,0.1
				s0.2,0,0.2,0c0.1,0,0.2,0,0.2-0.1v0.6c-0.1,0-0.2,0.1-0.3,0.1s-0.2,0-0.3,0c-0.2,0-0.4,0-0.6-0.1c-0.1-0.1-0.2-0.2-0.3-0.3
				c-0.1-0.1-0.1-0.2-0.1-0.4c0-0.1,0-0.3,0-0.4v-1.8h-0.8v-0.6h0.8v-1h0.6v1h0.9v0.5H199.2z"/>
			<path class="st6" d="M200.5,74.6c0,0.1,0,0.3,0.1,0.4s0.2,0.2,0.3,0.3c0.1,0.1,0.2,0.2,0.4,0.2c0.1,0,0.3,0.1,0.4,0.1
				c0.2,0,0.4,0,0.5-0.1s0.3-0.2,0.4-0.4l0.5,0.4c-0.4,0.5-0.9,0.7-1.5,0.7c-0.3,0-0.5,0-0.7-0.1s-0.4-0.2-0.6-0.4s-0.3-0.4-0.3-0.6
				s-0.1-0.5-0.1-0.7c0-0.3,0-0.5,0.1-0.7s0.2-0.4,0.4-0.6s0.3-0.3,0.6-0.4c0.2-0.1,0.5-0.1,0.7-0.1c0.3,0,0.6,0.1,0.8,0.2
				s0.4,0.2,0.5,0.4c0.1,0.2,0.2,0.4,0.3,0.6s0.1,0.4,0.1,0.7v0.2L200.5,74.6L200.5,74.6z M202.6,74.1c0-0.1,0-0.3-0.1-0.4
				c0-0.1-0.1-0.2-0.2-0.3s-0.2-0.2-0.3-0.2c-0.1-0.1-0.3-0.1-0.4-0.1c-0.2,0-0.3,0-0.4,0.1c-0.1,0.1-0.2,0.1-0.3,0.2
				s-0.2,0.2-0.2,0.3c0,0.1-0.1,0.2-0.1,0.3L202.6,74.1L202.6,74.1z"/>
			<path class="st6" d="M207.5,76.1h-0.6v-0.5l0,0c-0.1,0.2-0.3,0.3-0.5,0.4s-0.4,0.2-0.7,0.2s-0.5,0-0.7-0.1s-0.4-0.2-0.5-0.4
				s-0.3-0.4-0.3-0.6c-0.1-0.2-0.1-0.5-0.1-0.7c0-0.3,0-0.5,0.1-0.7s0.2-0.4,0.3-0.6s0.3-0.3,0.5-0.4s0.5-0.1,0.7-0.1
				s0.5,0.1,0.7,0.2s0.4,0.2,0.5,0.4l0,0v-2.5h0.6V76.1z M205.7,75.6c0.2,0,0.3,0,0.5-0.1s0.3-0.1,0.4-0.2c0.1-0.1,0.2-0.2,0.2-0.4
				c0.1-0.1,0.1-0.3,0.1-0.5s0-0.3-0.1-0.5c-0.1-0.1-0.1-0.3-0.2-0.4c-0.1-0.1-0.2-0.2-0.4-0.2c-0.1-0.1-0.3-0.1-0.5-0.1
				s-0.3,0-0.5,0.1c-0.1,0.1-0.3,0.1-0.4,0.2c-0.1,0.1-0.2,0.2-0.2,0.4c-0.1,0.1-0.1,0.3-0.1,0.5s0,0.3,0.1,0.5
				c0.1,0.1,0.1,0.3,0.2,0.4c0.1,0.1,0.2,0.2,0.4,0.2S205.5,75.6,205.7,75.6z"/>
			<path class="st6" d="M209,76.1c-0.1,0-0.2,0-0.3-0.1s-0.1-0.2-0.1-0.3c0-0.1,0-0.2,0.1-0.3c0.1-0.1,0.2-0.1,0.3-0.1
				s0.2,0,0.3,0.1s0.1,0.2,0.1,0.3c0,0.1,0,0.2-0.1,0.3C209.2,76.1,209.1,76.1,209,76.1z"/>
			<path class="st6" d="M212.9,73.6c-0.1-0.1-0.2-0.2-0.4-0.3c-0.1-0.1-0.3-0.1-0.5-0.1s-0.3,0-0.5,0.1c-0.1,0.1-0.2,0.2-0.3,0.3
				c-0.1,0.1-0.2,0.2-0.2,0.4c0,0.1-0.1,0.3-0.1,0.5s0,0.3,0.1,0.5c0.1,0.1,0.1,0.3,0.2,0.4c0.1,0.1,0.2,0.2,0.3,0.2
				c0.1,0.1,0.3,0.1,0.5,0.1s0.3,0,0.5-0.1s0.2-0.2,0.4-0.3l0.5,0.5c-0.2,0.2-0.4,0.3-0.6,0.4s-0.5,0.1-0.7,0.1
				c-0.3,0-0.5,0-0.7-0.1s-0.4-0.2-0.6-0.4c-0.2-0.2-0.3-0.3-0.4-0.6c-0.1-0.2-0.1-0.5-0.1-0.7s0-0.5,0.1-0.7s0.2-0.4,0.4-0.6
				s0.3-0.3,0.6-0.4c0.2-0.1,0.5-0.1,0.7-0.1s0.5,0,0.7,0.1s0.4,0.2,0.6,0.4L212.9,73.6z"/>
			<path class="st6" d="M213.8,74.4c0-0.2,0-0.5,0.1-0.7s0.2-0.4,0.4-0.6s0.4-0.3,0.6-0.4c0.2-0.1,0.5-0.1,0.7-0.1s0.5,0,0.7,0.1
				s0.4,0.2,0.6,0.4c0.2,0.2,0.3,0.4,0.4,0.6c0.1,0.2,0.1,0.4,0.1,0.7c0,0.3,0,0.5-0.1,0.7s-0.2,0.4-0.4,0.6s-0.4,0.3-0.6,0.4
				c-0.2,0.1-0.5,0.1-0.7,0.1s-0.5,0-0.7-0.1s-0.4-0.2-0.6-0.4c-0.2-0.2-0.3-0.4-0.4-0.6C213.8,74.9,213.8,74.6,213.8,74.4z
				 M214.5,74.4c0,0.2,0,0.3,0.1,0.5c0.1,0.1,0.1,0.3,0.2,0.4c0.1,0.1,0.2,0.2,0.4,0.2s0.3,0.1,0.5,0.1s0.3,0,0.5-0.1
				s0.3-0.1,0.4-0.2c0.1-0.1,0.2-0.2,0.2-0.4c0.1-0.1,0.1-0.3,0.1-0.5s0-0.3-0.1-0.5c-0.1-0.1-0.1-0.3-0.2-0.4
				c-0.1-0.1-0.2-0.2-0.4-0.2c-0.1-0.1-0.3-0.1-0.5-0.1s-0.3,0-0.5,0.1c-0.1,0.1-0.3,0.1-0.4,0.2c-0.1,0.1-0.2,0.2-0.2,0.4
				C214.5,74.1,214.5,74.2,214.5,74.4z"/>
			<path class="st6" d="M218.2,72.7h0.6v0.5l0,0c0,0,0.1-0.1,0.1-0.2s0.1-0.1,0.2-0.2c0.1-0.1,0.2-0.1,0.3-0.2
				c0.1,0,0.3-0.1,0.4-0.1c0.3,0,0.5,0.1,0.6,0.2c0.2,0.1,0.3,0.3,0.4,0.5c0.1-0.2,0.3-0.4,0.5-0.5s0.4-0.2,0.6-0.2
				c0.3,0,0.5,0,0.6,0.1c0.2,0.1,0.3,0.2,0.4,0.3c0.1,0.1,0.2,0.3,0.2,0.5s0.1,0.4,0.1,0.6v2h-0.6v-1.9c0-0.1,0-0.3,0-0.4
				s-0.1-0.2-0.1-0.3c-0.1-0.1-0.1-0.2-0.2-0.2c-0.1-0.1-0.2-0.1-0.4-0.1c-0.3,0-0.5,0.1-0.7,0.3s-0.2,0.4-0.2,0.7V76h-0.6v-1.8
				c0-0.2,0-0.3,0-0.4s-0.1-0.3-0.1-0.4s-0.1-0.2-0.2-0.2c-0.1-0.1-0.2-0.1-0.4-0.1c-0.1,0-0.2,0-0.3,0.1c-0.1,0-0.2,0.1-0.3,0.2
				s-0.1,0.2-0.2,0.4c0,0.1-0.1,0.3-0.1,0.5v1.8h-0.6V72.7z"/>
		</g>
		<path class="st4" d="M112.3,73.4h5.4v-2c0-0.7-0.3-1.4-0.8-1.9s-1.2-0.8-1.9-0.8c-0.7,0-1.4,0.3-1.9,0.8s-0.8,1.2-0.8,1.9
			C112.3,71.4,112.3,73.4,112.3,73.4z M121.1,74.4v6.1c0,0.3-0.1,0.5-0.3,0.7c-0.2,0.2-0.4,0.3-0.7,0.3H110c-0.3,0-0.5-0.1-0.7-0.3
			c-0.2-0.2-0.3-0.4-0.3-0.7v-6.1c0-0.3,0.1-0.5,0.3-0.7c0.2-0.2,0.4-0.3,0.7-0.3h0.3v-2c0-1.3,0.5-2.4,1.4-3.3s2-1.4,3.3-1.4
			s2.4,0.5,3.3,1.4s1.4,2,1.4,3.3v2h0.3c0.3,0,0.5,0.1,0.7,0.3C121,73.9,121.1,74.1,121.1,74.4z"/>
	</g>
</g>
<g>
	
		<linearGradient id="SVGID_4_" gradientUnits="userSpaceOnUse" x1="141" y1="99.95" x2="263.2" y2="99.95" gradientTransform="matrix(1 0 0 -1 0 438)">
		<stop  offset="0" style="stop-color:#68E4F1"/>
		<stop  offset="1" style="stop-color:#66A6FF"/>
	</linearGradient>
	<path class="st7" d="M263.1,291.6H141v85.2l0,0l0,0c0,2.7,13.6,7.7,61.1,7.7c47.3,0,61.1-5,61.1-7.7l0,0l0,0v-85.2H263.1z"/>
	<g>
		<g>
			<g>
				<g>
					
						<linearGradient id="SVGID_5_" gradientUnits="userSpaceOnUse" x1="263.1" y1="145.85" x2="140.9" y2="145.85" gradientTransform="matrix(1 0 0 -1 0 438)">
						<stop  offset="0" style="stop-color:#68E4F1"/>
						<stop  offset="1" style="stop-color:#66A6FF"/>
					</linearGradient>
					<path class="st8" d="M263.1,291.6c0-2.7-14-4.9-61.1-4.9c-47.7,0-61.1,2.2-61.1,4.9c0,2.7,6.5,6,61.1,6
						C257.2,297.6,263.1,294.3,263.1,291.6z"/>
				</g>
			</g>
		</g>
		<g>
			<g>
				<g>
					
						<linearGradient id="SVGID_6_" gradientUnits="userSpaceOnUse" x1="263.2" y1="146.4" x2="141" y2="146.4" gradientTransform="matrix(1 0 0 -1 0 438)">
						<stop  offset="0" style="stop-color:#68E4F1"/>
						<stop  offset="1" style="stop-color:#66A6FF"/>
					</linearGradient>
					<ellipse class="st9" cx="202.1" cy="291.6" rx="61.1" ry="4.9"/>
				</g>
			</g>
		</g>
	</g>
	<g class="st10">
		<g>
			<g>
				<ellipse class="st11" cx="243.3" cy="292" rx="7" ry="1.3"/>
			</g>
		</g>
	</g>
	<g class="st10">
		<g>
			<g>
				<ellipse class="st11" cx="161.3" cy="292" rx="7" ry="1.3"/>
			</g>
		</g>
	</g>
	<g>
		<g>
			<g>
				<g>
					
						<linearGradient id="SVGID_7_" gradientUnits="userSpaceOnUse" x1="155.4" y1="184.75" x2="248.5777" y2="184.75" gradientTransform="matrix(1 0 0 -1 0 438)">
						<stop  offset="0" style="stop-color:#68E4F1"/>
						<stop  offset="1" style="stop-color:#66A6FF"/>
					</linearGradient>
					<path class="st12" d="M245.1,241.7c-2.3-5.4-5.6-10.3-9.8-14.5s-9-7.5-14.5-9.8c-5.6-2.4-11.6-3.6-17.7-3.6H201
						c-6.1,0-12.1,1.2-17.7,3.6c-5.4,2.3-10.3,5.6-14.5,9.8s-7.5,9-9.8,14.5c-2.4,5.6-3.6,11.6-3.6,17.7v32.3c0,0.6,2.5,1,5.5,1
						c3.1,0,5.5-0.5,5.5-1v-32.3c0-19,15.4-34.4,34.4-34.4h2.2c19,0,34.4,15.4,34.4,34.4v32.3l0,0c0,0.6,2.5,1,5.5,1
						c3.1,0,5.5-0.5,5.5-1v-32.3C248.7,253.2,247.5,247.3,245.1,241.7z"/>
				</g>
			</g>
		</g>
	</g>
	<g class="st13">
		<g class="st14">
			<g>
				<g>
					<linearGradient id="SVGID_8_" gradientUnits="userSpaceOnUse" x1="201.4854" y1="362.0572" x2="201.9792" y2="333.169">
						<stop  offset="0" style="stop-color:#68E4F1"/>
						<stop  offset="1" style="stop-color:#66A6FF"/>
					</linearGradient>
					<path class="st15" d="M213.6,326.1c0-6.4-5.2-11.5-11.5-11.5s-11.5,5.2-11.5,11.5c0,4.4,2.5,8.3,6.1,10.2v19.8
						c0,3.1,2.4,5.7,5.4,5.7s5.4-2.6,5.4-5.7v-19.8C211.1,334.4,213.6,330.6,213.6,326.1z"/>
				</g>
				<g>
					
						<linearGradient id="SVGID_9_" gradientUnits="userSpaceOnUse" x1="213.6" y1="99.8" x2="190.5124" y2="99.8" gradientTransform="matrix(1 0 0 -1 0 438)">
						<stop  offset="0" style="stop-color:#3F57C6"/>
						<stop  offset="1" style="stop-color:#4E6CFA"/>
					</linearGradient>
					<path class="st16" d="M213.6,326.1c0-6.4-5.2-11.5-11.5-11.5s-11.5,5.2-11.5,11.5c0,4.4,2.5,8.3,6.1,10.2v19.8
						c0,3.1,2.4,5.7,5.4,5.7s5.4-2.6,5.4-5.7v-19.8C211.1,334.4,213.6,330.6,213.6,326.1z"/>
				</g>
			</g>
		</g>
	</g>
	<g>
		<g>
			<g>
				
					<linearGradient id="SVGID_10_" gradientUnits="userSpaceOnUse" x1="191.8434" y1="99.65" x2="212.3031" y2="99.65" gradientTransform="matrix(1 0 0 -1 0 438)">
					<stop  offset="0" style="stop-color:#E6ECF5"/>
					<stop  offset="0.5126" style="stop-color:#EEF1F6"/>
					<stop  offset="1" style="stop-color:#EEF1F6"/>
				</linearGradient>
				<path class="st17" d="M212.3,326.1c0-5.7-4.5-10.1-10.2-10.1s-10.2,4.4-10.2,10.1c0,4,2.8,7.6,6.1,9.3v20.5
					c0,2.8,1.5,4.8,4.2,4.8s4.2-2,4.2-4.8v-20.5C209.5,333.7,212.3,330.1,212.3,326.1z"/>
			</g>
		</g>
	</g>
</g>
</svg>
