<?xml version="1.0" encoding="utf-8"?>
<!-- Generator: Adobe Illustrator 22.0.0, SVG Export Plug-In . SVG Version: 6.00 Build 0)  -->
<svg version="1.1" id="Camada_1" xmlns="http://www.w3.org/2000/svg" xmlns:xlink="http://www.w3.org/1999/xlink" x="0px" y="0px"
	 viewBox="0 0 418.5 347" style="enable-background:new 0 0 418.5 347;" xml:space="preserve">
<style type="text/css">
	.st0{opacity:0.8;fill:url(#SVGID_1_);enable-background:new    ;}
	.st1{opacity:0.8;fill:url(#SVGID_2_);enable-background:new    ;}
	.st2{fill:#FFFFFF;}
	.st3{clip-path:url(#SVGID_5_);fill:url(#SVGID_6_);}
	.st4{fill:#101530;}
	.st5{fill:#AFB4C0;}
	.st6{fill:url(#SVGID_7_);}
	.st7{fill:#DEDFE6;}
	.st8{fill:url(#SVGID_8_);}
	.st9{fill:url(#SVGID_9_);}
	.st10{fill:url(#Check_3_);}
	.st11{fill:url(#Check_4_);}
	.st12{fill:url(#Check_5_);}
</style>
<g>
	
		<linearGradient id="SVGID_1_" gradientUnits="userSpaceOnUse" x1="18.0409" y1="108.1493" x2="371.7409" y2="108.1493" gradientTransform="matrix(1 0 0 -1 19.1591 278.5993)">
		<stop  offset="0" style="stop-color:#E6ECF5"/>
		<stop  offset="0.5126" style="stop-color:#EEF1F6"/>
		<stop  offset="1" style="stop-color:#EEF1F6"/>
	</linearGradient>
	<path class="st0" d="M384.9,317.5H43.2c-3.3,0-6-2.7-6-6V29.4c0-3.3,2.7-6,6-6h341.7c3.3,0,6,2.7,6,6v282.1
		C390.9,314.8,388.2,317.5,384.9,317.5z"/>
	
		<linearGradient id="SVGID_2_" gradientUnits="userSpaceOnUse" x1="29.3409" y1="118.5493" x2="383.0409" y2="118.5493" gradientTransform="matrix(1 0 0 -1 19.1591 278.5993)">
		<stop  offset="0" style="stop-color:#E6ECF5"/>
		<stop  offset="0.5126" style="stop-color:#EEF1F6"/>
		<stop  offset="1" style="stop-color:#EEF1F6"/>
	</linearGradient>
	<path class="st1" d="M396.2,307.1H54.5c-3.3,0-6-2.7-6-6V19c0-3.3,2.7-6,6-6h341.7c3.3,0,6,2.7,6,6v282.1
		C402.2,304.4,399.5,307.1,396.2,307.1z"/>
	<g>
		<g>
			<path id="SVGID_3_" class="st2" d="M374.5,327.8H32.8c-3.3,0-6-2.7-6-6v-282c0-3.3,2.7-6,6-6h341.7c3.3,0,6,2.7,6,6v282.1
				C380.5,325.1,377.8,327.8,374.5,327.8z"/>
		</g>
		<g>
			<defs>
				<path id="SVGID_4_" d="M374.5,327.8H32.8c-3.3,0-6-2.7-6-6v-282c0-3.3,2.7-6,6-6h341.7c3.3,0,6,2.7,6,6v282.1
					C380.5,325.1,377.8,327.8,374.5,327.8z"/>
			</defs>
			<clipPath id="SVGID_5_">
				<use xlink:href="#SVGID_4_"  style="overflow:visible;"/>
			</clipPath>
			
				<linearGradient id="SVGID_6_" gradientUnits="userSpaceOnUse" x1="246.5" y1="167.15" x2="380.5" y2="167.15" gradientTransform="matrix(1 0 0 -1 0 348)">
				<stop  offset="0" style="stop-color:#E6ECF5"/>
				<stop  offset="0.5126" style="stop-color:#EEF1F6"/>
				<stop  offset="1" style="stop-color:#EEF1F6"/>
			</linearGradient>
			<rect x="246.5" y="33.8" class="st3" width="134" height="294.1"/>
		</g>
	</g>
	<g>
		<path class="st4" d="M42.5,99.2H44v11.3h-1.5V99.2z"/>
		<path class="st4" d="M46.5,102.9H48v1.2l0,0c0.2-0.4,0.5-0.7,0.9-1s1-0.4,1.6-0.4c0.4,0,0.7,0.1,1,0.2s0.6,0.3,0.9,0.5
			c0.2,0.2,0.5,0.5,0.6,0.9s0.2,0.8,0.2,1.3v4.9h-1.4V106c0-0.4,0-0.7-0.1-0.9c-0.1-0.3-0.2-0.5-0.4-0.6c-0.2-0.2-0.3-0.3-0.6-0.3
			c-0.2-0.1-0.4-0.1-0.6-0.1c-0.3,0-0.6,0-0.8,0.1c-0.3,0.1-0.5,0.2-0.7,0.5c-0.2,0.2-0.3,0.5-0.4,0.8c-0.1,0.3-0.2,0.7-0.2,1.1v3.9
			h-1.4L46.5,102.9L46.5,102.9z"/>
		<path class="st4" d="M54.5,102.9h1.7l2.3,5.8l2.2-5.8h1.5l-3,7.6h-1.6L54.5,102.9z"/>
		<path class="st4" d="M64.5,107.2c0,0.3,0.1,0.6,0.2,0.9s0.3,0.5,0.6,0.7s0.5,0.3,0.8,0.4s0.6,0.2,1,0.2s0.8-0.1,1.2-0.3
			c0.3-0.2,0.6-0.5,0.9-0.8l1.1,0.8c-0.8,1-1.9,1.6-3.4,1.6c-0.6,0-1.1-0.1-1.6-0.3c-0.5-0.2-0.9-0.5-1.2-0.8
			c-0.3-0.4-0.6-0.8-0.8-1.3s-0.3-1-0.3-1.6s0.1-1.1,0.3-1.6s0.5-0.9,0.8-1.3c0.3-0.4,0.8-0.6,1.2-0.8c0.5-0.2,1-0.3,1.6-0.3
			c0.7,0,1.2,0.1,1.7,0.4c0.5,0.2,0.8,0.5,1.1,0.9c0.3,0.4,0.5,0.8,0.6,1.3s0.2,1,0.2,1.4v0.5L64.5,107.2L64.5,107.2z M69.1,106.1
			c0-0.3-0.1-0.6-0.2-0.9s-0.2-0.5-0.4-0.7c-0.2-0.2-0.4-0.4-0.7-0.5c-0.3-0.1-0.6-0.2-1-0.2s-0.7,0.1-1,0.2s-0.5,0.3-0.7,0.5
			s-0.4,0.5-0.5,0.7c-0.1,0.3-0.2,0.5-0.2,0.8L69.1,106.1L69.1,106.1z"/>
		<path class="st4" d="M76.4,104.8c-0.2-0.2-0.4-0.4-0.6-0.5c-0.3-0.1-0.6-0.2-0.9-0.2s-0.6,0.1-0.9,0.2c-0.2,0.1-0.4,0.4-0.4,0.6
			s0.1,0.4,0.2,0.5s0.3,0.3,0.5,0.3c0.2,0.1,0.4,0.1,0.6,0.2c0.2,0,0.4,0.1,0.6,0.1c0.3,0.1,0.6,0.2,0.9,0.3
			c0.3,0.1,0.5,0.2,0.7,0.4c0.2,0.2,0.4,0.4,0.5,0.6s0.2,0.5,0.2,0.9s-0.1,0.8-0.3,1.1c-0.2,0.3-0.4,0.6-0.7,0.7s-0.6,0.3-1,0.4
			s-0.7,0.1-1.1,0.1c-0.6,0-1.2-0.1-1.7-0.3c-0.5-0.2-0.9-0.5-1.3-1.1l1.1-0.9c0.2,0.2,0.5,0.4,0.8,0.6s0.6,0.3,1.1,0.3
			c0.2,0,0.4,0,0.6-0.1c0.2,0,0.4-0.1,0.5-0.2s0.3-0.2,0.4-0.3c0.1-0.1,0.1-0.3,0.1-0.4c0-0.2-0.1-0.4-0.2-0.5s-0.3-0.2-0.5-0.3
			c-0.2-0.1-0.4-0.1-0.6-0.2c-0.2,0-0.4-0.1-0.6-0.1c-0.3-0.1-0.6-0.2-0.9-0.3c-0.3-0.1-0.5-0.2-0.7-0.4c-0.2-0.2-0.4-0.4-0.5-0.6
			s-0.2-0.5-0.2-0.9s0.1-0.7,0.2-1c0.2-0.3,0.4-0.5,0.7-0.7c0.3-0.2,0.6-0.3,0.9-0.4s0.7-0.1,1-0.1c0.5,0,1,0.1,1.5,0.3
			c0.5,0.2,0.8,0.5,1.1,1L76.4,104.8z"/>
		<path class="st4" d="M83.5,104.2h-2.1v3.4c0,0.2,0,0.4,0,0.6s0.1,0.4,0.1,0.6c0.1,0.2,0.2,0.3,0.3,0.4c0.1,0.1,0.4,0.2,0.6,0.2
			s0.3,0,0.5,0s0.3-0.1,0.5-0.2v1.3c-0.2,0.1-0.4,0.2-0.7,0.2c-0.3,0-0.5,0.1-0.6,0.1c-0.6,0-1-0.1-1.3-0.2
			c-0.3-0.2-0.5-0.4-0.7-0.6c-0.1-0.2-0.2-0.5-0.3-0.8c0-0.3,0-0.6,0-0.9v-4h-1.7v-1.2H80V101h1.4v2.1h2.1V104.2z"/>
		<path class="st4" d="M85.4,102.9h1.3v1.2l0,0c0-0.1,0.1-0.2,0.2-0.4c0.1-0.2,0.3-0.3,0.5-0.5s0.5-0.3,0.7-0.4
			c0.3-0.1,0.6-0.2,0.9-0.2c0.6,0,1,0.1,1.4,0.4c0.4,0.2,0.7,0.6,0.9,1.1c0.2-0.5,0.6-0.8,1-1.1c0.4-0.2,0.9-0.4,1.4-0.4
			c0.6,0,1.1,0.1,1.4,0.3c0.4,0.2,0.7,0.4,0.9,0.8c0.2,0.3,0.4,0.7,0.4,1.1c0.1,0.4,0.1,0.8,0.1,1.2v4.4h-1.4v-4.2
			c0-0.3,0-0.6-0.1-0.8c0-0.3-0.1-0.5-0.2-0.7s-0.3-0.4-0.5-0.5s-0.5-0.2-0.8-0.2c-0.7,0-1.2,0.2-1.5,0.6s-0.4,1-0.4,1.6v4.1h-1.4
			v-4c0-0.4,0-0.7-0.1-1c0-0.3-0.1-0.6-0.2-0.8c-0.1-0.2-0.3-0.4-0.5-0.5s-0.5-0.2-0.8-0.2s-0.5,0.1-0.7,0.2s-0.5,0.3-0.6,0.5
			c-0.2,0.2-0.3,0.5-0.4,0.8s-0.2,0.7-0.2,1.1v3.9h-1.4L85.4,102.9L85.4,102.9z"/>
		<path class="st4" d="M100.1,107.2c0,0.3,0.1,0.6,0.2,0.9s0.3,0.5,0.6,0.7s0.5,0.3,0.8,0.4s0.6,0.2,1,0.2s0.8-0.1,1.2-0.3
			c0.3-0.2,0.6-0.5,0.9-0.8l1.1,0.8c-0.8,1-1.9,1.6-3.4,1.6c-0.6,0-1.1-0.1-1.6-0.3c-0.5-0.2-0.9-0.5-1.2-0.8
			c-0.3-0.4-0.6-0.8-0.8-1.3c-0.2-0.5-0.3-1-0.3-1.6s0.1-1.1,0.3-1.6c0.2-0.5,0.5-0.9,0.8-1.3s0.8-0.6,1.2-0.8
			c0.5-0.2,1-0.3,1.6-0.3c0.7,0,1.2,0.1,1.7,0.4c0.5,0.2,0.8,0.5,1.1,0.9c0.3,0.4,0.5,0.8,0.6,1.3s0.2,1,0.2,1.4v0.5L100.1,107.2
			L100.1,107.2z M104.6,106.1c0-0.3-0.1-0.6-0.2-0.9s-0.2-0.5-0.4-0.7c-0.2-0.2-0.4-0.4-0.7-0.5c-0.3-0.1-0.6-0.2-1-0.2
			s-0.7,0.1-1,0.2s-0.5,0.3-0.7,0.5s-0.4,0.5-0.5,0.7c-0.1,0.3-0.2,0.5-0.2,0.8L104.6,106.1L104.6,106.1z"/>
		<path class="st4" d="M107.9,102.9h1.4v1.2l0,0c0.2-0.4,0.5-0.7,0.9-1s1-0.4,1.6-0.4c0.4,0,0.7,0.1,1,0.2s0.6,0.3,0.9,0.5
			c0.2,0.2,0.5,0.5,0.6,0.9s0.2,0.8,0.2,1.3v4.9h-1.4V106c0-0.4,0-0.7-0.1-0.9c-0.1-0.3-0.2-0.5-0.4-0.6c-0.2-0.2-0.3-0.3-0.6-0.3
			c-0.2-0.1-0.4-0.1-0.6-0.1c-0.3,0-0.6,0-0.8,0.1c-0.3,0.1-0.5,0.2-0.7,0.5c-0.2,0.2-0.3,0.5-0.4,0.8s-0.2,0.7-0.2,1.1v3.9h-1.4
			V102.9z"/>
		<path class="st4" d="M120.8,104.2h-2.1v3.4c0,0.2,0,0.4,0,0.6s0.1,0.4,0.1,0.6c0.1,0.2,0.2,0.3,0.3,0.4c0.1,0.1,0.4,0.2,0.6,0.2
			s0.3,0,0.5,0s0.3-0.1,0.5-0.2v1.3c-0.2,0.1-0.4,0.2-0.7,0.2c-0.3,0-0.5,0.1-0.6,0.1c-0.6,0-1-0.1-1.3-0.2
			c-0.3-0.2-0.5-0.4-0.7-0.6c-0.1-0.2-0.2-0.5-0.3-0.8c0-0.3,0-0.6,0-0.9v-4h-1.7v-1.2h1.7V101h1.4v2.1h2.1v1.1H120.8z"/>
		<path class="st4" d="M129.9,100.6h-3.6v-1.4h8.8v1.4h-3.6v9.9H130L129.9,100.6L129.9,100.6z"/>
		<path class="st4" d="M136.1,100.2c0-0.3,0.1-0.5,0.3-0.7s0.5-0.3,0.7-0.3s0.5,0.1,0.7,0.3s0.3,0.5,0.3,0.7c0,0.3-0.1,0.5-0.3,0.7
			s-0.5,0.3-0.7,0.3s-0.5-0.1-0.7-0.3S136.1,100.5,136.1,100.2z M136.4,102.9h1.4v7.6h-1.4V102.9z"/>
		<path class="st4" d="M140.2,102.9h1.3v1.2l0,0c0-0.1,0.1-0.2,0.2-0.4c0.1-0.2,0.3-0.3,0.5-0.5s0.5-0.3,0.7-0.4
			c0.3-0.1,0.6-0.2,0.9-0.2c0.6,0,1,0.1,1.4,0.4c0.4,0.2,0.7,0.6,0.9,1.1c0.2-0.5,0.6-0.8,1-1.1c0.4-0.2,0.9-0.4,1.4-0.4
			c0.6,0,1.1,0.1,1.4,0.3c0.4,0.2,0.7,0.4,0.9,0.8c0.2,0.3,0.4,0.7,0.4,1.1c0.1,0.4,0.1,0.8,0.1,1.2v4.4h-1.4v-4.2
			c0-0.3,0-0.6-0.1-0.8c0-0.3-0.1-0.5-0.2-0.7c-0.1-0.2-0.3-0.4-0.5-0.5s-0.5-0.2-0.8-0.2c-0.7,0-1.2,0.2-1.5,0.6s-0.4,1-0.4,1.6
			v4.1H145v-4c0-0.4,0-0.7-0.1-1c0-0.3-0.1-0.6-0.2-0.8c-0.1-0.2-0.3-0.4-0.5-0.5s-0.5-0.2-0.8-0.2s-0.5,0.1-0.7,0.2
			s-0.5,0.3-0.6,0.5c-0.2,0.2-0.3,0.5-0.4,0.8c-0.1,0.3-0.2,0.7-0.2,1.1v3.9h-1.4v-7.4H140.2z"/>
		<path class="st4" d="M154.9,107.2c0,0.3,0.1,0.6,0.2,0.9c0.1,0.3,0.3,0.5,0.6,0.7s0.5,0.3,0.8,0.4s0.6,0.2,1,0.2s0.8-0.1,1.2-0.3
			c0.3-0.2,0.6-0.5,0.9-0.8l1.1,0.8c-0.8,1-1.9,1.6-3.4,1.6c-0.6,0-1.1-0.1-1.6-0.3c-0.5-0.2-0.9-0.5-1.2-0.8
			c-0.3-0.4-0.6-0.8-0.8-1.3s-0.3-1-0.3-1.6s0.1-1.1,0.3-1.6s0.5-0.9,0.8-1.3s0.8-0.6,1.2-0.8c0.5-0.2,1-0.3,1.6-0.3
			c0.7,0,1.2,0.1,1.7,0.4c0.5,0.2,0.8,0.5,1.1,0.9s0.5,0.8,0.6,1.3s0.2,1,0.2,1.4v0.5L154.9,107.2L154.9,107.2z M159.4,106.1
			c0-0.3-0.1-0.6-0.2-0.9c-0.1-0.3-0.2-0.5-0.4-0.7s-0.4-0.4-0.7-0.5s-0.6-0.2-1-0.2s-0.7,0.1-1,0.2s-0.5,0.3-0.7,0.5
			s-0.4,0.5-0.5,0.7c-0.1,0.3-0.2,0.5-0.2,0.8L159.4,106.1L159.4,106.1z"/>
		<path class="st4" d="M163.3,104.2h-1.6V103h1.6v-1.7c0-1,0.2-1.8,0.6-2.3c0.4-0.5,1.1-0.7,2-0.7c0.2,0,0.3,0,0.5,0s0.4,0,0.6,0.1
			l-0.2,1.3c-0.1-0.1-0.3-0.1-0.4-0.1s-0.3,0-0.4,0c-0.3,0-0.5,0-0.6,0.1s-0.3,0.2-0.4,0.3c-0.1,0.1-0.1,0.3-0.2,0.5
			c0,0.2,0,0.4,0,0.7v1.7h1.7v1.2h-1.7v6.3h-1.4v-6.2H163.3z"/>
		<path class="st4" d="M168,102.9h1.4v1.2l0,0c0.1-0.2,0.2-0.4,0.4-0.6s0.3-0.3,0.5-0.4s0.4-0.2,0.6-0.3s0.5-0.1,0.7-0.1
			s0.4,0,0.6,0.1l-0.1,1.6c-0.1,0-0.2-0.1-0.4-0.1s-0.2,0-0.4,0c-0.7,0-1.2,0.2-1.6,0.6s-0.6,1-0.6,1.8v3.8H168V102.9z"/>
		<path class="st4" d="M174,103.8c0.4-0.4,0.9-0.7,1.4-0.8c0.5-0.2,1.1-0.3,1.6-0.3c0.6,0,1,0.1,1.4,0.2s0.7,0.3,1,0.6
			c0.3,0.2,0.4,0.5,0.6,0.8c0.1,0.3,0.2,0.6,0.2,1v3.9c0,0.3,0,0.5,0,0.7s0,0.4,0,0.6h-1.3c0-0.4,0-0.8,0-1.2l0,0
			c-0.3,0.5-0.7,0.8-1.1,1c-0.4,0.2-0.9,0.3-1.5,0.3c-0.4,0-0.7,0-1-0.1s-0.6-0.2-0.8-0.4c-0.2-0.2-0.4-0.4-0.6-0.7
			c-0.1-0.3-0.2-0.6-0.2-1c0-0.5,0.1-0.9,0.3-1.2s0.5-0.6,0.9-0.8c0.4-0.2,0.8-0.4,1.3-0.4c0.5-0.1,1-0.1,1.6-0.1h1.1v-0.3
			c0-0.2,0-0.4-0.1-0.6s-0.2-0.4-0.3-0.5c-0.1-0.2-0.3-0.3-0.6-0.4c-0.2-0.1-0.5-0.1-0.8-0.1s-0.5,0-0.7,0.1s-0.4,0.1-0.6,0.2
			c-0.2,0.1-0.3,0.2-0.5,0.3c-0.1,0.1-0.3,0.2-0.4,0.3L174,103.8z M178,106.9c-0.3,0-0.7,0-1,0.1c-0.4,0-0.7,0.1-1,0.2
			s-0.5,0.3-0.7,0.4c-0.2,0.2-0.3,0.4-0.3,0.7c0,0.4,0.1,0.8,0.4,0.9c0.3,0.2,0.7,0.3,1.2,0.3c0.4,0,0.7-0.1,1-0.2s0.5-0.3,0.7-0.5
			s0.3-0.5,0.4-0.7c0.1-0.3,0.1-0.5,0.1-0.8v-0.5L178,106.9L178,106.9z"/>
		<path class="st4" d="M182.2,102.9h1.3v1.2l0,0c0-0.1,0.1-0.2,0.2-0.4c0.1-0.2,0.3-0.3,0.5-0.5s0.5-0.3,0.7-0.4
			c0.3-0.1,0.6-0.2,0.9-0.2c0.6,0,1,0.1,1.4,0.4c0.4,0.2,0.7,0.6,0.9,1.1c0.2-0.5,0.6-0.8,1-1.1c0.4-0.2,0.9-0.4,1.4-0.4
			c0.6,0,1.1,0.1,1.4,0.3c0.4,0.2,0.7,0.4,0.9,0.8c0.2,0.3,0.4,0.7,0.4,1.1c0.1,0.4,0.1,0.8,0.1,1.2v4.4h-1.4v-4.2
			c0-0.3,0-0.6-0.1-0.8c0-0.3-0.1-0.5-0.2-0.7c-0.1-0.2-0.3-0.4-0.5-0.5s-0.5-0.2-0.8-0.2c-0.7,0-1.2,0.2-1.5,0.6s-0.4,1-0.4,1.6
			v4.1H187v-4c0-0.4,0-0.7-0.1-1c0-0.3-0.1-0.6-0.2-0.8c-0.1-0.2-0.3-0.4-0.5-0.5s-0.5-0.2-0.8-0.2s-0.5,0.1-0.7,0.2
			s-0.5,0.3-0.6,0.5c-0.2,0.2-0.3,0.5-0.4,0.8c-0.1,0.3-0.2,0.7-0.2,1.1v3.9h-1.4v-7.4H182.2z"/>
		<path class="st4" d="M197,107.2c0,0.3,0.1,0.6,0.2,0.9c0.1,0.3,0.3,0.5,0.6,0.7s0.5,0.3,0.8,0.4s0.6,0.2,1,0.2s0.8-0.1,1.2-0.3
			c0.3-0.2,0.6-0.5,0.9-0.8l1.1,0.8c-0.8,1-1.9,1.6-3.4,1.6c-0.6,0-1.1-0.1-1.6-0.3c-0.5-0.2-0.9-0.5-1.2-0.8
			c-0.3-0.4-0.6-0.8-0.8-1.3s-0.3-1-0.3-1.6s0.1-1.1,0.3-1.6s0.5-0.9,0.8-1.3s0.8-0.6,1.2-0.8c0.5-0.2,1-0.3,1.6-0.3
			c0.7,0,1.2,0.1,1.7,0.4c0.5,0.2,0.8,0.5,1.1,0.9s0.5,0.8,0.6,1.3s0.2,1,0.2,1.4v0.5L197,107.2L197,107.2z M201.5,106.1
			c0-0.3-0.1-0.6-0.2-0.9c-0.1-0.3-0.2-0.5-0.4-0.7s-0.4-0.4-0.7-0.5s-0.6-0.2-1-0.2s-0.7,0.1-1,0.2s-0.5,0.3-0.7,0.5
			s-0.4,0.5-0.5,0.7c-0.1,0.3-0.2,0.5-0.2,0.8L201.5,106.1L201.5,106.1z"/>
	</g>
	<g>
		<path class="st4" d="M262.5,47.5h0.8v5.7h-0.8V47.5z"/>
		<path class="st4" d="M264.5,49.4h0.7V50l0,0c0.1-0.2,0.2-0.4,0.5-0.5c0.2-0.1,0.5-0.2,0.8-0.2c0.2,0,0.4,0,0.5,0.1
			c0.2,0.1,0.3,0.1,0.4,0.3c0.1,0.1,0.2,0.3,0.3,0.5c0.1,0.2,0.1,0.4,0.1,0.7v2.4h-0.7v-2.2c0-0.2,0-0.3-0.1-0.5s-0.1-0.2-0.2-0.3
			s-0.2-0.1-0.3-0.2c-0.1,0-0.2-0.1-0.3-0.1c-0.1,0-0.3,0-0.4,0.1s-0.2,0.1-0.3,0.2c-0.1,0.1-0.2,0.2-0.2,0.4
			c-0.1,0.2-0.1,0.3-0.1,0.6v2h-0.7L264.5,49.4L264.5,49.4z"/>
		<path class="st4" d="M268.5,49.4h0.8l1.1,2.9l1.1-2.9h0.8l-1.5,3.8H270L268.5,49.4z"/>
		<path class="st4" d="M273.5,51.5c0,0.2,0,0.3,0.1,0.5c0.1,0.1,0.2,0.3,0.3,0.3c0.1,0.1,0.3,0.2,0.4,0.2c0.2,0.1,0.3,0.1,0.5,0.1
			s0.4-0.1,0.6-0.2s0.3-0.2,0.5-0.4l0.5,0.4c-0.4,0.5-1,0.8-1.7,0.8c-0.3,0-0.6-0.1-0.8-0.2c-0.2-0.1-0.4-0.2-0.6-0.4
			s-0.3-0.4-0.4-0.6s-0.1-0.5-0.1-0.8s0-0.5,0.1-0.8s0.2-0.5,0.4-0.6c0.2-0.2,0.4-0.3,0.6-0.4c0.2-0.1,0.5-0.2,0.8-0.2
			s0.6,0.1,0.9,0.2c0.2,0.1,0.4,0.3,0.6,0.5s0.3,0.4,0.3,0.6c0.1,0.2,0.1,0.5,0.1,0.7v0.3C276.6,51.5,273.5,51.5,273.5,51.5z
			 M275.8,51c0-0.2,0-0.3-0.1-0.4c0-0.1-0.1-0.2-0.2-0.3s-0.2-0.2-0.3-0.2c-0.1-0.1-0.3-0.1-0.5-0.1s-0.3,0-0.5,0.1
			c-0.1,0.1-0.3,0.2-0.4,0.3s-0.2,0.2-0.2,0.4c-0.1,0.1-0.1,0.3-0.1,0.4h2.3V51z"/>
		<path class="st4" d="M279.4,50.3c-0.1-0.1-0.2-0.2-0.3-0.3c-0.1-0.1-0.3-0.1-0.5-0.1s-0.3,0-0.4,0.1s-0.2,0.2-0.2,0.3
			s0,0.2,0.1,0.3s0.2,0.1,0.3,0.2c0.1,0,0.2,0.1,0.3,0.1c0.1,0,0.2,0,0.3,0.1c0.2,0,0.3,0.1,0.4,0.1c0.1,0.1,0.3,0.1,0.4,0.2
			s0.2,0.2,0.2,0.3c0.1,0.1,0.1,0.3,0.1,0.4c0,0.2,0,0.4-0.1,0.5c-0.1,0.2-0.2,0.3-0.4,0.4c-0.1,0.1-0.3,0.2-0.5,0.2
			s-0.4,0.1-0.6,0.1c-0.3,0-0.6,0-0.8-0.1c-0.2-0.1-0.5-0.3-0.6-0.5l0.5-0.4c0.1,0.1,0.2,0.2,0.4,0.3c0.1,0.1,0.3,0.1,0.5,0.1
			c0.1,0,0.2,0,0.3,0c0.1,0,0.2,0,0.2-0.1s0.1-0.1,0.2-0.2c0-0.1,0.1-0.1,0.1-0.2c0-0.1,0-0.2-0.1-0.3s-0.1-0.1-0.2-0.2
			c-0.1,0-0.2-0.1-0.3-0.1c-0.1,0-0.2,0-0.3-0.1c-0.2,0-0.3-0.1-0.4-0.1s-0.3-0.1-0.4-0.2c-0.1-0.1-0.2-0.2-0.3-0.3
			c-0.1-0.1-0.1-0.3-0.1-0.5s0-0.4,0.1-0.5s0.2-0.3,0.3-0.4c0.1-0.1,0.3-0.2,0.5-0.2s0.3-0.1,0.5-0.1c0.3,0,0.5,0,0.7,0.1
			s0.4,0.3,0.6,0.5L279.4,50.3z"/>
		<path class="st4" d="M283,50h-1v1.7c0,0.1,0,0.2,0,0.3s0,0.2,0.1,0.3c0,0.1,0.1,0.1,0.2,0.2c0.1,0.1,0.2,0.1,0.3,0.1
			c0.1,0,0.2,0,0.3,0c0.1,0,0.2,0,0.2-0.1v0.7c-0.1,0-0.2,0.1-0.3,0.1c-0.1,0-0.2,0-0.3,0c-0.3,0-0.5,0-0.6-0.1
			c-0.2-0.1-0.3-0.2-0.3-0.3c-0.1-0.1-0.1-0.3-0.1-0.4c0-0.2,0-0.3,0-0.5v-2h-0.8v-0.6h0.8v-1.1h0.7v1.1h1V50H283z"/>
		<path class="st4" d="M283.9,49.4h0.7V50l0,0c0-0.1,0.1-0.1,0.1-0.2c0.1-0.1,0.2-0.2,0.3-0.2c0.1-0.1,0.2-0.1,0.4-0.2
			c0.1-0.1,0.3-0.1,0.5-0.1c0.3,0,0.5,0.1,0.7,0.2c0.2,0.1,0.3,0.3,0.5,0.5c0.1-0.2,0.3-0.4,0.5-0.5s0.5-0.2,0.7-0.2
			c0.3,0,0.5,0,0.7,0.1s0.3,0.2,0.4,0.4s0.2,0.3,0.2,0.5s0.1,0.4,0.1,0.6v2.2H289V51c0-0.1,0-0.3,0-0.4c0-0.1-0.1-0.3-0.1-0.4
			c-0.1-0.1-0.1-0.2-0.2-0.2c-0.1-0.1-0.2-0.1-0.4-0.1c-0.3,0-0.6,0.1-0.7,0.3s-0.2,0.5-0.2,0.8v2.1h-0.7v-2c0-0.2,0-0.3,0-0.5
			c0-0.1-0.1-0.3-0.1-0.4c-0.1-0.1-0.1-0.2-0.2-0.3s-0.2-0.1-0.4-0.1c-0.1,0-0.3,0-0.4,0.1s-0.2,0.1-0.3,0.2
			c-0.1,0.1-0.2,0.2-0.2,0.4c-0.1,0.2-0.1,0.3-0.1,0.6v2h-0.7v-3.7H283.9z"/>
		<path class="st4" d="M291.3,51.5c0,0.2,0,0.3,0.1,0.5c0.1,0.1,0.2,0.3,0.3,0.3c0.1,0.1,0.3,0.2,0.4,0.2c0.2,0.1,0.3,0.1,0.5,0.1
			s0.4-0.1,0.6-0.2s0.3-0.2,0.5-0.4l0.5,0.4c-0.4,0.5-1,0.8-1.7,0.8c-0.3,0-0.6-0.1-0.8-0.2c-0.2-0.1-0.4-0.2-0.6-0.4
			s-0.3-0.4-0.4-0.6s-0.1-0.5-0.1-0.8s0-0.5,0.1-0.8s0.2-0.5,0.4-0.6c0.2-0.2,0.4-0.3,0.6-0.4c0.2-0.1,0.5-0.2,0.8-0.2
			s0.6,0.1,0.9,0.2c0.2,0.1,0.4,0.3,0.6,0.5s0.3,0.4,0.3,0.6c0.1,0.2,0.1,0.5,0.1,0.7v0.3C294.4,51.5,291.3,51.5,291.3,51.5z
			 M293.6,51c0-0.2,0-0.3-0.1-0.4c0-0.1-0.1-0.2-0.2-0.3s-0.2-0.2-0.3-0.2c-0.1-0.1-0.3-0.1-0.5-0.1s-0.3,0-0.5,0.1
			c-0.1,0.1-0.3,0.2-0.4,0.3s-0.2,0.2-0.2,0.4c-0.1,0.1-0.1,0.3-0.1,0.4h2.3V51z"/>
		<path class="st4" d="M295.2,49.4h0.7V50l0,0c0.1-0.2,0.2-0.4,0.5-0.5c0.2-0.1,0.5-0.2,0.8-0.2c0.2,0,0.4,0,0.5,0.1
			c0.2,0.1,0.3,0.1,0.4,0.3c0.1,0.1,0.2,0.3,0.3,0.5c0.1,0.2,0.1,0.4,0.1,0.7v2.4h-0.7v-2.2c0-0.2,0-0.3-0.1-0.5s-0.1-0.2-0.2-0.3
			s-0.2-0.1-0.3-0.2c-0.1,0-0.2-0.1-0.3-0.1c-0.1,0-0.3,0-0.4,0.1s-0.2,0.1-0.3,0.2c-0.1,0.1-0.2,0.2-0.2,0.4
			c-0.1,0.2-0.1,0.3-0.1,0.6v2h-0.7L295.2,49.4L295.2,49.4z"/>
		<path class="st4" d="M301.7,50h-1v1.7c0,0.1,0,0.2,0,0.3s0,0.2,0.1,0.3c0,0.1,0.1,0.1,0.2,0.2c0.1,0.1,0.2,0.1,0.3,0.1
			c0.1,0,0.2,0,0.3,0c0.1,0,0.2,0,0.2-0.1v0.7c-0.1,0-0.2,0.1-0.3,0.1c-0.1,0-0.2,0-0.3,0c-0.3,0-0.5,0-0.6-0.1
			c-0.2-0.1-0.3-0.2-0.3-0.3c-0.1-0.1-0.1-0.3-0.1-0.4c0-0.2,0-0.3,0-0.5v-2h-0.8v-0.6h0.8v-1.1h0.7v1.1h1V50H301.7z"/>
		<path class="st4" d="M305.2,52c0.1,0.2,0.3,0.4,0.5,0.5s0.4,0.1,0.7,0.1c0.1,0,0.3,0,0.4-0.1c0.1,0,0.3-0.1,0.4-0.2
			s0.2-0.2,0.3-0.3c0.1-0.1,0.1-0.3,0.1-0.4c0-0.2-0.1-0.4-0.2-0.5s-0.3-0.2-0.5-0.3s-0.4-0.2-0.7-0.2c-0.2-0.1-0.5-0.2-0.7-0.3
			s-0.4-0.3-0.5-0.5s-0.2-0.5-0.2-0.9c0-0.2,0-0.3,0.1-0.5s0.2-0.4,0.3-0.5c0.2-0.2,0.4-0.3,0.6-0.4c0.2-0.1,0.5-0.2,0.9-0.2
			c0.3,0,0.6,0,0.9,0.1s0.5,0.3,0.7,0.5l-0.6,0.6c-0.1-0.1-0.2-0.3-0.4-0.4c-0.2-0.1-0.4-0.1-0.6-0.1s-0.4,0-0.5,0.1
			s-0.3,0.1-0.3,0.2c-0.1,0.1-0.1,0.2-0.2,0.3c0,0.1-0.1,0.2-0.1,0.3c0,0.2,0.1,0.4,0.2,0.6s0.3,0.2,0.5,0.3s0.4,0.2,0.7,0.2
			c0.2,0.1,0.5,0.2,0.7,0.3s0.4,0.3,0.5,0.5s0.2,0.5,0.2,0.8s-0.1,0.5-0.2,0.7s-0.2,0.4-0.4,0.6s-0.4,0.3-0.6,0.3s-0.5,0.1-0.8,0.1
			c-0.4,0-0.7-0.1-1-0.2s-0.6-0.3-0.8-0.6L305.2,52z"/>
		<path class="st4" d="M312.6,53.2h-0.7v-0.6l0,0c-0.1,0.2-0.2,0.4-0.5,0.5c-0.2,0.1-0.5,0.2-0.8,0.2c-0.2,0-0.4,0-0.5-0.1
			c-0.2-0.1-0.3-0.1-0.4-0.3s-0.2-0.3-0.3-0.5c-0.1-0.2-0.1-0.4-0.1-0.7v-2.4h0.7v2.2c0,0.2,0,0.3,0.1,0.5c0,0.1,0.1,0.2,0.2,0.3
			s0.2,0.1,0.3,0.2c0.1,0,0.2,0.1,0.3,0.1c0.1,0,0.3,0,0.4-0.1s0.2-0.1,0.3-0.2s0.2-0.2,0.2-0.4c0.1-0.2,0.1-0.3,0.1-0.6v-2h0.7
			L312.6,53.2L312.6,53.2z"/>
		<path class="st4" d="M313.7,49.4h0.7V50l0,0c0-0.1,0.1-0.1,0.1-0.2c0.1-0.1,0.2-0.2,0.3-0.2c0.1-0.1,0.2-0.1,0.4-0.2
			c0.1-0.1,0.3-0.1,0.5-0.1c0.3,0,0.5,0.1,0.7,0.2c0.2,0.1,0.3,0.3,0.5,0.5c0.1-0.2,0.3-0.4,0.5-0.5s0.5-0.2,0.7-0.2
			c0.3,0,0.5,0,0.7,0.1s0.3,0.2,0.4,0.4s0.2,0.3,0.2,0.5s0.1,0.4,0.1,0.6v2.2h-0.7V51c0-0.1,0-0.3,0-0.4c0-0.1-0.1-0.3-0.1-0.4
			c-0.1-0.1-0.1-0.2-0.2-0.2c-0.1-0.1-0.2-0.1-0.4-0.1c-0.3,0-0.6,0.1-0.7,0.3s-0.2,0.5-0.2,0.8v2.1h-0.7v-2c0-0.2,0-0.3,0-0.5
			c0-0.1-0.1-0.3-0.1-0.4c-0.1-0.1-0.1-0.2-0.2-0.3s-0.2-0.1-0.4-0.1c-0.1,0-0.3,0-0.4,0.1s-0.2,0.1-0.3,0.2
			c-0.1,0.1-0.2,0.2-0.2,0.4c-0.1,0.2-0.1,0.3-0.1,0.6v2h-0.7v-3.7H313.7z"/>
		<path class="st4" d="M320.5,49.4h0.7V50l0,0c0-0.1,0.1-0.1,0.1-0.2c0.1-0.1,0.2-0.2,0.3-0.2c0.1-0.1,0.2-0.1,0.4-0.2
			c0.1-0.1,0.3-0.1,0.5-0.1c0.3,0,0.5,0.1,0.7,0.2c0.2,0.1,0.3,0.3,0.5,0.5c0.1-0.2,0.3-0.4,0.5-0.5s0.5-0.2,0.7-0.2
			c0.3,0,0.5,0,0.7,0.1s0.3,0.2,0.4,0.4s0.2,0.3,0.2,0.5s0.1,0.4,0.1,0.6v2.2h-0.7V51c0-0.1,0-0.3,0-0.4c0-0.1-0.1-0.3-0.1-0.4
			c-0.1-0.1-0.1-0.2-0.2-0.2c-0.1-0.1-0.2-0.1-0.4-0.1c-0.3,0-0.6,0.1-0.7,0.3S324,50.7,324,51v2.1h-1v-2c0-0.2,0-0.3,0-0.5
			c0-0.1-0.1-0.3-0.1-0.4c-0.1-0.1-0.1-0.2-0.2-0.3s-0.2-0.1-0.4-0.1c-0.1,0-0.3,0-0.4,0.1s-0.2,0.1-0.3,0.2
			c-0.1,0.1-0.2,0.2-0.2,0.4c-0.1,0.2-0.1,0.3-0.1,0.6v2h-0.7L320.5,49.4L320.5,49.4z"/>
		<path class="st4" d="M327.4,49.8c0.2-0.2,0.4-0.3,0.7-0.4s0.5-0.1,0.8-0.1s0.5,0,0.7,0.1s0.4,0.2,0.5,0.3s0.2,0.3,0.3,0.4
			s0.1,0.3,0.1,0.5v1.9c0,0.1,0,0.3,0,0.4c0,0.1,0,0.2,0,0.3h-0.6c0-0.2,0-0.4,0-0.6l0,0c-0.2,0.2-0.3,0.4-0.6,0.5
			c-0.2,0.1-0.5,0.2-0.8,0.2c-0.2,0-0.3,0-0.5-0.1s-0.3-0.1-0.4-0.2c-0.1-0.1-0.2-0.2-0.3-0.4c-0.1-0.1-0.1-0.3-0.1-0.5
			s0.1-0.5,0.2-0.6c0.1-0.2,0.3-0.3,0.4-0.4s0.4-0.2,0.7-0.2c0.3,0,0.5-0.1,0.8-0.1h0.5v-0.2c0-0.1,0-0.2-0.1-0.3
			c0-0.1-0.1-0.2-0.2-0.3s-0.2-0.1-0.3-0.2c-0.1,0-0.2-0.1-0.4-0.1c-0.1,0-0.3,0-0.4,0s-0.2,0.1-0.3,0.1s-0.2,0.1-0.2,0.1
			c-0.1,0.1-0.1,0.1-0.2,0.2L327.4,49.8z M329.4,51.3c-0.2,0-0.3,0-0.5,0s-0.3,0.1-0.5,0.1s-0.3,0.1-0.4,0.2
			c-0.1,0.1-0.1,0.2-0.1,0.4s0.1,0.4,0.2,0.5s0.3,0.1,0.6,0.1c0.2,0,0.4,0,0.5-0.1s0.2-0.2,0.3-0.3c0.1-0.1,0.1-0.2,0.2-0.4
			c0-0.1,0.1-0.3,0.1-0.4v-0.2h-0.4V51.3z"/>
		<path class="st4" d="M331.5,49.4h0.7V50l0,0c0-0.1,0.1-0.2,0.2-0.3s0.2-0.2,0.3-0.2s0.2-0.1,0.3-0.1c0.1,0,0.2-0.1,0.4-0.1
			s0.2,0,0.3,0v0.8c-0.1,0-0.1,0-0.2,0s-0.1,0-0.2,0c-0.4,0-0.6,0.1-0.8,0.3c-0.2,0.2-0.3,0.5-0.3,0.9v1.9h-0.7L331.5,49.4
			L331.5,49.4z"/>
		<path class="st4" d="M334,49.4h0.8l1.1,3l0,0l1.1-3h0.8L336,54c-0.1,0.2-0.1,0.3-0.2,0.5c-0.1,0.1-0.2,0.3-0.2,0.3
			c-0.1,0.1-0.2,0.2-0.3,0.2s-0.3,0.1-0.5,0.1c-0.1,0-0.2,0-0.3,0c-0.1,0-0.2,0-0.3-0.1l0.1-0.7c0.1,0.1,0.3,0.1,0.4,0.1
			s0.2,0,0.3,0c0.1,0,0.1-0.1,0.2-0.1c0.1-0.1,0.1-0.1,0.1-0.2s0.1-0.2,0.1-0.3l0.2-0.6L334,49.4z"/>
	</g>
	<g>
		<g>
			<path class="st5" d="M279,80h0.6v4.2H279V80z"/>
			<path class="st5" d="M280.5,81.4h0.5v0.4l0,0c0.1-0.2,0.2-0.3,0.4-0.4c0.2-0.1,0.4-0.1,0.6-0.1c0.1,0,0.3,0,0.4,0.1
				s0.2,0.1,0.3,0.2c0.1,0.1,0.2,0.2,0.2,0.3c0.1,0.1,0.1,0.3,0.1,0.5v1.8h-0.5v-1.7c0-0.1,0-0.2-0.1-0.3c0-0.1-0.1-0.2-0.1-0.2
				c-0.1-0.1-0.1-0.1-0.2-0.1s-0.2,0-0.2,0c-0.1,0-0.2,0-0.3,0.1c-0.1,0-0.2,0.1-0.3,0.2s-0.1,0.2-0.2,0.3c0,0.1-0.1,0.3-0.1,0.4
				v1.5h-0.5L280.5,81.4L280.5,81.4z"/>
			<path class="st5" d="M283.5,81.4h0.6l0.9,2.2l0.8-2.2h0.6l-1.1,2.8h-0.6L283.5,81.4z"/>
			<path class="st5" d="M287.3,83c0,0.1,0,0.2,0.1,0.3c0.1,0.1,0.1,0.2,0.2,0.3c0.1,0.1,0.2,0.1,0.3,0.2s0.2,0.1,0.4,0.1
				c0.2,0,0.3,0,0.4-0.1s0.2-0.2,0.3-0.3l0.4,0.3c-0.3,0.4-0.7,0.6-1.3,0.6c-0.2,0-0.4,0-0.6-0.1s-0.3-0.2-0.5-0.3
				c-0.1-0.1-0.2-0.3-0.3-0.5c-0.1-0.2-0.1-0.4-0.1-0.6s0-0.4,0.1-0.6s0.2-0.3,0.3-0.5c0.1-0.1,0.3-0.2,0.5-0.3
				c0.2-0.1,0.4-0.1,0.6-0.1c0.3,0,0.5,0,0.6,0.1c0.2,0.1,0.3,0.2,0.4,0.3c0.1,0.1,0.2,0.3,0.2,0.5s0.1,0.4,0.1,0.5V83H287.3z
				 M289,82.6c0-0.1,0-0.2-0.1-0.3s-0.1-0.2-0.2-0.3c-0.1-0.1-0.2-0.1-0.3-0.2c-0.1,0-0.2-0.1-0.4-0.1c-0.1,0-0.3,0-0.4,0.1
				s-0.2,0.1-0.3,0.2s-0.1,0.2-0.2,0.3c0,0.1-0.1,0.2-0.1,0.3H289z"/>
			<path class="st5" d="M291.7,82.1c-0.1-0.1-0.1-0.1-0.2-0.2s-0.2-0.1-0.3-0.1c-0.1,0-0.2,0-0.3,0.1c-0.1,0.1-0.1,0.1-0.1,0.2
				s0,0.2,0.1,0.2c0.1,0.1,0.1,0.1,0.2,0.1s0.2,0.1,0.2,0.1h0.2c0.1,0,0.2,0.1,0.3,0.1s0.2,0.1,0.3,0.2c0.1,0.1,0.1,0.1,0.2,0.2
				c0,0.1,0.1,0.2,0.1,0.3c0,0.2,0,0.3-0.1,0.4s-0.2,0.2-0.3,0.3c-0.1,0.1-0.2,0.1-0.4,0.2c-0.1,0-0.3,0-0.4,0c-0.2,0-0.4,0-0.6-0.1
				s-0.3-0.2-0.5-0.4l0.4-0.3c0.1,0.1,0.2,0.2,0.3,0.2c0.1,0.1,0.2,0.1,0.4,0.1c0.1,0,0.1,0,0.2,0s0.1,0,0.2-0.1
				c0.1,0,0.1-0.1,0.1-0.1s0.1-0.1,0.1-0.2s0-0.1-0.1-0.2c0-0.1-0.1-0.1-0.2-0.1s-0.1-0.1-0.2-0.1s-0.1,0-0.2,0s-0.2-0.1-0.3-0.1
				c-0.1,0-0.2-0.1-0.3-0.1c-0.1-0.1-0.1-0.1-0.2-0.2c0-0.1-0.1-0.2-0.1-0.3c0-0.1,0-0.3,0.1-0.4s0.1-0.2,0.2-0.3
				c0.1-0.1,0.2-0.1,0.3-0.2c0.1,0,0.3-0.1,0.4-0.1c0.2,0,0.4,0,0.6,0.1s0.3,0.2,0.4,0.4L291.7,82.1z"/>
			<path class="st5" d="M294.4,81.9h-0.8v1.3c0,0.1,0,0.2,0,0.2c0,0.1,0,0.1,0,0.2s0.1,0.1,0.1,0.2c0.1,0,0.1,0.1,0.2,0.1
				s0.1,0,0.2,0s0.1,0,0.2-0.1v0.5c-0.1,0-0.1,0.1-0.2,0.1s-0.2,0-0.2,0c-0.2,0-0.4,0-0.5-0.1s-0.2-0.1-0.3-0.2
				c-0.1-0.1-0.1-0.2-0.1-0.3c0-0.1,0-0.2,0-0.3V82h-0.6v-0.5h0.6v-0.8h0.5v0.8h0.8L294.4,81.9L294.4,81.9z"/>
			<path class="st5" d="M295.1,81.4h0.5v0.4l0,0c0,0,0-0.1,0.1-0.1c0.1-0.1,0.1-0.1,0.2-0.2s0.2-0.1,0.3-0.1c0.1,0,0.2-0.1,0.4-0.1
				c0.2,0,0.4,0,0.5,0.1s0.3,0.2,0.4,0.4c0.1-0.2,0.2-0.3,0.4-0.4c0.2-0.1,0.3-0.1,0.5-0.1s0.4,0,0.5,0.1s0.2,0.2,0.3,0.3
				s0.1,0.3,0.2,0.4s0,0.3,0,0.5v1.7h-0.5v-1.6c0-0.1,0-0.2,0-0.3c0-0.1,0-0.2-0.1-0.3c0-0.1-0.1-0.1-0.2-0.2
				c-0.1,0-0.2-0.1-0.3-0.1c-0.3,0-0.4,0.1-0.6,0.2c-0.1,0.2-0.2,0.4-0.2,0.6v1.6H297v-1.5c0-0.1,0-0.3,0-0.4s0-0.2-0.1-0.3
				s-0.1-0.1-0.2-0.2c-0.1,0-0.2-0.1-0.3-0.1c-0.1,0-0.2,0-0.3,0.1s-0.2,0.1-0.2,0.2c-0.1,0.1-0.1,0.2-0.2,0.3
				c0,0.1-0.1,0.3-0.1,0.4v1.5h-0.5L295.1,81.4L295.1,81.4z"/>
			<path class="st5" d="M300.6,83c0,0.1,0,0.2,0.1,0.3c0.1,0.1,0.1,0.2,0.2,0.3c0.1,0.1,0.2,0.1,0.3,0.2s0.2,0.1,0.4,0.1
				c0.2,0,0.3,0,0.4-0.1s0.2-0.2,0.3-0.3l0.4,0.3c-0.3,0.4-0.7,0.6-1.3,0.6c-0.2,0-0.4,0-0.6-0.1s-0.3-0.2-0.5-0.3
				c-0.1-0.1-0.2-0.3-0.3-0.5c-0.1-0.2-0.1-0.4-0.1-0.6s0-0.4,0.1-0.6s0.2-0.3,0.3-0.5c0.1-0.1,0.3-0.2,0.5-0.3
				c0.2-0.1,0.4-0.1,0.6-0.1c0.3,0,0.5,0,0.6,0.1c0.2,0.1,0.3,0.2,0.4,0.3c0.1,0.1,0.2,0.3,0.2,0.5s0.1,0.4,0.1,0.5V83H300.6z
				 M302.3,82.6c0-0.1,0-0.2-0.1-0.3s-0.1-0.2-0.2-0.3c-0.1-0.1-0.2-0.1-0.3-0.2c-0.1,0-0.2-0.1-0.4-0.1c-0.1,0-0.3,0-0.4,0.1
				s-0.2,0.1-0.3,0.2s-0.1,0.2-0.2,0.3c0,0.1-0.1,0.2-0.1,0.3H302.3z"/>
			<path class="st5" d="M303.5,81.4h0.5v0.4l0,0c0.1-0.2,0.2-0.3,0.4-0.4c0.2-0.1,0.4-0.1,0.6-0.1c0.1,0,0.3,0,0.4,0.1
				s0.2,0.1,0.3,0.2c0.1,0.1,0.2,0.2,0.2,0.3c0.1,0.1,0.1,0.3,0.1,0.5v1.8h-0.5v-1.7c0-0.1,0-0.2-0.1-0.3c0-0.1-0.1-0.2-0.1-0.2
				c-0.1-0.1-0.1-0.1-0.2-0.1s-0.2,0-0.2,0c-0.1,0-0.2,0-0.3,0.1c-0.1,0-0.2,0.1-0.3,0.2s-0.1,0.2-0.2,0.3c0,0.1-0.1,0.3-0.1,0.4
				v1.5h-0.5L303.5,81.4L303.5,81.4z"/>
			<path class="st5" d="M308.4,81.9h-0.8v1.3c0,0.1,0,0.2,0,0.2c0,0.1,0,0.1,0,0.2s0.1,0.1,0.1,0.2c0.1,0,0.1,0.1,0.2,0.1
				s0.1,0,0.2,0s0.1,0,0.2-0.1v0.5c-0.1,0-0.1,0.1-0.2,0.1s-0.2,0-0.2,0c-0.2,0-0.4,0-0.5-0.1s-0.2-0.1-0.3-0.2
				c-0.1-0.1-0.1-0.2-0.1-0.3c0-0.1,0-0.2,0-0.3V82h-0.6v-0.5h0.6v-0.8h0.5v0.8h0.8L308.4,81.9L308.4,81.9z"/>
			<path class="st5" d="M310.9,80h0.8l2.3,3.5l0,0V80h0.6v4.2h-0.7l-2.4-3.5l0,0v3.5h-0.6L310.9,80L310.9,80z"/>
			<path class="st5" d="M315.5,81.8c0.2-0.1,0.3-0.2,0.5-0.3s0.4-0.1,0.6-0.1s0.4,0,0.5,0.1c0.2,0.1,0.3,0.1,0.4,0.2
				s0.2,0.2,0.2,0.3c0,0.1,0.1,0.2,0.1,0.4v1.5c0,0.1,0,0.2,0,0.3c0,0.1,0,0.2,0,0.2h-0.5c0-0.1,0-0.3,0-0.4l0,0
				c-0.1,0.2-0.3,0.3-0.4,0.4s-0.4,0.1-0.6,0.1c-0.1,0-0.3,0-0.4-0.1s-0.2-0.1-0.3-0.2c-0.1-0.1-0.2-0.2-0.2-0.3
				c-0.1-0.1-0.1-0.2-0.1-0.4c0-0.2,0-0.3,0.1-0.5c0.1-0.1,0.2-0.2,0.3-0.3c0.1-0.1,0.3-0.1,0.5-0.2c0.2,0,0.4-0.1,0.6-0.1h0.4v-0.1
				c0-0.1,0-0.1,0-0.2s-0.1-0.1-0.1-0.2c-0.1-0.1-0.1-0.1-0.2-0.1s-0.2-0.1-0.3-0.1c-0.1,0-0.2,0-0.3,0s-0.1,0-0.2,0.1
				c-0.1,0-0.1,0.1-0.2,0.1s-0.1,0.1-0.1,0.1L315.5,81.8z M317.1,82.9c-0.1,0-0.3,0-0.4,0s-0.3,0-0.4,0.1c-0.1,0-0.2,0.1-0.3,0.2
				c-0.1,0.1-0.1,0.2-0.1,0.3c0,0.2,0.1,0.3,0.2,0.4s0.3,0.1,0.4,0.1s0.3,0,0.4-0.1c0.1,0,0.2-0.1,0.3-0.2c0.1-0.1,0.1-0.2,0.1-0.3
				c0-0.1,0-0.2,0-0.3v-0.2H317.1z"/>
			<path class="st5" d="M318.7,81.4h0.5v0.4l0,0c0,0,0-0.1,0.1-0.1c0.1-0.1,0.1-0.1,0.2-0.2s0.2-0.1,0.3-0.1c0.1,0,0.2-0.1,0.4-0.1
				c0.2,0,0.4,0,0.5,0.1s0.3,0.2,0.4,0.4c0.1-0.2,0.2-0.3,0.4-0.4c0.2-0.1,0.3-0.1,0.5-0.1s0.4,0,0.5,0.1s0.2,0.2,0.3,0.3
				s0.1,0.3,0.2,0.4s0,0.3,0,0.5v1.7h-0.5v-1.6c0-0.1,0-0.2,0-0.3c0-0.1,0-0.2-0.1-0.3c0-0.1-0.1-0.1-0.2-0.2
				c-0.1,0-0.2-0.1-0.3-0.1c-0.3,0-0.4,0.1-0.6,0.2c-0.1,0.2-0.2,0.4-0.2,0.6v1.6h-0.5v-1.5c0-0.1,0-0.3,0-0.4s0-0.2-0.1-0.3
				s-0.1-0.1-0.2-0.2c-0.1,0-0.2-0.1-0.3-0.1c-0.1,0-0.2,0-0.3,0.1s-0.2,0.1-0.2,0.2c-0.1,0.1-0.1,0.2-0.2,0.3
				c0,0.1-0.1,0.3-0.1,0.4v1.5h-0.5L318.7,81.4L318.7,81.4z"/>
			<path class="st5" d="M324.2,83c0,0.1,0,0.2,0.1,0.3c0.1,0.1,0.1,0.2,0.2,0.3c0.1,0.1,0.2,0.1,0.3,0.2s0.2,0.1,0.4,0.1
				c0.2,0,0.3,0,0.4-0.1s0.2-0.2,0.3-0.3l0.4,0.3c-0.3,0.4-0.7,0.6-1.3,0.6c-0.2,0-0.4,0-0.6-0.1s-0.3-0.2-0.5-0.3
				c-0.1-0.1-0.2-0.3-0.3-0.5c-0.1-0.2-0.1-0.4-0.1-0.6s0-0.4,0.1-0.6s0.2-0.3,0.3-0.5c0.1-0.1,0.3-0.2,0.5-0.3
				c0.2-0.1,0.4-0.1,0.6-0.1c0.3,0,0.5,0,0.6,0.1c0.2,0.1,0.3,0.2,0.4,0.3c0.1,0.1,0.2,0.3,0.2,0.5s0.1,0.4,0.1,0.5V83H324.2z
				 M325.9,82.6c0-0.1,0-0.2-0.1-0.3s-0.1-0.2-0.2-0.3c-0.1-0.1-0.2-0.1-0.3-0.2c-0.1,0-0.2-0.1-0.4-0.1c-0.1,0-0.3,0-0.4,0.1
				s-0.2,0.1-0.3,0.2s-0.1,0.2-0.2,0.3c0,0.1-0.1,0.2-0.1,0.3H325.9z"/>
		</g>
	</g>
	<g>
		<g>
			<path class="st4" d="M279,90.7h0.9l1.3,3.2l0,0l1.3-3.2h0.9V95h-0.6v-3.5l0,0l-1.4,3.5H281l-1.4-3.5l0,0V95H279V90.7z"/>
			<path class="st4" d="M284,92.1h0.6l0.8,2.2l0,0l0.8-2.2h0.6l-1.3,3.5c0,0.1-0.1,0.2-0.1,0.3s-0.1,0.2-0.2,0.3
				c-0.1,0.1-0.2,0.1-0.3,0.2s-0.2,0.1-0.4,0.1c-0.1,0-0.2,0-0.2,0c-0.1,0-0.2,0-0.2-0.1l0.1-0.5c0.1,0,0.2,0.1,0.3,0.1
				c0.1,0,0.2,0,0.2,0l0.1-0.1l0.1-0.1c0-0.1,0.1-0.1,0.1-0.2l0.2-0.4L284,92.1z"/>
			<path class="st4" d="M292.1,91.6c-0.1-0.2-0.3-0.3-0.5-0.4s-0.4-0.1-0.6-0.1s-0.5,0-0.7,0.1s-0.4,0.2-0.5,0.4
				c-0.1,0.2-0.2,0.3-0.3,0.5s-0.1,0.4-0.1,0.7c0,0.2,0,0.4,0.1,0.6s0.2,0.4,0.3,0.5c0.1,0.2,0.3,0.3,0.5,0.4s0.4,0.1,0.7,0.1
				c0.2,0,0.5,0,0.6-0.1c0.2-0.1,0.3-0.2,0.5-0.4l0.5,0.4c0,0-0.1,0.1-0.2,0.2s-0.2,0.2-0.3,0.2c-0.1,0.1-0.3,0.2-0.5,0.2
				c-0.2,0.1-0.4,0.1-0.6,0.1c-0.3,0-0.6-0.1-0.9-0.2s-0.5-0.3-0.7-0.5s-0.3-0.4-0.4-0.7c-0.1-0.3-0.1-0.5-0.1-0.8s0.1-0.6,0.2-0.9
				s0.3-0.5,0.5-0.7s0.4-0.4,0.7-0.5c0.3-0.1,0.6-0.2,0.9-0.2s0.6,0.1,0.8,0.2c0.3,0.1,0.5,0.3,0.7,0.5L292.1,91.6z"/>
			<path class="st4" d="M293.1,93.5c0-0.2,0-0.4,0.1-0.6s0.2-0.3,0.3-0.5c0.1-0.1,0.3-0.2,0.5-0.3c0.2-0.1,0.4-0.1,0.6-0.1
				s0.4,0,0.6,0.1s0.3,0.2,0.5,0.3c0.1,0.1,0.2,0.3,0.3,0.5c0.1,0.2,0.1,0.4,0.1,0.6s0,0.4-0.1,0.6s-0.2,0.3-0.3,0.5
				c-0.1,0.1-0.3,0.2-0.5,0.3s-0.4,0.1-0.6,0.1s-0.4,0-0.6-0.1s-0.3-0.2-0.5-0.3c-0.1-0.1-0.2-0.3-0.3-0.5S293.1,93.7,293.1,93.5z
				 M293.6,93.5c0,0.1,0,0.3,0.1,0.4s0.1,0.2,0.2,0.3s0.2,0.2,0.3,0.2c0.1,0,0.2,0.1,0.4,0.1c0.1,0,0.3,0,0.4-0.1s0.2-0.1,0.3-0.2
				s0.1-0.2,0.2-0.3s0.1-0.3,0.1-0.4s0-0.3-0.1-0.4s-0.1-0.2-0.2-0.3s-0.2-0.2-0.3-0.2c-0.1-0.1-0.2-0.1-0.4-0.1
				c-0.1,0-0.3,0-0.4,0.1c-0.1,0-0.2,0.1-0.3,0.2s-0.1,0.2-0.2,0.3S293.6,93.4,293.6,93.5z"/>
			<path class="st4" d="M296.7,91.1c0-0.1,0-0.2,0.1-0.3c0.1-0.1,0.2-0.1,0.3-0.1c0.1,0,0.2,0,0.3,0.1s0.1,0.2,0.1,0.3
				c0,0.1,0,0.2-0.1,0.3s-0.2,0.1-0.3,0.1c-0.1,0-0.2,0-0.3-0.1C296.7,91.3,296.7,91.2,296.7,91.1z M296.8,92.1h0.5V95h-0.5V92.1z"
				/>
			<path class="st4" d="M298.2,92.1h0.5v0.4l0,0c0.1-0.2,0.2-0.3,0.4-0.4c0.2-0.1,0.4-0.1,0.6-0.1c0.1,0,0.3,0,0.4,0.1
				s0.2,0.1,0.3,0.2c0.1,0.1,0.2,0.2,0.2,0.3c0.1,0.1,0.1,0.3,0.1,0.5V95h-0.5v-1.7c0-0.1,0-0.2-0.1-0.3c0-0.1-0.1-0.2-0.1-0.2
				c-0.1-0.1-0.1-0.1-0.2-0.1s-0.2,0-0.2,0c-0.1,0-0.2,0-0.3,0.1c-0.1,0-0.2,0.1-0.3,0.2s-0.1,0.2-0.2,0.3c0,0.1-0.1,0.3-0.1,0.4V95
				h-0.5L298.2,92.1L298.2,92.1z"/>
			<path class="st4" d="M301.5,92.1h0.5v0.4l0,0c0,0,0-0.1,0.1-0.1c0.1-0.1,0.1-0.1,0.2-0.2s0.2-0.1,0.3-0.1c0.1,0,0.2-0.1,0.4-0.1
				c0.2,0,0.4,0,0.5,0.1s0.3,0.2,0.4,0.4c0.1-0.2,0.2-0.3,0.4-0.4c0.2-0.1,0.3-0.1,0.5-0.1s0.4,0,0.5,0.1s0.2,0.2,0.3,0.3
				s0.1,0.3,0.2,0.4s0,0.3,0,0.5V95h-0.5v-1.6c0-0.1,0-0.2,0-0.3c0-0.1,0-0.2-0.1-0.3c0-0.1-0.1-0.1-0.2-0.2c-0.1,0-0.2-0.1-0.3-0.1
				c-0.3,0-0.4,0.1-0.6,0.2c-0.1,0.2-0.2,0.4-0.2,0.6V95h-0.5v-1.5c0-0.1,0-0.3,0-0.4s0-0.2-0.1-0.3s-0.1-0.1-0.2-0.2
				c-0.1,0-0.2-0.1-0.3-0.1c-0.1,0-0.2,0-0.3,0.1s-0.2,0.1-0.2,0.2c-0.1,0.1-0.1,0.2-0.2,0.3c0,0.1-0.1,0.3-0.1,0.4V95h-0.5
				L301.5,92.1L301.5,92.1z"/>
			<path class="st4" d="M306.6,91.1c0-0.1,0-0.2,0.1-0.3c0.1-0.1,0.2-0.1,0.3-0.1c0.1,0,0.2,0,0.3,0.1s0.1,0.2,0.1,0.3
				c0,0.1,0,0.2-0.1,0.3s-0.2,0.1-0.3,0.1c-0.1,0-0.2,0-0.3-0.1C306.6,91.3,306.6,91.2,306.6,91.1z M306.7,92.1h0.5V95h-0.5V92.1z"
				/>
			<path class="st4" d="M309.6,92.6h-0.8v1.3c0,0.1,0,0.2,0,0.2c0,0.1,0,0.1,0,0.2s0.1,0.1,0.1,0.2c0.1,0,0.1,0.1,0.2,0.1
				s0.1,0,0.2,0s0.1,0,0.2-0.1V95c-0.1,0-0.1,0.1-0.2,0.1s-0.2,0-0.2,0c-0.2,0-0.4,0-0.5-0.1s-0.2-0.1-0.3-0.2
				c-0.1-0.1-0.1-0.2-0.1-0.3c0-0.1,0-0.2,0-0.3v-1.5h-0.6v-0.5h0.6v-0.8h0.5v0.8h0.8L309.6,92.6L309.6,92.6z"/>
			<path class="st4" d="M311.8,92.6H311v1.3c0,0.1,0,0.2,0,0.2c0,0.1,0,0.1,0,0.2s0.1,0.1,0.1,0.2c0.1,0,0.1,0.1,0.2,0.1
				s0.1,0,0.2,0s0.1,0,0.2-0.1V95c-0.1,0-0.1,0.1-0.2,0.1s-0.2,0-0.2,0c-0.2,0-0.4,0-0.5-0.1s-0.2-0.1-0.3-0.2
				c-0.1-0.1-0.1-0.2-0.1-0.3c0-0.1,0-0.2,0-0.3v-1.5h-0.6v-0.5h0.6v-0.8h0.5v0.8h0.8L311.8,92.6L311.8,92.6z"/>
			<path class="st4" d="M312.9,93.7c0,0.1,0,0.2,0.1,0.3c0.1,0.1,0.1,0.2,0.2,0.3c0.1,0.1,0.2,0.1,0.3,0.2s0.2,0.1,0.4,0.1
				c0.2,0,0.3,0,0.4-0.1s0.2-0.2,0.3-0.3l0.4,0.3c-0.3,0.4-0.7,0.6-1.3,0.6c-0.2,0-0.4,0-0.6-0.1s-0.3-0.2-0.5-0.3
				c-0.1-0.1-0.2-0.3-0.3-0.5c-0.1-0.2-0.1-0.4-0.1-0.6s0-0.4,0.1-0.6s0.2-0.3,0.3-0.5c0.1-0.1,0.3-0.2,0.5-0.3
				c0.2-0.1,0.4-0.1,0.6-0.1c0.3,0,0.5,0,0.6,0.1c0.2,0.1,0.3,0.2,0.4,0.3c0.1,0.1,0.2,0.3,0.2,0.5s0.1,0.4,0.1,0.5v0.2H312.9z
				 M314.6,93.3c0-0.1,0-0.2-0.1-0.3s-0.1-0.2-0.2-0.3c-0.1-0.1-0.2-0.1-0.3-0.2c-0.1,0-0.2-0.1-0.4-0.1c-0.1,0-0.3,0-0.4,0.1
				s-0.2,0.1-0.3,0.2s0.1,0.2,0.1,0.3s-0.1,0.2-0.1,0.3H314.6z"/>
			<path class="st4" d="M318.7,95h-0.5v-0.4l0,0c-0.1,0.2-0.2,0.3-0.4,0.4c-0.2,0.1-0.4,0.1-0.6,0.1s-0.4,0-0.6-0.1
				s-0.3-0.2-0.5-0.3c-0.1-0.1-0.2-0.3-0.3-0.5s-0.1-0.4-0.1-0.6s0-0.4,0.1-0.6s0.2-0.3,0.3-0.5c0.1-0.1,0.3-0.2,0.5-0.3
				c0.2-0.1,0.4-0.1,0.6-0.1s0.4,0,0.6,0.1s0.3,0.2,0.4,0.4l0,0v-2.1h0.5V95z M317.2,94.5c0.1,0,0.3,0,0.4-0.1s0.2-0.1,0.3-0.2
				s0.1-0.2,0.2-0.3s0.1-0.3,0.1-0.4s0-0.3-0.1-0.4s-0.1-0.2-0.2-0.3s-0.2-0.2-0.3-0.2c-0.1-0.1-0.2-0.1-0.4-0.1
				c-0.1,0-0.3,0-0.4,0.1c-0.1,0-0.2,0.1-0.3,0.2s-0.1,0.2-0.2,0.3s-0.1,0.3-0.1,0.4s0,0.3,0.1,0.4s0.1,0.2,0.2,0.3s0.2,0.2,0.3,0.2
				C317,94.5,317.1,94.5,317.2,94.5z"/>
			<path class="st4" d="M321.3,90.7h0.6V95h-0.6V90.7z"/>
			<path class="st4" d="M322.9,92.1h0.5v0.4l0,0c0.1-0.2,0.2-0.3,0.4-0.4c0.2-0.1,0.4-0.1,0.6-0.1c0.1,0,0.3,0,0.4,0.1
				s0.2,0.1,0.3,0.2c0.1,0.1,0.2,0.2,0.2,0.3c0.1,0.1,0.1,0.3,0.1,0.5V95h-0.5v-1.7c0-0.1,0-0.2-0.1-0.3c0-0.1-0.1-0.2-0.1-0.2
				c-0.1-0.1-0.1-0.1-0.2-0.1s-0.2,0-0.2,0c-0.1,0-0.2,0-0.3,0.1c-0.1,0-0.2,0.1-0.3,0.2s-0.1,0.2-0.2,0.3c0,0.1-0.1,0.3-0.1,0.4V95
				h-0.5L322.9,92.1L322.9,92.1z"/>
			<path class="st4" d="M325.9,92.1h0.6l0.9,2.2l0.8-2.2h0.6l-1.1,2.8H327L325.9,92.1z"/>
			<path class="st4" d="M329.6,93.7c0,0.1,0,0.2,0.1,0.3c0.1,0.1,0.1,0.2,0.2,0.3c0.1,0.1,0.2,0.1,0.3,0.2s0.2,0.1,0.4,0.1
				c0.2,0,0.3,0,0.4-0.1s0.2-0.2,0.3-0.3l0.4,0.3c-0.3,0.4-0.7,0.6-1.3,0.6c-0.2,0-0.4,0-0.6-0.1s-0.3-0.2-0.5-0.3
				c-0.1-0.1-0.2-0.3-0.3-0.5c-0.1-0.2-0.1-0.4-0.1-0.6s0-0.4,0.1-0.6s0.2-0.3,0.3-0.5c0.1-0.1,0.3-0.2,0.5-0.3
				c0.2-0.1,0.4-0.1,0.6-0.1c0.3,0,0.5,0,0.6,0.1c0.2,0.1,0.3,0.2,0.4,0.3c0.1,0.1,0.2,0.3,0.2,0.5s0.1,0.4,0.1,0.5v0.2H329.6z
				 M331.3,93.3c0-0.1,0-0.2-0.1-0.3s-0.1-0.2-0.2-0.3c-0.1-0.1-0.2-0.1-0.3-0.2c-0.1,0-0.2-0.1-0.4-0.1c-0.1,0-0.3,0-0.4,0.1
				s-0.2,0.1-0.3,0.2s-0.1,0.2-0.2,0.3c0,0.1-0.1,0.2-0.1,0.3H331.3z"/>
			<path class="st4" d="M334,92.8c-0.1-0.1-0.1-0.1-0.2-0.2s-0.2-0.1-0.3-0.1c-0.1,0-0.2,0-0.3,0.1c-0.1,0.1-0.1,0.1-0.1,0.2
				s0,0.2,0.1,0.2c0.1,0.1,0.1,0.1,0.2,0.1s0.2,0.1,0.2,0.1h0.2c0.1,0,0.2,0.1,0.3,0.1s0.2,0.1,0.3,0.2c0.1,0.1,0.1,0.1,0.2,0.2
				c0,0.1,0.1,0.2,0.1,0.3c0,0.2,0,0.3-0.1,0.4s-0.2,0.2-0.3,0.3c-0.1,0.1-0.2,0.1-0.4,0.2c-0.1,0-0.3,0-0.4,0c-0.2,0-0.4,0-0.6-0.1
				s-0.3-0.2-0.5-0.4l0.4-0.3c0.1,0.1,0.2,0.2,0.3,0.2c0.1,0.1,0.2,0.1,0.4,0.1c0.1,0,0.1,0,0.2,0s0.1,0,0.2-0.1
				c0.1,0,0.1-0.1,0.1-0.1s0.1-0.1,0.1-0.2s0-0.1-0.1-0.2c0-0.1-0.1-0.1-0.2-0.1s-0.1-0.1-0.2-0.1s-0.1,0-0.2,0s-0.2-0.1-0.3-0.1
				c-0.1,0-0.2-0.1-0.3-0.1c-0.1-0.1-0.1-0.1-0.2-0.2c0-0.1-0.1-0.2-0.1-0.3c0-0.1,0-0.3,0.1-0.4s0.1-0.2,0.2-0.3
				c0.1-0.1,0.2-0.1,0.3-0.2c0.1,0,0.3-0.1,0.4-0.1c0.2,0,0.4,0,0.6,0.1s0.3,0.2,0.4,0.4L334,92.8z"/>
			<path class="st4" d="M336.7,92.6H336v1.3c0,0.1,0,0.2,0,0.2c0,0.1,0,0.1,0,0.2s0.1,0.1,0.1,0.2c0.1,0,0.1,0.1,0.2,0.1
				s0.1,0,0.2,0s0.1,0,0.2-0.1V95c-0.1,0-0.1,0.1-0.2,0.1s-0.2,0-0.2,0c-0.2,0-0.4,0-0.5-0.1s-0.2-0.1-0.3-0.2
				c-0.1-0.1-0.1-0.2-0.1-0.3c0-0.1,0-0.2,0-0.3v-1.5h-0.6v-0.5h0.6v-0.8h0.5v0.8h0.8V92.6z"/>
			<path class="st4" d="M337.4,92.1h0.5v0.4l0,0c0,0,0-0.1,0.1-0.1c0.1-0.1,0.1-0.1,0.2-0.2s0.2-0.1,0.3-0.1c0.1,0,0.2-0.1,0.4-0.1
				c0.2,0,0.4,0,0.5,0.1s0.3,0.2,0.4,0.4c0.1-0.2,0.2-0.3,0.4-0.4c0.2-0.1,0.3-0.1,0.5-0.1s0.4,0,0.5,0.1s0.2,0.2,0.3,0.3
				s0.1,0.3,0.2,0.4s0,0.3,0,0.5V95h-0.5v-1.6c0-0.1,0-0.2,0-0.3c0-0.1,0-0.2-0.1-0.3c0-0.1-0.1-0.1-0.2-0.2c-0.1,0-0.2-0.1-0.3-0.1
				c-0.3,0-0.4,0.1-0.6,0.2c-0.1,0.2-0.2,0.4-0.2,0.6V95h-0.5v-1.5c0-0.1,0-0.3,0-0.4s0-0.2-0.1-0.3s-0.1-0.1-0.2-0.2
				c-0.1,0-0.2-0.1-0.3-0.1c-0.1,0-0.2,0-0.3,0.1s-0.2,0.1-0.2,0.2c-0.1,0.1-0.1,0.2-0.2,0.3c0,0.1-0.1,0.3-0.1,0.4V95h-0.5
				L337.4,92.1L337.4,92.1z"/>
			<path class="st4" d="M342.9,93.7c0,0.1,0,0.2,0.1,0.3c0.1,0.1,0.1,0.2,0.2,0.3c0.1,0.1,0.2,0.1,0.3,0.2s0.2,0.1,0.4,0.1
				c0.2,0,0.3,0,0.4-0.1s0.2-0.2,0.3-0.3l0.4,0.3c-0.3,0.4-0.7,0.6-1.3,0.6c-0.2,0-0.4,0-0.6-0.1s-0.3-0.2-0.5-0.3
				c-0.1-0.1-0.2-0.3-0.3-0.5c-0.1-0.2-0.1-0.4-0.1-0.6s0-0.4,0.1-0.6s0.2-0.3,0.3-0.5c0.1-0.1,0.3-0.2,0.5-0.3
				c0.2-0.1,0.4-0.1,0.6-0.1c0.3,0,0.5,0,0.6,0.1c0.2,0.1,0.3,0.2,0.4,0.3c0.1,0.1,0.2,0.3,0.2,0.5s0.1,0.4,0.1,0.5v0.2H342.9z
				 M344.6,93.3c0-0.1,0-0.2-0.1-0.3s-0.1-0.2-0.2-0.3c-0.1-0.1-0.2-0.1-0.3-0.2c-0.1,0-0.2-0.1-0.4-0.1c-0.1,0-0.3,0-0.4,0.1
				s-0.2,0.1-0.3,0.2s0.1,0.2,0.1,0.3s-0.1,0.2-0.1,0.3H344.6z"/>
			<path class="st4" d="M345.9,92.1h0.5v0.4l0,0c0.1-0.2,0.2-0.3,0.4-0.4c0.2-0.1,0.4-0.1,0.6-0.1c0.1,0,0.3,0,0.4,0.1
				s0.2,0.1,0.3,0.2c0.1,0.1,0.2,0.2,0.2,0.3c0.1,0.1,0.1,0.3,0.1,0.5V95h-0.5v-1.7c0-0.1,0-0.2-0.1-0.3c0-0.1-0.1-0.2-0.1-0.2
				c-0.1-0.1-0.1-0.1-0.2-0.1s-0.2,0-0.2,0c-0.1,0-0.2,0-0.3,0.1c-0.1,0-0.2,0.1-0.3,0.2s-0.1,0.2-0.2,0.3c0,0.1-0.1,0.3-0.1,0.4V95
				h-0.5L345.9,92.1L345.9,92.1z"/>
			<path class="st4" d="M350.7,92.6H350v1.3c0,0.1,0,0.2,0,0.2c0,0.1,0,0.1,0,0.2s0.1,0.1,0.1,0.2c0.1,0,0.1,0.1,0.2,0.1
				s0.1,0,0.2,0s0.1,0,0.2-0.1V95c-0.1,0-0.1,0.1-0.2,0.1s-0.2,0-0.2,0c-0.2,0-0.4,0-0.5-0.1s-0.2-0.1-0.3-0.2
				c-0.1-0.1-0.1-0.2-0.1-0.3c0-0.1,0-0.2,0-0.3v-1.5h-0.6v-0.5h0.6v-0.8h0.5v0.8h0.8V92.6z"/>
		</g>
	</g>
	<g>
		<path class="st5" d="M41.9,120h2.5c0.3,0,0.6,0,0.9,0.1c0.3,0.1,0.5,0.2,0.7,0.3c0.2,0.1,0.3,0.3,0.5,0.5c0.1,0.2,0.2,0.5,0.2,0.8
			c0,0.4-0.1,0.7-0.3,1s-0.5,0.4-0.9,0.6l0,0c0.2,0,0.4,0.1,0.6,0.2c0.2,0.1,0.3,0.2,0.5,0.4s0.2,0.3,0.3,0.5s0.1,0.4,0.1,0.7
			c0,0.3-0.1,0.6-0.2,0.8c-0.1,0.2-0.3,0.4-0.5,0.6s-0.5,0.3-0.8,0.4s-0.6,0.1-1,0.1h-2.4v-7H41.9z M42.9,123h1.3
			c0.2,0,0.4,0,0.5-0.1c0.2,0,0.3-0.1,0.4-0.2c0.1-0.1,0.2-0.2,0.3-0.3c0.1-0.1,0.1-0.3,0.1-0.5c0-0.3-0.1-0.5-0.3-0.7
			s-0.5-0.3-0.9-0.3h-1.5v2.1H42.9z M42.9,126.3h1.4c0.1,0,0.3,0,0.5,0s0.3-0.1,0.5-0.2s0.3-0.2,0.4-0.4c0.1-0.2,0.2-0.4,0.2-0.6
			c0-0.4-0.1-0.7-0.4-0.9c-0.3-0.2-0.6-0.3-1.1-0.3H43v2.4H42.9z"/>
		<path class="st5" d="M48.7,125.1c0,0.2,0,0.4,0.1,0.6s0.2,0.3,0.4,0.4s0.3,0.2,0.5,0.3c0.2,0.1,0.4,0.1,0.6,0.1
			c0.3,0,0.5-0.1,0.7-0.2s0.4-0.3,0.6-0.5l0.7,0.5c-0.5,0.6-1.2,1-2.1,1c-0.4,0-0.7-0.1-1-0.2s-0.6-0.3-0.8-0.5s-0.4-0.5-0.5-0.8
			s-0.2-0.6-0.2-1s0.1-0.7,0.2-1s0.3-0.6,0.5-0.8c0.2-0.2,0.5-0.4,0.8-0.5s0.6-0.2,1-0.2s0.8,0.1,1.1,0.2s0.5,0.3,0.7,0.6
			s0.3,0.5,0.4,0.8c0.1,0.3,0.1,0.6,0.1,0.9v0.3C52.5,125.1,48.7,125.1,48.7,125.1z M51.5,124.4c0-0.2,0-0.4-0.1-0.6
			s-0.1-0.3-0.3-0.4c-0.1-0.1-0.3-0.2-0.4-0.3c-0.2-0.1-0.4-0.1-0.6-0.1c-0.2,0-0.4,0-0.6,0.1c-0.2,0.1-0.3,0.2-0.5,0.3
			s-0.2,0.3-0.3,0.4c-0.1,0.2-0.1,0.3-0.1,0.5L51.5,124.4L51.5,124.4z"/>
		<path class="st5" d="M56.1,123.2h-1.3v2.1c0,0.1,0,0.3,0,0.4s0,0.2,0.1,0.4c0,0.1,0.1,0.2,0.2,0.2s0.2,0.1,0.4,0.1
			c0.1,0,0.2,0,0.3,0s0.2-0.1,0.3-0.1v0.8c-0.1,0.1-0.2,0.1-0.4,0.1s-0.3,0-0.4,0c-0.3,0-0.6,0-0.8-0.1s-0.3-0.2-0.4-0.4
			s-0.1-0.3-0.2-0.5s0-0.4,0-0.6v-2.5h-1v-0.8h1V121h0.9v1.3h1.3C56.1,122.3,56.1,123.2,56.1,123.2z"/>
		<path class="st5" d="M56.7,122.4h1l1.1,3.5l0,0l1.1-3.5h1l1.2,3.5l0,0l1-3.5h1l-1.5,4.7h-0.9l-1.3-3.5l0,0l-1.1,3.5h-1L56.7,122.4
			z"/>
		<path class="st5" d="M65.5,125.1c0,0.2,0,0.4,0.1,0.6s0.2,0.3,0.4,0.4s0.3,0.2,0.5,0.3c0.2,0.1,0.4,0.1,0.6,0.1
			c0.3,0,0.5-0.1,0.7-0.2s0.4-0.3,0.6-0.5l0.7,0.5c-0.5,0.6-1.2,1-2.1,1c-0.4,0-0.7-0.1-1-0.2s-0.6-0.3-0.8-0.5
			c-0.2-0.2-0.4-0.5-0.5-0.8s-0.2-0.6-0.2-1s0.1-0.7,0.2-1s0.3-0.6,0.5-0.8c0.2-0.2,0.5-0.4,0.8-0.5s0.6-0.2,1-0.2s0.8,0.1,1.1,0.2
			c0.3,0.1,0.5,0.3,0.7,0.6s0.3,0.5,0.4,0.8s0.1,0.6,0.1,0.9v0.3C69.3,125.1,65.5,125.1,65.5,125.1z M68.3,124.4
			c0-0.2,0-0.4-0.1-0.6s-0.1-0.3-0.3-0.4c-0.1-0.1-0.3-0.2-0.4-0.3c-0.2-0.1-0.4-0.1-0.6-0.1s-0.4,0-0.6,0.1s-0.3,0.2-0.5,0.3
			s-0.2,0.3-0.3,0.4c-0.1,0.2-0.1,0.3-0.1,0.5L68.3,124.4L68.3,124.4z"/>
		<path class="st5" d="M71.1,125.1c0,0.2,0,0.4,0.1,0.6s0.2,0.3,0.4,0.4s0.3,0.2,0.5,0.3c0.2,0.1,0.4,0.1,0.6,0.1
			c0.3,0,0.5-0.1,0.7-0.2s0.4-0.3,0.6-0.5l0.7,0.5c-0.5,0.6-1.2,1-2.1,1c-0.4,0-0.7-0.1-1-0.2s-0.6-0.3-0.8-0.5
			c-0.2-0.2-0.4-0.5-0.5-0.8s-0.2-0.6-0.2-1s0.1-0.7,0.2-1s0.3-0.6,0.5-0.8c0.2-0.2,0.5-0.4,0.8-0.5s0.6-0.2,1-0.2s0.8,0.1,1.1,0.2
			c0.3,0.1,0.5,0.3,0.7,0.6s0.3,0.5,0.4,0.8s0.1,0.6,0.1,0.9v0.3C74.9,125.1,71.1,125.1,71.1,125.1z M73.9,124.4
			c0-0.2,0-0.4-0.1-0.6s-0.1-0.3-0.3-0.4c-0.1-0.1-0.3-0.2-0.4-0.3c-0.2-0.1-0.4-0.1-0.6-0.1s-0.4,0-0.6,0.1s-0.3,0.2-0.5,0.3
			s-0.2,0.3-0.3,0.4c-0.1,0.2-0.1,0.3-0.1,0.5L73.9,124.4L73.9,124.4z"/>
		<path class="st5" d="M75.9,122.4h0.9v0.7l0,0c0.1-0.3,0.3-0.5,0.6-0.6c0.3-0.2,0.6-0.2,1-0.2c0.2,0,0.4,0,0.7,0.1
			c0.2,0.1,0.4,0.2,0.5,0.3c0.2,0.1,0.3,0.3,0.4,0.6c0.1,0.2,0.1,0.5,0.1,0.8v3h-0.9v-2.8c0-0.2,0-0.4-0.1-0.6s-0.1-0.3-0.2-0.4
			s-0.2-0.2-0.3-0.2c-0.1,0-0.3-0.1-0.4-0.1c-0.2,0-0.4,0-0.5,0.1s-0.3,0.2-0.4,0.3s-0.2,0.3-0.3,0.5c-0.1,0.2-0.1,0.4-0.1,0.7v2.4
			H76L75.9,122.4L75.9,122.4z"/>
		<path class="st5" d="M86.3,121.1l-1.3,1.2l-0.6-0.7l2-1.6h0.9v7.1h-1V121.1z"/>
		<path class="st5" d="M95.2,123.2h-1.3v2.1c0,0.1,0,0.3,0,0.4s0,0.2,0.1,0.4c0,0.1,0.1,0.2,0.2,0.2s0.2,0.1,0.4,0.1
			c0.1,0,0.2,0,0.3,0c0.1,0,0.2-0.1,0.3-0.1v0.8c-0.1,0.1-0.2,0.1-0.4,0.1s-0.3,0-0.4,0c-0.3,0-0.6,0-0.8-0.1
			c-0.2-0.1-0.3-0.2-0.4-0.4s-0.1-0.3-0.2-0.5s0-0.4,0-0.6v-2.5h-1v-0.8h1V121h0.9v1.3h1.3V123.2z"/>
		<path class="st5" d="M96.1,124.7c0-0.3,0.1-0.7,0.2-1s0.3-0.6,0.5-0.8s0.5-0.4,0.8-0.5s0.6-0.2,1-0.2s0.7,0.1,1,0.2
			s0.6,0.3,0.8,0.5s0.4,0.5,0.5,0.8s0.2,0.6,0.2,1s-0.1,0.7-0.2,1s-0.3,0.6-0.5,0.8c-0.2,0.2-0.5,0.4-0.8,0.5s-0.6,0.2-1,0.2
			s-0.7-0.1-1-0.2s-0.6-0.3-0.8-0.5c-0.2-0.2-0.4-0.5-0.5-0.8C96.2,125.4,96.1,125.1,96.1,124.7z M97.1,124.7c0,0.2,0,0.5,0.1,0.7
			s0.2,0.4,0.3,0.5c0.1,0.1,0.3,0.3,0.5,0.3c0.2,0.1,0.4,0.1,0.6,0.1s0.5,0,0.7-0.1s0.4-0.2,0.5-0.3c0.1-0.1,0.2-0.3,0.3-0.5
			c0.1-0.2,0.1-0.4,0.1-0.7c0-0.2,0-0.5-0.1-0.7s-0.2-0.4-0.3-0.5c-0.1-0.1-0.3-0.3-0.5-0.3s-0.4-0.1-0.7-0.1c-0.2,0-0.5,0-0.6,0.1
			s-0.4,0.2-0.5,0.3c-0.1,0.1-0.2,0.3-0.3,0.5C97.1,124.3,97.1,124.5,97.1,124.7z"/>
		<path class="st5" d="M104.8,126.1l2.8-2.8c0.1-0.1,0.2-0.2,0.3-0.3s0.2-0.2,0.2-0.3c0.1-0.1,0.1-0.2,0.2-0.4
			c0-0.1,0.1-0.3,0.1-0.4c0-0.2,0-0.3-0.1-0.5c-0.1-0.1-0.2-0.3-0.3-0.4c-0.1-0.1-0.2-0.2-0.4-0.2s-0.3-0.1-0.5-0.1
			c-0.3,0-0.6,0.1-0.9,0.3s-0.4,0.5-0.4,0.8l-1-0.1c0-0.3,0.1-0.6,0.3-0.8s0.3-0.4,0.5-0.6s0.4-0.3,0.7-0.3c0.3-0.1,0.5-0.1,0.9-0.1
			s0.6,0,0.9,0.1s0.5,0.2,0.7,0.4c0.2,0.2,0.4,0.4,0.5,0.6s0.2,0.5,0.2,0.9c0,0.2,0,0.5-0.1,0.7s-0.2,0.4-0.3,0.6
			c-0.1,0.2-0.2,0.3-0.4,0.5s-0.3,0.3-0.5,0.5l-2.3,2.2h3.6v0.8h-4.6L104.8,126.1L104.8,126.1z"/>
		<path class="st5" d="M113.3,125.6h-3v-1l2.8-4.5h1.2v4.7h1v0.8h-1v1.6h-1V125.6z M113.3,121.2L113.3,121.2l-2.2,3.5h2.2V121.2z"/>
		<path class="st5" d="M118.9,122.4h0.8v0.7l0,0c0-0.1,0.1-0.1,0.2-0.2s0.2-0.2,0.3-0.3c0.1-0.1,0.3-0.2,0.5-0.2
			c0.2-0.1,0.4-0.1,0.6-0.1c0.4,0,0.7,0.1,0.9,0.2c0.2,0.1,0.4,0.4,0.6,0.7c0.2-0.3,0.4-0.5,0.7-0.7c0.3-0.1,0.6-0.2,0.8-0.2
			c0.4,0,0.7,0.1,0.9,0.2c0.2,0.1,0.4,0.3,0.5,0.5s0.2,0.4,0.3,0.7c0.1,0.2,0.1,0.5,0.1,0.8v2.8h-0.9v-2.6c0-0.2,0-0.4,0-0.5
			c0-0.2-0.1-0.3-0.1-0.4c-0.1-0.1-0.2-0.2-0.3-0.3c-0.1-0.1-0.3-0.1-0.5-0.1c-0.4,0-0.7,0.1-0.9,0.4s-0.3,0.6-0.3,1v2.6h-0.9v-2.5
			c0-0.2,0-0.4,0-0.6s-0.1-0.3-0.1-0.5c-0.1-0.1-0.2-0.2-0.3-0.3s-0.3-0.1-0.5-0.1s-0.3,0-0.5,0.1c-0.1,0.1-0.3,0.2-0.4,0.3
			c-0.1,0.1-0.2,0.3-0.3,0.5c-0.1,0.2-0.1,0.4-0.1,0.7v2.5h-0.9v-5.1H118.9z"/>
		<path class="st5" d="M127.2,124.7c0-0.3,0.1-0.7,0.2-1s0.3-0.6,0.5-0.8s0.5-0.4,0.8-0.5s0.6-0.2,1-0.2s0.7,0.1,1,0.2
			s0.6,0.3,0.8,0.5s0.4,0.5,0.5,0.8s0.2,0.6,0.2,1s-0.1,0.7-0.2,1s-0.3,0.6-0.5,0.8c-0.2,0.2-0.5,0.4-0.8,0.5s-0.6,0.2-1,0.2
			s-0.7-0.1-1-0.2s-0.6-0.3-0.8-0.5s-0.4-0.5-0.5-0.8C127.3,125.4,127.2,125.1,127.2,124.7z M128.2,124.7c0,0.2,0,0.5,0.1,0.7
			s0.2,0.4,0.3,0.5s0.3,0.3,0.5,0.3c0.2,0.1,0.4,0.1,0.6,0.1c0.2,0,0.5,0,0.7-0.1s0.4-0.2,0.5-0.3c0.1-0.1,0.2-0.3,0.3-0.5
			s0.1-0.4,0.1-0.7c0-0.2,0-0.5-0.1-0.7s-0.2-0.4-0.3-0.5s-0.3-0.3-0.5-0.3s-0.4-0.1-0.7-0.1c-0.2,0-0.5,0-0.6,0.1s-0.4,0.2-0.5,0.3
			c-0.1,0.1-0.2,0.3-0.3,0.5C128.2,124.3,128.2,124.5,128.2,124.7z"/>
		<path class="st5" d="M133.4,122.4h0.9v0.7l0,0c0.1-0.3,0.3-0.5,0.6-0.6c0.3-0.2,0.6-0.2,1-0.2c0.2,0,0.4,0,0.7,0.1
			c0.2,0.1,0.4,0.2,0.5,0.3c0.2,0.1,0.3,0.3,0.4,0.6c0.1,0.2,0.1,0.5,0.1,0.8v3h-0.9v-2.8c0-0.2,0-0.4-0.1-0.6s-0.1-0.3-0.2-0.4
			c-0.1-0.1-0.2-0.2-0.3-0.2s-0.3-0.1-0.4-0.1c-0.2,0-0.4,0-0.5,0.1s-0.3,0.2-0.4,0.3s-0.2,0.3-0.3,0.5s-0.1,0.4-0.1,0.7v2.4h-0.9
			v-4.6H133.4z"/>
		<path class="st5" d="M141.5,123.2h-1.3v2.1c0,0.1,0,0.3,0,0.4s0,0.2,0.1,0.4c0,0.1,0.1,0.2,0.2,0.2s0.2,0.1,0.4,0.1
			c0.1,0,0.2,0,0.3,0s0.2-0.1,0.3-0.1v0.8c-0.1,0.1-0.2,0.1-0.4,0.1s-0.3,0-0.4,0c-0.3,0-0.6,0-0.8-0.1s-0.3-0.2-0.4-0.4
			s-0.1-0.3-0.2-0.5s0-0.4,0-0.6v-2.5h-1v-0.8h1V121h0.9v1.3h1.3L141.5,123.2L141.5,123.2z"/>
		<path class="st5" d="M142.7,119.6h0.9v3.6l0,0c0.1-0.3,0.3-0.5,0.6-0.6c0.3-0.2,0.6-0.2,1-0.2c0.2,0,0.4,0,0.7,0.1
			c0.2,0.1,0.4,0.2,0.5,0.3c0.2,0.1,0.3,0.3,0.4,0.6c0.1,0.2,0.1,0.5,0.1,0.8v3H146v-2.8c0-0.2,0-0.4-0.1-0.6s-0.1-0.3-0.2-0.4
			c-0.1-0.1-0.2-0.2-0.3-0.2s-0.3-0.1-0.4-0.1c-0.2,0-0.4,0-0.5,0.1s-0.3,0.2-0.4,0.3s-0.2,0.3-0.3,0.5s-0.1,0.4-0.1,0.7v2.4h-0.9
			v-7.5H142.7z"/>
		<path class="st5" d="M150.8,123.6c-0.1-0.1-0.2-0.2-0.4-0.3c-0.2-0.1-0.3-0.1-0.6-0.1c-0.2,0-0.4,0-0.6,0.1
			c-0.2,0.1-0.2,0.2-0.2,0.4c0,0.1,0,0.3,0.1,0.3s0.2,0.2,0.3,0.2c0.1,0.1,0.3,0.1,0.4,0.1c0.1,0,0.3,0,0.4,0.1
			c0.2,0,0.4,0.1,0.5,0.2c0.2,0.1,0.3,0.2,0.4,0.3c0.1,0.1,0.2,0.2,0.3,0.4c0.1,0.2,0.1,0.3,0.1,0.6c0,0.3-0.1,0.5-0.2,0.7
			c-0.1,0.2-0.3,0.3-0.4,0.5c-0.2,0.1-0.4,0.2-0.6,0.3c-0.2,0.1-0.5,0.1-0.7,0.1c-0.4,0-0.7-0.1-1-0.2s-0.6-0.3-0.8-0.7l0.7-0.6
			c0.1,0.1,0.3,0.3,0.5,0.4s0.4,0.2,0.7,0.2c0.1,0,0.2,0,0.3,0s0.2-0.1,0.3-0.1s0.2-0.1,0.2-0.2c0.1-0.1,0.1-0.2,0.1-0.3
			c0-0.1,0-0.2-0.1-0.3c-0.1-0.1-0.2-0.2-0.3-0.2s-0.2-0.1-0.4-0.1c-0.1,0-0.2-0.1-0.3-0.1c-0.2,0-0.4-0.1-0.5-0.2
			c-0.2-0.1-0.3-0.1-0.5-0.2c-0.1-0.1-0.2-0.2-0.3-0.4s-0.1-0.3-0.1-0.6c0-0.2,0.1-0.5,0.2-0.6s0.2-0.3,0.4-0.5s0.4-0.2,0.6-0.3
			s0.4-0.1,0.7-0.1s0.6,0.1,0.9,0.2c0.3,0.1,0.5,0.3,0.7,0.6L150.8,123.6z"/>
		<path class="st5" d="M153.4,127.2c-0.2,0-0.3-0.1-0.5-0.2c-0.1-0.1-0.2-0.3-0.2-0.5s0.1-0.3,0.2-0.5s0.3-0.2,0.5-0.2
			s0.3,0.1,0.5,0.2c0.1,0.1,0.2,0.3,0.2,0.5s-0.1,0.3-0.2,0.5C153.7,127.1,153.6,127.2,153.4,127.2z"/>
	</g>
	
		<linearGradient id="SVGID_7_" gradientUnits="userSpaceOnUse" x1="44.3" y1="120.9" x2="128.5" y2="120.9" gradientTransform="matrix(1 0 0 -1 0 348)">
		<stop  offset="0" style="stop-color:#68E4F1"/>
		<stop  offset="1" style="stop-color:#66A6FF"/>
	</linearGradient>
	<path class="st6" d="M115.2,240.3H57.5c-7.3,0-13.2-6-13.2-13.2l0,0c0-7.3,6-13.2,13.2-13.2h57.8c7.3,0,13.2,6,13.2,13.2l0,0
		C128.5,234.4,122.5,240.3,115.2,240.3z"/>
	<g>
		<g>
			<path class="st4" d="M45.7,158.3c0.1,0.3,0.3,0.6,0.5,0.8s0.5,0.2,0.8,0.2c0.2,0,0.4,0,0.5-0.1c0.2-0.1,0.3-0.1,0.4-0.3
				s0.2-0.2,0.3-0.4s0.1-0.3,0.1-0.5c0-0.3-0.1-0.5-0.2-0.7s-0.3-0.3-0.5-0.4c-0.2-0.1-0.4-0.1-0.6-0.2s-0.5,0-0.7,0v-0.8
				c0.4,0,0.7,0,0.9-0.1s0.4-0.1,0.5-0.2c0.1-0.1,0.2-0.2,0.3-0.3s0.1-0.3,0.1-0.5c0-0.4-0.1-0.7-0.3-0.9s-0.5-0.3-0.9-0.3
				c-0.3,0-0.5,0.1-0.7,0.2s-0.4,0.3-0.5,0.6l-1-0.3c0.2-0.5,0.5-0.8,0.9-1s0.8-0.3,1.3-0.3c0.3,0,0.6,0,0.8,0.1
				c0.3,0.1,0.5,0.2,0.7,0.4s0.4,0.4,0.5,0.6c0.1,0.2,0.2,0.5,0.2,0.9s-0.1,0.7-0.3,1s-0.5,0.5-0.9,0.6l0,0c0.2,0,0.4,0.1,0.6,0.2
				c0.2,0.1,0.3,0.2,0.4,0.4c0.1,0.2,0.2,0.3,0.3,0.5s0.1,0.4,0.1,0.6c0,0.3-0.1,0.6-0.2,0.9s-0.3,0.5-0.5,0.6s-0.5,0.3-0.8,0.4
				c-0.3,0.1-0.6,0.1-0.9,0.1c-0.5,0-1-0.1-1.4-0.4c-0.4-0.2-0.7-0.6-0.9-1.2L45.7,158.3z"/>
			<path class="st4" d="M53.4,153h1.4l2.2,5.4l0,0l2.2-5.4h1.4v7.1h-1v-5.8l0,0l-2.4,5.8h-0.6l-2.4-5.8l0,0v5.8h-1V153H53.4z"/>
			<path class="st4" d="M62.1,157.7c0-0.3,0.1-0.7,0.2-1c0.1-0.3,0.3-0.6,0.5-0.8s0.5-0.4,0.8-0.5s0.6-0.2,1-0.2s0.7,0.1,1,0.2
				s0.6,0.3,0.8,0.5s0.4,0.5,0.5,0.8s0.2,0.6,0.2,1s-0.1,0.7-0.2,1s-0.3,0.6-0.5,0.8s-0.5,0.4-0.8,0.5s-0.6,0.2-1,0.2
				s-0.7-0.1-1-0.2c-0.3-0.1-0.6-0.3-0.8-0.5s-0.4-0.5-0.5-0.8S62.1,158,62.1,157.7z M63.1,157.7c0,0.2,0,0.5,0.1,0.7
				s0.2,0.4,0.3,0.5s0.3,0.3,0.5,0.3c0.2,0.1,0.4,0.1,0.6,0.1c0.2,0,0.5,0,0.7-0.1s0.4-0.2,0.5-0.3s0.2-0.3,0.3-0.5s0.1-0.4,0.1-0.7
				s0-0.5-0.1-0.7s-0.2-0.4-0.3-0.5c-0.1-0.1-0.3-0.3-0.5-0.3c-0.2-0.1-0.4-0.1-0.7-0.1c-0.2,0-0.5,0-0.6,0.1
				c-0.2,0.1-0.4,0.2-0.5,0.3s-0.2,0.3-0.3,0.5C63.1,157.2,63.1,157.4,63.1,157.7z"/>
			<path class="st4" d="M68.3,155.3h0.9v0.7l0,0c0.1-0.3,0.3-0.5,0.6-0.6c0.3-0.2,0.6-0.2,1-0.2c0.2,0,0.4,0,0.7,0.1
				c0.2,0.1,0.4,0.2,0.5,0.3c0.2,0.1,0.3,0.3,0.4,0.6c0.1,0.2,0.1,0.5,0.1,0.8v3h-0.9v-2.8c0-0.2,0-0.4-0.1-0.6
				c-0.1-0.2-0.1-0.3-0.2-0.4c-0.1-0.1-0.2-0.2-0.3-0.2s-0.3-0.1-0.4-0.1c-0.2,0-0.4,0-0.5,0.1c-0.2,0.1-0.3,0.2-0.4,0.3
				s-0.2,0.3-0.3,0.5s-0.1,0.4-0.1,0.7v2.4h-0.9L68.3,155.3L68.3,155.3z"/>
			<path class="st4" d="M76.4,156.1h-1.3v2.1c0,0.1,0,0.3,0,0.4c0,0.1,0,0.2,0.1,0.3c0,0.1,0.1,0.2,0.2,0.2s0.2,0.1,0.4,0.1
				c0.1,0,0.2,0,0.3,0c0.1,0,0.2-0.1,0.3-0.1v0.8c-0.1,0.1-0.2,0.1-0.4,0.1s-0.3,0-0.4,0c-0.3,0-0.6,0-0.8-0.1
				c-0.2-0.1-0.3-0.2-0.4-0.4s-0.1-0.3-0.2-0.5c0-0.2,0-0.4,0-0.6v-2.5h-1v-0.8h1V154h0.9v1.3h1.3V156.1z"/>
			<path class="st4" d="M77.5,152.5h0.9v3.6l0,0c0.1-0.3,0.3-0.5,0.6-0.6c0.3-0.2,0.6-0.2,1-0.2c0.2,0,0.4,0,0.7,0.1
				c0.2,0.1,0.4,0.2,0.5,0.3c0.2,0.1,0.3,0.3,0.4,0.6c0.1,0.2,0.1,0.5,0.1,0.8v3h-0.9v-2.8c0-0.2,0-0.4-0.1-0.6
				c-0.1-0.2-0.1-0.3-0.2-0.4c-0.1-0.1-0.2-0.2-0.3-0.2s-0.3-0.1-0.4-0.1c-0.2,0-0.4,0-0.5,0.1c-0.2,0.1-0.3,0.2-0.4,0.3
				s-0.2,0.3-0.3,0.5s-0.1,0.4-0.1,0.7v2.4h-0.9L77.5,152.5L77.5,152.5z"/>
			<path class="st4" d="M85.6,156.5c-0.1-0.1-0.2-0.2-0.4-0.3c-0.2-0.1-0.3-0.1-0.6-0.1c-0.2,0-0.4,0-0.6,0.1s-0.2,0.2-0.2,0.4
				c0,0.1,0,0.3,0.1,0.3c0.1,0.1,0.2,0.2,0.3,0.2c0.1,0.1,0.3,0.1,0.4,0.1s0.3,0,0.4,0.1c0.2,0,0.4,0.1,0.5,0.2s0.3,0.2,0.4,0.3
				s0.2,0.2,0.3,0.4c0.1,0.2,0.1,0.3,0.1,0.6s-0.1,0.5-0.2,0.7s-0.3,0.3-0.4,0.5c-0.2,0.1-0.4,0.2-0.6,0.3s-0.5,0.1-0.7,0.1
				c-0.4,0-0.7-0.1-1-0.2c-0.3-0.1-0.6-0.3-0.8-0.7l0.7-0.6c0.1,0.1,0.3,0.3,0.5,0.4c0.2,0.1,0.4,0.2,0.7,0.2c0.1,0,0.2,0,0.3,0
				c0.1,0,0.2-0.1,0.3-0.1c0.1,0,0.2-0.1,0.2-0.2c0.1-0.1,0.1-0.2,0.1-0.3s0-0.2-0.1-0.3s-0.2-0.2-0.3-0.2c-0.1,0-0.2-0.1-0.4-0.1
				c-0.1,0-0.2-0.1-0.3-0.1c-0.2,0-0.4-0.1-0.5-0.2c-0.2-0.1-0.3-0.1-0.5-0.2s-0.2-0.2-0.3-0.4s-0.1-0.3-0.1-0.6
				c0-0.2,0.1-0.5,0.2-0.6s0.2-0.3,0.4-0.5s0.4-0.2,0.6-0.3s0.4-0.1,0.7-0.1c0.3,0,0.6,0.1,0.9,0.2c0.3,0.1,0.5,0.3,0.7,0.6
				L85.6,156.5z"/>
		</g>
	</g>
	<g>
		<g>
			<path class="st2" d="M70.6,224.5c-0.2-0.3-0.5-0.5-0.8-0.6s-0.6-0.2-1-0.2s-0.8,0.1-1.1,0.2c-0.3,0.1-0.6,0.4-0.8,0.6
				c-0.2,0.3-0.4,0.6-0.5,0.9c-0.1,0.4-0.2,0.7-0.2,1.1c0,0.4,0.1,0.7,0.2,1.1c0.1,0.3,0.3,0.6,0.5,0.9c0.2,0.3,0.5,0.5,0.8,0.6
				s0.7,0.2,1.1,0.2s0.8-0.1,1.1-0.2c0.3-0.2,0.6-0.4,0.8-0.7l0.8,0.6c-0.1,0.1-0.1,0.2-0.3,0.3c-0.1,0.1-0.3,0.3-0.5,0.4
				c-0.2,0.1-0.5,0.3-0.8,0.4c-0.3,0.1-0.7,0.2-1.1,0.2c-0.6,0-1.1-0.1-1.5-0.3c-0.5-0.2-0.8-0.5-1.1-0.8c-0.3-0.3-0.6-0.7-0.7-1.2
				c-0.2-0.4-0.2-0.9-0.2-1.3c0-0.5,0.1-1.1,0.3-1.5c0.2-0.5,0.4-0.9,0.8-1.2s0.7-0.6,1.2-0.8s1-0.3,1.5-0.3s0.9,0.1,1.4,0.3
				s0.8,0.5,1.1,0.8L70.6,224.5z"/>
			<path class="st2" d="M72.2,227.7c0-0.3,0.1-0.7,0.2-1s0.3-0.6,0.5-0.8s0.5-0.4,0.8-0.5s0.6-0.2,1-0.2s0.7,0.1,1,0.2
				s0.6,0.3,0.8,0.5s0.4,0.5,0.5,0.8s0.2,0.6,0.2,1s-0.1,0.7-0.2,1s-0.3,0.6-0.5,0.8s-0.5,0.4-0.8,0.5s-0.6,0.2-1,0.2
				s-0.7-0.1-1-0.2c-0.3-0.1-0.6-0.3-0.8-0.5c-0.2-0.2-0.4-0.5-0.5-0.8C72.3,228.4,72.2,228,72.2,227.7z M73.2,227.7
				c0,0.2,0,0.5,0.1,0.7s0.2,0.4,0.3,0.5c0.1,0.1,0.3,0.3,0.5,0.3c0.2,0.1,0.4,0.1,0.6,0.1s0.5,0,0.7-0.1s0.4-0.2,0.5-0.3
				s0.2-0.3,0.3-0.5s0.1-0.4,0.1-0.7s0-0.5-0.1-0.7s-0.2-0.4-0.3-0.5c-0.1-0.1-0.3-0.3-0.5-0.3c-0.2-0.1-0.4-0.1-0.7-0.1
				c-0.2,0-0.5,0-0.6,0.1c-0.2,0.1-0.4,0.2-0.5,0.3s-0.2,0.3-0.3,0.5C73.2,227.2,73.2,227.4,73.2,227.7z"/>
			<path class="st2" d="M78.4,225.3h0.9v0.7l0,0c0.1-0.3,0.3-0.5,0.6-0.6c0.3-0.2,0.6-0.2,1-0.2c0.2,0,0.4,0,0.7,0.1
				c0.2,0.1,0.4,0.2,0.5,0.3c0.2,0.1,0.3,0.3,0.4,0.6c0.1,0.2,0.1,0.5,0.1,0.8v3h-0.9v-2.8c0-0.2,0-0.4-0.1-0.6
				c-0.1-0.2-0.1-0.3-0.2-0.4c-0.1-0.1-0.2-0.2-0.3-0.2s-0.3-0.1-0.4-0.1c-0.2,0-0.4,0-0.5,0.1c-0.2,0.1-0.3,0.2-0.4,0.3
				s-0.2,0.3-0.3,0.5s-0.1,0.4-0.1,0.7v2.4h-0.9L78.4,225.3L78.4,225.3z"/>
			<path class="st2" d="M86.5,226.1h-1.3v2.1c0,0.1,0,0.3,0,0.4c0,0.1,0,0.2,0.1,0.3c0,0.1,0.1,0.2,0.2,0.2s0.2,0.1,0.4,0.1
				c0.1,0,0.2,0,0.3,0c0.1,0,0.2-0.1,0.3-0.1v0.8c-0.1,0.1-0.2,0.1-0.4,0.1s-0.3,0-0.4,0c-0.3,0-0.6,0-0.8-0.1
				c-0.2-0.1-0.3-0.2-0.4-0.4s-0.1-0.3-0.2-0.5c0-0.2,0-0.4,0-0.6v-2.5h-1v-0.8h1V224h0.9v1.3h1.3V226.1z"/>
			<path class="st2" d="M87.5,223.6c0-0.2,0.1-0.3,0.2-0.5s0.3-0.2,0.5-0.2s0.3,0.1,0.5,0.2s0.2,0.3,0.2,0.5s-0.1,0.3-0.2,0.5
				s-0.3,0.2-0.5,0.2s-0.3-0.1-0.5-0.2S87.5,223.8,87.5,223.6z M87.7,225.3h0.9v4.7h-0.9V225.3z"/>
			<path class="st2" d="M90,225.3h0.9v0.7l0,0c0.1-0.3,0.3-0.5,0.6-0.6c0.3-0.2,0.6-0.2,1-0.2c0.2,0,0.4,0,0.7,0.1
				c0.2,0.1,0.4,0.2,0.5,0.3c0.2,0.1,0.3,0.3,0.4,0.6c0.1,0.2,0.1,0.5,0.1,0.8v3h-0.9v-2.8c0-0.2,0-0.4-0.1-0.6
				c-0.1-0.2-0.1-0.3-0.2-0.4c-0.1-0.1-0.2-0.2-0.3-0.2s-0.3-0.1-0.4-0.1c-0.2,0-0.4,0-0.5,0.1c-0.2,0.1-0.3,0.2-0.4,0.3
				s-0.2,0.3-0.3,0.5s-0.1,0.4-0.1,0.7v2.4h-1V225.3z"/>
			<path class="st2" d="M99.8,230.1h-0.9v-0.7l0,0c-0.1,0.3-0.3,0.5-0.6,0.6s-0.6,0.2-1,0.2c-0.2,0-0.5,0-0.7-0.1s-0.4-0.2-0.5-0.3
				c-0.2-0.1-0.3-0.3-0.4-0.6c-0.1-0.2-0.1-0.5-0.1-0.8v-3h0.9v2.8c0,0.2,0,0.4,0.1,0.6c0.1,0.2,0.1,0.3,0.2,0.4
				c0.1,0.1,0.2,0.2,0.3,0.2s0.3,0.1,0.4,0.1c0.2,0,0.4,0,0.5-0.1c0.2-0.1,0.3-0.2,0.4-0.3s0.2-0.3,0.3-0.5c0.1-0.2,0.1-0.4,0.1-0.7
				v-2.4h0.9L99.8,230.1L99.8,230.1z"/>
			<path class="st2" d="M101.8,228c0,0.2,0,0.4,0.1,0.6s0.2,0.3,0.4,0.4s0.3,0.2,0.5,0.3s0.4,0.1,0.6,0.1c0.3,0,0.5-0.1,0.7-0.2
				c0.2-0.1,0.4-0.3,0.6-0.5l0.7,0.5c-0.5,0.6-1.2,1-2.1,1c-0.4,0-0.7-0.1-1-0.2c-0.3-0.1-0.6-0.3-0.8-0.5c-0.2-0.2-0.4-0.5-0.5-0.8
				s-0.2-0.6-0.2-1s0.1-0.7,0.2-1s0.3-0.6,0.5-0.8s0.5-0.4,0.8-0.5s0.6-0.2,1-0.2s0.8,0.1,1.1,0.2c0.3,0.1,0.5,0.3,0.7,0.6
				c0.2,0.2,0.3,0.5,0.4,0.8s0.1,0.6,0.1,0.9v0.3L101.8,228L101.8,228z M104.7,227.3c0-0.2,0-0.4-0.1-0.6c-0.1-0.2-0.1-0.3-0.3-0.4
				s-0.3-0.2-0.4-0.3s-0.4-0.1-0.6-0.1s-0.4,0-0.6,0.1s-0.3,0.2-0.5,0.3c-0.1,0.1-0.2,0.3-0.3,0.4s-0.1,0.3-0.1,0.5h2.9V227.3z"/>
		</g>
	</g>
	<g>
		<path class="st7" d="M199.2,178.2H45.4c-1,0-1.8-0.8-1.8-1.8l0,0c0-1,0.8-1.8,1.8-1.8h153.8c1,0,1.8,0.8,1.8,1.8l0,0
			C201,177.4,200.2,178.2,199.2,178.2z"/>
		
			<linearGradient id="SVGID_8_" gradientUnits="userSpaceOnUse" x1="43.6" y1="171.6" x2="75.725" y2="171.6" gradientTransform="matrix(1 0 0 -1 0 348)">
			<stop  offset="0" style="stop-color:#68E4F1"/>
			<stop  offset="1" style="stop-color:#66A6FF"/>
		</linearGradient>
		<path class="st8" d="M75.8,178.2H45.4c-1,0-1.8-0.8-1.8-1.8l0,0c0-1,0.8-1.8,1.8-1.8h30.3"/>
		
			<linearGradient id="SVGID_9_" gradientUnits="userSpaceOnUse" x1="71.3125" y1="171.6" x2="80.1875" y2="171.6" gradientTransform="matrix(1 0 0 -1 0 348)">
			<stop  offset="0" style="stop-color:#68E4F1"/>
			<stop  offset="1" style="stop-color:#66A6FF"/>
		</linearGradient>
		<circle class="st9" cx="75.7" cy="176.4" r="4.4"/>
		<circle class="st2" cx="75.8" cy="176.4" r="2"/>
	</g>
	
		<linearGradient id="Check_3_" gradientUnits="userSpaceOnUse" x1="261.75" y1="265.05" x2="271.4869" y2="265.05" gradientTransform="matrix(1 0 0 -1 0 348)">
		<stop  offset="0" style="stop-color:#68E4F1"/>
		<stop  offset="1" style="stop-color:#66A6FF"/>
	</linearGradient>
	<path id="Check" class="st10" d="M271.4,79.6c-0.2-0.2-0.4-0.2-0.6,0l-5.8,5.8l-2.5-2.5c-0.2-0.2-0.4-0.2-0.6,0s-0.2,0.4,0,0.6
		l2.8,2.8c0.2,0.2,0.4,0.2,0.6,0l6.1-6C271.5,80,271.5,79.8,271.4,79.6C271.2,79.5,271.5,79.8,271.4,79.6z"/>
	<g>
		<g>
			<g>
				<path class="st5" d="M279.9,120.4h-1.4v-0.5h3.3v0.5h-1.4v3.7h-0.6v-3.7H279.9z"/>
				<path class="st5" d="M282.2,120.3c0-0.1,0-0.2,0.1-0.3c0.1-0.1,0.2-0.1,0.3-0.1c0.1,0,0.2,0,0.3,0.1s0.1,0.2,0.1,0.3
					c0,0.1,0,0.2-0.1,0.3s-0.2,0.1-0.3,0.1c-0.1,0-0.2,0-0.3-0.1C282.3,120.5,282.2,120.4,282.2,120.3z M282.4,121.3h0.5v2.8h-0.5
					V121.3z"/>
				<path class="st5" d="M283.8,121.3h0.5v0.4l0,0c0,0,0-0.1,0.1-0.2s0.1-0.1,0.2-0.2s0.2-0.1,0.3-0.1c0.1,0,0.2-0.1,0.4-0.1
					c0.2,0,0.4,0,0.5,0.1s0.3,0.2,0.4,0.4c0.1-0.2,0.2-0.3,0.4-0.4c0.2-0.1,0.3-0.1,0.5-0.1s0.4,0,0.5,0.1s0.2,0.2,0.3,0.3
					s0.1,0.3,0.2,0.4c0,0.2,0,0.3,0,0.5v1.7h-0.5v-1.6c0-0.1,0-0.2,0-0.3c0-0.1,0-0.2-0.1-0.3c0-0.1-0.1-0.1-0.2-0.2
					s-0.2-0.1-0.3-0.1c-0.3,0-0.4,0.1-0.6,0.2c-0.1,0.2-0.2,0.4-0.2,0.6v1.6h-0.5v-1.5c0-0.1,0-0.3,0-0.4s0-0.2-0.1-0.3
					s-0.1-0.1-0.2-0.2s-0.2-0.1-0.3-0.1c-0.1,0-0.2,0-0.3,0.1s-0.2,0.1-0.2,0.2s-0.1,0.2-0.2,0.3s-0.1,0.3-0.1,0.4v1.5h-0.5
					L283.8,121.3L283.8,121.3z"/>
				<path class="st5" d="M289.3,122.9c0,0.1,0,0.2,0.1,0.3c0.1,0.1,0.1,0.2,0.2,0.3c0.1,0.1,0.2,0.1,0.3,0.2s0.2,0.1,0.4,0.1
					c0.2,0,0.3,0,0.4-0.1s0.2-0.2,0.3-0.3l0.4,0.3c-0.3,0.4-0.7,0.6-1.3,0.6c-0.2,0-0.4,0-0.6-0.1s-0.3-0.2-0.5-0.3
					c-0.1-0.1-0.2-0.3-0.3-0.5c-0.1-0.2-0.1-0.4-0.1-0.6s0-0.4,0.1-0.6s0.2-0.3,0.3-0.5c0.1-0.1,0.3-0.2,0.5-0.3s0.4-0.1,0.6-0.1
					c0.3,0,0.5,0,0.6,0.1c0.2,0.1,0.3,0.2,0.4,0.3c0.1,0.1,0.2,0.3,0.2,0.5s0.1,0.4,0.1,0.5v0.2H289.3z M291,122.5
					c0-0.1,0-0.2-0.1-0.3c0-0.1-0.1-0.2-0.2-0.3c-0.1-0.1-0.2-0.1-0.3-0.2c-0.1,0-0.2-0.1-0.4-0.1c-0.1,0-0.3,0-0.4,0.1
					s-0.2,0.1-0.3,0.2s-0.1,0.2-0.2,0.3c0,0.1-0.1,0.2-0.1,0.3H291z"/>
				<path class="st5" d="M292.3,119.9h2.7v0.5h-2.1v1.3h2v0.5h-2v1.8h-0.6V119.9z"/>
				<path class="st5" d="M295.6,121.3h0.5v0.4l0,0c0-0.1,0.1-0.1,0.1-0.2c0.1-0.1,0.1-0.1,0.2-0.2s0.2-0.1,0.2-0.1
					c0.1,0,0.2,0,0.3,0c0.1,0,0.2,0,0.2,0v0.6H297h-0.1c-0.3,0-0.5,0.1-0.6,0.2s-0.2,0.4-0.2,0.7v1.4h-0.5V121.3z"/>
				<path class="st5" d="M297.9,121.7c0.2-0.1,0.3-0.2,0.5-0.3c0.2-0.1,0.4-0.1,0.6-0.1s0.4,0,0.5,0.1s0.3,0.1,0.4,0.2
					s0.2,0.2,0.2,0.3c0,0.1,0.1,0.2,0.1,0.4v1.5c0,0.1,0,0.2,0,0.3c0,0.1,0,0.2,0,0.2h-0.5c0-0.1,0-0.3,0-0.4l0,0
					c-0.1,0.2-0.3,0.3-0.4,0.4s-0.4,0.1-0.6,0.1c-0.1,0-0.3,0-0.4-0.1s-0.2-0.1-0.3-0.2c-0.1-0.1-0.2-0.2-0.2-0.3
					c-0.1-0.1-0.1-0.2-0.1-0.4c0-0.2,0-0.3,0.1-0.5c0.1-0.1,0.2-0.2,0.3-0.3c0.1-0.1,0.3-0.1,0.5-0.2c0.2,0,0.4-0.1,0.6-0.1h0.4
					v-0.1c0-0.1,0-0.1,0-0.2s-0.1-0.1-0.1-0.2c-0.1-0.1-0.1-0.1-0.2-0.1s-0.2-0.1-0.3-0.1c-0.1,0-0.2,0-0.3,0c-0.1,0-0.1,0-0.2,0.1
					c-0.1,0-0.1,0.1-0.2,0.1s-0.1,0.1-0.1,0.1L297.9,121.7z M299.4,122.8c-0.1,0-0.3,0-0.4,0s-0.3,0-0.4,0.1c-0.1,0-0.2,0.1-0.3,0.2
					s-0.1,0.2-0.1,0.3c0,0.2,0.1,0.3,0.2,0.4s0.3,0.1,0.4,0.1s0.3,0,0.4-0.1c0.1,0,0.2-0.1,0.3-0.2c0.1-0.1,0.1-0.2,0.1-0.3
					c0-0.1,0-0.2,0-0.3v-0.2H299.4z"/>
				<path class="st5" d="M301,121.3h0.5v0.4l0,0c0,0,0-0.1,0.1-0.2s0.1-0.1,0.2-0.2s0.2-0.1,0.3-0.1c0.1,0,0.2-0.1,0.4-0.1
					c0.2,0,0.4,0,0.5,0.1s0.3,0.2,0.4,0.4c0.1-0.2,0.2-0.3,0.4-0.4c0.2-0.1,0.3-0.1,0.5-0.1s0.4,0,0.5,0.1s0.2,0.2,0.3,0.3
					s0.1,0.3,0.2,0.4c0,0.2,0,0.3,0,0.5v1.7h-0.5v-1.6c0-0.1,0-0.2,0-0.3c0-0.1,0-0.2-0.1-0.3c0-0.1-0.1-0.1-0.2-0.2
					s-0.2-0.1-0.3-0.1c-0.3,0-0.4,0.1-0.6,0.2c-0.1,0.2-0.2,0.4-0.2,0.6v1.6h-0.5v-1.5c0-0.1,0-0.3,0-0.4s0-0.2-0.1-0.3
					s-0.1-0.1-0.2-0.2s-0.2-0.1-0.3-0.1c-0.1,0-0.2,0-0.3,0.1s-0.2,0.1-0.2,0.2s-0.1,0.2-0.2,0.3s-0.1,0.3-0.1,0.4v1.5H301V121.3z"
					/>
				<path class="st5" d="M306.5,122.9c0,0.1,0,0.2,0.1,0.3c0.1,0.1,0.1,0.2,0.2,0.3c0.1,0.1,0.2,0.1,0.3,0.2s0.2,0.1,0.4,0.1
					c0.2,0,0.3,0,0.4-0.1s0.2-0.2,0.3-0.3l0.4,0.3c-0.3,0.4-0.7,0.6-1.3,0.6c-0.2,0-0.4,0-0.6-0.1s-0.3-0.2-0.5-0.3
					c-0.1-0.1-0.2-0.3-0.3-0.5c-0.1-0.2-0.1-0.4-0.1-0.6s0-0.4,0.1-0.6s0.2-0.3,0.3-0.5c0.1-0.1,0.3-0.2,0.5-0.3s0.4-0.1,0.6-0.1
					c0.3,0,0.5,0,0.6,0.1c0.2,0.1,0.3,0.2,0.4,0.3c0.1,0.1,0.2,0.3,0.2,0.5s0.1,0.4,0.1,0.5v0.2H306.5z M308.2,122.5
					c0-0.1,0-0.2-0.1-0.3c0-0.1-0.1-0.2-0.2-0.3c-0.1-0.1-0.2-0.1-0.3-0.2c-0.1,0-0.2-0.1-0.4-0.1c-0.1,0-0.3,0-0.4,0.1
					s-0.2,0.1-0.3,0.2s-0.1,0.2-0.2,0.3c0,0.1-0.1,0.2-0.1,0.3H308.2z"/>
			</g>
		</g>
		<g>
			<g>
				<path class="st4" d="M279.3,133.8c0.1,0.2,0.2,0.4,0.3,0.5c0.1,0.1,0.3,0.1,0.5,0.1c0.1,0,0.2,0,0.3-0.1c0.1,0,0.2-0.1,0.3-0.2
					c0.1-0.1,0.1-0.1,0.2-0.2c0-0.1,0.1-0.2,0.1-0.3c0-0.2,0-0.3-0.1-0.4s-0.2-0.2-0.3-0.2c-0.1-0.1-0.2-0.1-0.4-0.1
					c-0.1,0-0.3,0-0.4,0v-0.5c0.2,0,0.4,0,0.5,0s0.2-0.1,0.3-0.1s0.1-0.1,0.2-0.2s0-0.2,0-0.3c0-0.2-0.1-0.4-0.2-0.5
					s-0.3-0.2-0.5-0.2s-0.3,0-0.4,0.1s-0.2,0.2-0.3,0.4l-0.6-0.2c0.1-0.3,0.3-0.5,0.5-0.6s0.5-0.2,0.8-0.2c0.2,0,0.3,0,0.5,0.1
					c0.2,0,0.3,0.1,0.4,0.2c0.1,0.1,0.2,0.2,0.3,0.4c0.1,0.1,0.1,0.3,0.1,0.5s-0.1,0.4-0.2,0.6c-0.1,0.2-0.3,0.3-0.5,0.4l0,0
					c0.1,0,0.2,0.1,0.4,0.1c0.1,0.1,0.2,0.1,0.3,0.2c0.1,0.1,0.1,0.2,0.2,0.3c0,0.1,0.1,0.2,0.1,0.4s0,0.4-0.1,0.5
					c-0.1,0.2-0.2,0.3-0.3,0.4s-0.3,0.2-0.5,0.2c-0.2,0.1-0.3,0.1-0.5,0.1c-0.3,0-0.6-0.1-0.9-0.2s-0.4-0.4-0.5-0.7L279.3,133.8z"/>
				<path class="st4" d="M284,130.6h0.9l1.3,3.2l0,0l1.3-3.2h0.9v4.2h-0.6v-3.5l0,0l-1.4,3.5H286l-1.4-3.5l0,0v3.5H284V130.6z"/>
				<path class="st4" d="M289.2,133.4c0-0.2,0-0.4,0.1-0.6c0.1-0.2,0.2-0.3,0.3-0.5c0.1-0.1,0.3-0.2,0.5-0.3s0.4-0.1,0.6-0.1
					s0.4,0,0.6,0.1s0.3,0.2,0.5,0.3c0.1,0.1,0.2,0.3,0.3,0.5c0.1,0.2,0.1,0.4,0.1,0.6s0,0.4-0.1,0.6s-0.2,0.3-0.3,0.5
					c-0.1,0.1-0.3,0.2-0.5,0.3s-0.4,0.1-0.6,0.1s-0.4,0-0.6-0.1s-0.3-0.2-0.5-0.3c-0.1-0.1-0.2-0.3-0.3-0.5S289.2,133.6,289.2,133.4
					z M289.7,133.4c0,0.1,0,0.3,0.1,0.4s0.1,0.2,0.2,0.3s0.2,0.2,0.3,0.2c0.1,0,0.2,0.1,0.4,0.1c0.1,0,0.3,0,0.4-0.1
					s0.2-0.1,0.3-0.2s0.1-0.2,0.2-0.3s0.1-0.3,0.1-0.4s0-0.3-0.1-0.4s-0.1-0.2-0.2-0.3s-0.2-0.2-0.3-0.2c-0.1-0.1-0.2-0.1-0.4-0.1
					c-0.1,0-0.3,0-0.4,0.1c-0.1,0-0.2,0.1-0.3,0.2s-0.1,0.2-0.2,0.3S289.7,133.3,289.7,133.4z"/>
				<path class="st4" d="M292.9,132h0.5v0.4l0,0c0.1-0.2,0.2-0.3,0.4-0.4c0.2-0.1,0.4-0.1,0.6-0.1c0.1,0,0.3,0,0.4,0.1
					s0.2,0.1,0.3,0.2c0.1,0.1,0.2,0.2,0.2,0.3c0.1,0.1,0.1,0.3,0.1,0.5v1.8h-0.5v-1.7c0-0.1,0-0.2-0.1-0.3c0-0.1-0.1-0.2-0.1-0.2
					c-0.1-0.1-0.1-0.1-0.2-0.1s-0.2,0-0.2,0c-0.1,0-0.2,0-0.3,0.1c-0.1,0-0.2,0.1-0.3,0.2s-0.1,0.2-0.2,0.3c0,0.1-0.1,0.3-0.1,0.4
					v1.5h-0.5L292.9,132L292.9,132z"/>
				<path class="st4" d="M297.7,132.5H297v1.3c0,0.1,0,0.2,0,0.2c0,0.1,0,0.1,0,0.2s0.1,0.1,0.1,0.2c0.1,0,0.1,0.1,0.2,0.1
					s0.1,0,0.2,0s0.1,0,0.2-0.1v0.5c-0.1,0-0.1,0.1-0.2,0.1s-0.2,0-0.2,0c-0.2,0-0.4,0-0.5-0.1s-0.2-0.1-0.3-0.2
					c-0.1-0.1-0.1-0.2-0.1-0.3s0-0.2,0-0.3v-1.5h-0.6V132h0.6v-0.8h0.5v0.8h0.8V132.5z"/>
				<path class="st4" d="M298.4,130.3h0.5v2.1l0,0c0.1-0.2,0.2-0.3,0.4-0.4c0.2-0.1,0.4-0.1,0.6-0.1c0.1,0,0.3,0,0.4,0.1
					s0.2,0.1,0.3,0.2c0.1,0.1,0.2,0.2,0.2,0.3c0.1,0.1,0.1,0.3,0.1,0.5v1.8h-0.5v-1.7c0-0.1,0-0.2-0.1-0.3c0-0.1-0.1-0.2-0.1-0.2
					c-0.1-0.1-0.1-0.1-0.2-0.1s-0.2,0-0.2,0c-0.1,0-0.2,0-0.3,0.1c-0.1,0-0.2,0.1-0.3,0.2s-0.1,0.2-0.2,0.3c0,0.1-0.1,0.3-0.1,0.4
					v1.5h-0.5L298.4,130.3L298.4,130.3z"/>
				<path class="st4" d="M303.3,132.7c-0.1-0.1-0.1-0.1-0.2-0.2c-0.1-0.1-0.2-0.1-0.3-0.1c-0.1,0-0.2,0-0.3,0.1
					c-0.1,0.1-0.1,0.1-0.1,0.2c0,0.1,0,0.2,0.1,0.2c0.1,0.1,0.1,0.1,0.2,0.1s0.2,0.1,0.2,0.1h0.2c0.1,0,0.2,0.1,0.3,0.1
					s0.2,0.1,0.3,0.2c0.1,0.1,0.1,0.1,0.2,0.2c0,0.1,0.1,0.2,0.1,0.3c0,0.2,0,0.3-0.1,0.4c-0.1,0.1-0.2,0.2-0.3,0.3
					c-0.1,0.1-0.2,0.1-0.4,0.2c-0.1,0-0.3,0-0.4,0c-0.2,0-0.4,0-0.6-0.1s-0.3-0.2-0.5-0.4l0.4-0.3c0.1,0.1,0.2,0.2,0.3,0.2
					c0.1,0.1,0.2,0.1,0.4,0.1c0.1,0,0.1,0,0.2,0s0.1,0,0.2-0.1c0.1,0,0.1-0.1,0.1-0.1s0.1-0.1,0.1-0.2c0-0.1,0-0.1-0.1-0.2
					c0-0.1-0.1-0.1-0.2-0.1s-0.1-0.1-0.2-0.1s-0.1,0-0.2,0s-0.2-0.1-0.3-0.1c-0.1,0-0.2-0.1-0.3-0.1c-0.1-0.1-0.1-0.1-0.2-0.2
					c0-0.1-0.1-0.2-0.1-0.3s0-0.3,0.1-0.4c0.1-0.1,0.1-0.2,0.2-0.3s0.2-0.1,0.3-0.2c0.1,0,0.3-0.1,0.4-0.1c0.2,0,0.4,0,0.6,0.1
					s0.3,0.2,0.4,0.4L303.3,132.7z"/>
			</g>
		</g>
		
			<linearGradient id="Check_4_" gradientUnits="userSpaceOnUse" x1="261.75" y1="225.15" x2="271.4869" y2="225.15" gradientTransform="matrix(1 0 0 -1 0 348)">
			<stop  offset="0" style="stop-color:#68E4F1"/>
			<stop  offset="1" style="stop-color:#66A6FF"/>
		</linearGradient>
		<path id="Check_1_" class="st11" d="M271.4,119.5c-0.2-0.2-0.4-0.2-0.6,0l-5.8,5.8l-2.5-2.5c-0.2-0.2-0.4-0.2-0.6,0
			s-0.2,0.4,0,0.6l2.8,2.8c0.2,0.2,0.4,0.2,0.6,0l6.1-6C271.5,119.9,271.5,119.7,271.4,119.5C271.2,119.4,271.5,119.7,271.4,119.5z"
			/>
	</g>
	<g>
		<g>
			<g>
				<path class="st5" d="M279,161.6h1.5c0.3,0,0.5,0,0.7,0.1s0.3,0.2,0.4,0.3s0.2,0.2,0.2,0.4c0,0.1,0.1,0.3,0.1,0.4s0,0.3-0.1,0.4
					c0,0.1-0.1,0.3-0.2,0.4c-0.1,0.1-0.2,0.2-0.4,0.3s-0.4,0.1-0.7,0.1h-0.9v1.9H279V161.6z M279.6,163.4h0.8c0.1,0,0.2,0,0.3,0
					c0.1,0,0.2-0.1,0.3-0.1s0.2-0.1,0.2-0.2s0.1-0.2,0.1-0.4c0-0.1,0-0.3-0.1-0.4s-0.1-0.2-0.2-0.2s-0.2-0.1-0.3-0.1
					c-0.1,0-0.2,0-0.3,0h-0.8V163.4z"/>
				<path class="st5" d="M282.4,163.3c0.2-0.1,0.3-0.2,0.5-0.3s0.4-0.1,0.6-0.1s0.4,0,0.5,0.1c0.2,0.1,0.3,0.1,0.4,0.2
					s0.2,0.2,0.2,0.3s0.1,0.2,0.1,0.4v1.5c0,0.1,0,0.2,0,0.3s0,0.2,0,0.2h-0.5c0-0.1,0-0.3,0-0.4l0,0c-0.1,0.2-0.3,0.3-0.4,0.4
					s-0.4,0.1-0.6,0.1c-0.1,0-0.3,0-0.4-0.1s-0.2-0.1-0.3-0.2c-0.1-0.1-0.2-0.2-0.2-0.3c-0.1-0.1-0.1-0.2-0.1-0.4s0-0.3,0.1-0.5
					s0.2-0.2,0.3-0.3c0.1-0.1,0.3-0.1,0.5-0.2c0.2,0,0.4-0.1,0.6-0.1h0.4v-0.1c0-0.1,0-0.1,0-0.2c0-0.1-0.1-0.1-0.1-0.2
					c-0.1-0.1-0.1-0.1-0.2-0.1s-0.2-0.1-0.3-0.1c-0.1,0-0.2,0-0.3,0c-0.1,0-0.1,0-0.2,0.1c-0.1,0-0.1,0.1-0.2,0.1s-0.1,0.1-0.1,0.1
					L282.4,163.3z M284,164.4c-0.1,0-0.3,0-0.4,0s-0.3,0-0.4,0.1c-0.1,0-0.2,0.1-0.3,0.2c-0.1,0.1-0.1,0.2-0.1,0.3
					c0,0.2,0.1,0.3,0.2,0.4c0.1,0.1,0.3,0.1,0.4,0.1s0.3,0,0.4-0.1c0.1,0,0.2-0.1,0.3-0.2c0.1-0.1,0.1-0.2,0.1-0.3s0-0.2,0-0.3v-0.2
					H284z"/>
				<path class="st5" d="M285.2,163h0.6l0.8,2.2l0,0l0.8-2.2h0.6l-1.3,3.5c0,0.1-0.1,0.2-0.1,0.3c-0.1,0.1-0.1,0.2-0.2,0.3
					s-0.2,0.1-0.3,0.2s-0.2,0.1-0.4,0.1c-0.1,0-0.2,0-0.2,0s-0.2,0-0.2-0.1l0.1-0.5c0.1,0,0.2,0.1,0.3,0.1c0.1,0,0.2,0,0.2,0
					c0.1,0,0.1-0.1,0.1-0.1l0.1-0.1c0-0.1,0.1-0.1,0.1-0.2l0.2-0.5L285.2,163z"/>
				<path class="st5" d="M288.4,164.4c0-0.2,0-0.4,0.1-0.6c0.1-0.2,0.2-0.3,0.3-0.5c0.1-0.1,0.3-0.2,0.5-0.3s0.4-0.1,0.6-0.1
					s0.4,0,0.6,0.1s0.3,0.2,0.5,0.3c0.1,0.1,0.2,0.3,0.3,0.5c0.1,0.2,0.1,0.4,0.1,0.6s0,0.4-0.1,0.6c-0.1,0.2-0.2,0.3-0.3,0.5
					c-0.1,0.1-0.3,0.2-0.5,0.3s-0.4,0.1-0.6,0.1s-0.4,0-0.6-0.1s-0.3-0.2-0.5-0.3s-0.2-0.3-0.3-0.5
					C288.4,164.8,288.4,164.6,288.4,164.4z M289,164.4c0,0.1,0,0.3,0.1,0.4s0.1,0.2,0.2,0.3s0.2,0.2,0.3,0.2c0.1,0,0.2,0.1,0.4,0.1
					c0.1,0,0.3,0,0.4-0.1s0.2-0.1,0.3-0.2s0.1-0.2,0.2-0.3s0.1-0.3,0.1-0.4c0-0.1,0-0.3-0.1-0.4s-0.1-0.2-0.2-0.3s-0.2-0.2-0.3-0.2
					c-0.1-0.1-0.2-0.1-0.4-0.1c-0.1,0-0.3,0-0.4,0.1c-0.1,0-0.2,0.1-0.3,0.2s-0.1,0.2-0.2,0.3S289,164.2,289,164.4z"/>
				<path class="st5" d="M294.6,165.8h-0.5v-0.4l0,0c-0.1,0.2-0.2,0.3-0.4,0.4c-0.2,0.1-0.4,0.1-0.6,0.1c-0.1,0-0.3,0-0.4-0.1
					s-0.2-0.1-0.3-0.2s-0.2-0.2-0.2-0.3c-0.1-0.1-0.1-0.3-0.1-0.5V163h0.5v1.7c0,0.1,0,0.2,0.1,0.3s0.1,0.2,0.1,0.2
					c0.1,0.1,0.1,0.1,0.2,0.1s0.2,0,0.2,0c0.1,0,0.2,0,0.3-0.1c0.1,0,0.2-0.1,0.3-0.2s0.1-0.2,0.2-0.3s0.1-0.3,0.1-0.4V163h0.5
					L294.6,165.8L294.6,165.8z"/>
				<path class="st5" d="M297,163.4h-0.8v1.3c0,0.1,0,0.2,0,0.2c0,0.1,0,0.1,0,0.2c0,0.1,0.1,0.1,0.1,0.2s0.1,0.1,0.2,0.1
					s0.1,0,0.2,0s0.1,0,0.2-0.1v0.5c-0.1,0-0.1,0.1-0.2,0.1s-0.2,0-0.2,0c-0.2,0-0.4,0-0.5-0.1s-0.2-0.1-0.3-0.2
					c-0.1-0.1-0.1-0.2-0.1-0.3s0-0.2,0-0.3v-1.5H295V163h0.6v-0.8h0.5v0.8h0.8v0.4H297z"/>
				<path class="st5" d="M299.5,161.6h2.7v0.5H300v1.3h2v0.5h-2v1.8h-0.6v-4.1H299.5z"/>
				<path class="st5" d="M302.8,163h0.5v0.4l0,0c0-0.1,0.1-0.1,0.1-0.2c0.1-0.1,0.1-0.1,0.2-0.2s0.2-0.1,0.2-0.1c0.1,0,0.2,0,0.3,0
					c0.1,0,0.2,0,0.2,0v0.6h-0.1h-0.1c-0.3,0-0.5,0.1-0.6,0.2c-0.1,0.1-0.2,0.4-0.2,0.7v1.4h-0.5V163z"/>
				<path class="st5" d="M305.3,164.6c0,0.1,0,0.2,0.1,0.3s0.1,0.2,0.2,0.3s0.2,0.1,0.3,0.2s0.2,0.1,0.4,0.1c0.2,0,0.3,0,0.4-0.1
					s0.2-0.2,0.3-0.3l0.4,0.3c-0.3,0.4-0.7,0.6-1.3,0.6c-0.2,0-0.4,0-0.6-0.1s-0.3-0.2-0.5-0.3s-0.2-0.3-0.3-0.5
					c-0.1-0.2-0.1-0.4-0.1-0.6s0-0.4,0.1-0.6c0.1-0.2,0.2-0.3,0.3-0.5s0.3-0.2,0.5-0.3s0.4-0.1,0.6-0.1c0.3,0,0.5,0,0.6,0.1
					c0.2,0.1,0.3,0.2,0.4,0.3s0.2,0.3,0.2,0.5s0.1,0.4,0.1,0.5v0.2L305.3,164.6L305.3,164.6z M307,164.2c0-0.1,0-0.2-0.1-0.3
					c0-0.1-0.1-0.2-0.2-0.3s-0.2-0.1-0.3-0.2c-0.1,0-0.2-0.1-0.4-0.1c-0.1,0-0.3,0-0.4,0.1s-0.2,0.1-0.3,0.2s-0.1,0.2-0.2,0.3
					s-0.1,0.2-0.1,0.3H307z"/>
				<path class="st5" d="M311.1,167.2h-0.5v-1.8l0,0c-0.1,0.1-0.2,0.3-0.4,0.4s-0.4,0.1-0.6,0.1s-0.4,0-0.6-0.1s-0.3-0.2-0.5-0.3
					s-0.2-0.3-0.3-0.5c-0.1-0.2-0.1-0.4-0.1-0.6c0-0.2,0-0.4,0.1-0.6c0.1-0.2,0.2-0.3,0.3-0.5s0.3-0.2,0.5-0.3s0.4-0.1,0.6-0.1
					s0.4,0,0.6,0.1s0.3,0.2,0.4,0.4l0,0V163h0.5V167.2z M309.6,163.4c-0.1,0-0.3,0-0.4,0.1c-0.1,0-0.2,0.1-0.3,0.2s-0.1,0.2-0.2,0.3
					s-0.1,0.3-0.1,0.4c0,0.1,0,0.3,0.1,0.4s0.1,0.2,0.2,0.3s0.2,0.2,0.3,0.2c0.1,0,0.2,0.1,0.4,0.1c0.1,0,0.3,0,0.4-0.1
					s0.2-0.1,0.3-0.2s0.1-0.2,0.2-0.3s0.1-0.3,0.1-0.4c0-0.1,0-0.3-0.1-0.4s-0.1-0.2-0.2-0.3s-0.2-0.2-0.3-0.2
					C309.9,163.4,309.7,163.4,309.6,163.4z"/>
				<path class="st5" d="M314.4,165.8h-0.5v-0.4l0,0c-0.1,0.2-0.2,0.3-0.4,0.4c-0.2,0.1-0.4,0.1-0.6,0.1c-0.1,0-0.3,0-0.4-0.1
					s-0.2-0.1-0.3-0.2s-0.2-0.2-0.2-0.3c-0.1-0.1-0.1-0.3-0.1-0.5V163h0.5v1.7c0,0.1,0,0.2,0.1,0.3s0.1,0.2,0.1,0.2
					c0.1,0.1,0.1,0.1,0.2,0.1s0.2,0,0.2,0c0.1,0,0.2,0,0.3-0.1c0.1,0,0.2-0.1,0.3-0.2s0.1-0.2,0.2-0.3s0.1-0.3,0.1-0.4V163h0.5
					L314.4,165.8L314.4,165.8z"/>
				<path class="st5" d="M315.6,164.6c0,0.1,0,0.2,0.1,0.3s0.1,0.2,0.2,0.3s0.2,0.1,0.3,0.2s0.2,0.1,0.4,0.1c0.2,0,0.3,0,0.4-0.1
					s0.2-0.2,0.3-0.3l0.4,0.3c-0.3,0.4-0.7,0.6-1.3,0.6c-0.2,0-0.4,0-0.6-0.1s-0.3-0.2-0.5-0.3s-0.2-0.3-0.3-0.5
					c-0.1-0.2-0.1-0.4-0.1-0.6s0-0.4,0.1-0.6c0.1-0.2,0.2-0.3,0.3-0.5s0.3-0.2,0.5-0.3s0.4-0.1,0.6-0.1c0.3,0,0.5,0,0.6,0.1
					c0.2,0.1,0.3,0.2,0.4,0.3s0.2,0.3,0.2,0.5s0.1,0.4,0.1,0.5v0.2L315.6,164.6L315.6,164.6z M317.3,164.2c0-0.1,0-0.2-0.1-0.3
					c0-0.1-0.1-0.2-0.2-0.3s-0.2-0.1-0.3-0.2c-0.1,0-0.2-0.1-0.4-0.1c-0.1,0-0.3,0-0.4,0.1s-0.2,0.1-0.3,0.2s-0.1,0.2-0.2,0.3
					s-0.1,0.2-0.1,0.3H317.3z"/>
				<path class="st5" d="M318.6,163h0.5v0.4l0,0c0.1-0.2,0.2-0.3,0.4-0.4s0.4-0.1,0.6-0.1c0.1,0,0.3,0,0.4,0.1s0.2,0.1,0.3,0.2
					s0.2,0.2,0.2,0.3c0.1,0.1,0.1,0.3,0.1,0.5v1.8h-0.5v-1.7c0-0.1,0-0.2-0.1-0.3c0-0.1-0.1-0.2-0.1-0.2c-0.1-0.1-0.1-0.1-0.2-0.1
					s-0.2,0-0.2,0c-0.1,0-0.2,0-0.3,0.1c-0.1,0-0.2,0.1-0.3,0.2s-0.1,0.2-0.2,0.3c0,0.1-0.1,0.3-0.1,0.4v1.5h-0.5L318.6,163
					L318.6,163z"/>
				<path class="st5" d="M323.9,163.7c-0.1-0.1-0.2-0.2-0.3-0.2s-0.2-0.1-0.4-0.1c-0.1,0-0.3,0-0.4,0.1s-0.2,0.1-0.3,0.2
					c-0.1,0.1-0.1,0.2-0.2,0.3s-0.1,0.2-0.1,0.4s0,0.3,0.1,0.4s0.1,0.2,0.2,0.3s0.2,0.2,0.3,0.2c0.1,0,0.2,0.1,0.4,0.1
					c0.2,0,0.3,0,0.4-0.1s0.2-0.1,0.3-0.2l0.4,0.4c-0.1,0.2-0.3,0.3-0.5,0.3c-0.2,0.1-0.4,0.1-0.6,0.1s-0.4,0-0.6-0.1
					s-0.3-0.2-0.5-0.3c-0.1-0.1-0.2-0.3-0.3-0.5c-0.1-0.2-0.1-0.4-0.1-0.6s0-0.4,0.1-0.6c0.1-0.2,0.2-0.3,0.3-0.5s0.3-0.2,0.5-0.3
					s0.4-0.1,0.6-0.1s0.4,0,0.6,0.1s0.4,0.2,0.5,0.3L323.9,163.7z"/>
				<path class="st5" d="M324.4,163h0.6l0.8,2.2l0,0l0.8-2.2h0.6l-1.3,3.5c0,0.1-0.1,0.2-0.1,0.3c-0.1,0.1-0.1,0.2-0.2,0.3
					s-0.2,0.1-0.3,0.2s-0.2,0.1-0.4,0.1c-0.1,0-0.2,0-0.2,0s-0.2,0-0.2-0.1l0.1-0.5c0.1,0,0.2,0.1,0.3,0.1c0.1,0,0.2,0,0.2,0
					c0.1,0,0.1-0.1,0.1-0.1l0.1-0.1c0-0.1,0.1-0.1,0.1-0.2l0.2-0.5L324.4,163z"/>
			</g>
		</g>
		<g>
			<g>
				<path class="st4" d="M279,172.2h0.9l1.3,3.2l0,0l1.3-3.2h0.9v4.2h-0.6V173l0,0l-1.4,3.5H281l-1.4-3.5l0,0v3.5H279V172.2z"/>
				<path class="st4" d="M284.2,175.1c0-0.2,0-0.4,0.1-0.6s0.2-0.3,0.3-0.5s0.3-0.2,0.5-0.3s0.4-0.1,0.6-0.1s0.4,0,0.6,0.1
					s0.3,0.2,0.5,0.3c0.1,0.1,0.2,0.3,0.3,0.5s0.1,0.4,0.1,0.6s0,0.4-0.1,0.6c-0.1,0.2-0.2,0.3-0.3,0.5c-0.1,0.1-0.3,0.2-0.5,0.3
					s-0.4,0.1-0.6,0.1s-0.4,0-0.6-0.1s-0.3-0.2-0.5-0.3c-0.1-0.1-0.2-0.3-0.3-0.5C284.2,175.5,284.2,175.3,284.2,175.1z
					 M284.7,175.1c0,0.1,0,0.3,0.1,0.4s0.1,0.2,0.2,0.3s0.2,0.2,0.3,0.2c0.1,0,0.2,0.1,0.4,0.1c0.1,0,0.3,0,0.4-0.1s0.2-0.1,0.3-0.2
					s0.1-0.2,0.2-0.3s0.1-0.3,0.1-0.4c0-0.1,0-0.3-0.1-0.4s-0.1-0.2-0.2-0.3s-0.2-0.2-0.3-0.2s-0.2-0.1-0.4-0.1
					c-0.1,0-0.3,0-0.4,0.1c-0.1,0-0.2,0.1-0.3,0.2s-0.1,0.2-0.2,0.3S284.7,174.9,284.7,175.1z"/>
				<path class="st4" d="M287.9,173.7h0.5v0.4l0,0c0.1-0.2,0.2-0.3,0.4-0.4c0.2-0.1,0.4-0.1,0.6-0.1c0.1,0,0.3,0,0.4,0.1
					s0.2,0.1,0.3,0.2c0.1,0.1,0.2,0.2,0.2,0.3c0.1,0.1,0.1,0.3,0.1,0.5v1.8h-0.5v-1.7c0-0.1,0-0.2-0.1-0.3s-0.1-0.2-0.1-0.2
					c-0.1-0.1-0.1-0.1-0.2-0.1s-0.2,0-0.2,0c-0.1,0-0.2,0-0.3,0.1c-0.1,0-0.2,0.1-0.3,0.2s-0.1,0.2-0.2,0.3s-0.1,0.3-0.1,0.4v1.5
					h-0.5L287.9,173.7L287.9,173.7z"/>
				<path class="st4" d="M292.7,174.1H292v1.3c0,0.1,0,0.2,0,0.2s0,0.1,0,0.2c0,0.1,0.1,0.1,0.1,0.2c0.1,0,0.1,0.1,0.2,0.1
					s0.1,0,0.2,0s0.1,0,0.2-0.1v0.5c-0.1,0-0.1,0.1-0.2,0.1s-0.2,0-0.2,0c-0.2,0-0.4,0-0.5-0.1s-0.2-0.1-0.3-0.2
					c-0.1-0.1-0.1-0.2-0.1-0.3s0-0.2,0-0.3v-1.5h-0.6v-0.5h0.6v-0.8h0.5v0.8h0.8V174.1z"/>
				<path class="st4" d="M293.4,172h0.5v2.1l0,0c0.1-0.2,0.2-0.3,0.4-0.4c0.2-0.1,0.4-0.1,0.6-0.1c0.1,0,0.3,0,0.4,0.1
					s0.2,0.1,0.3,0.2c0.1,0.1,0.2,0.2,0.2,0.3c0.1,0.1,0.1,0.3,0.1,0.5v1.8h-0.5v-1.7c0-0.1,0-0.2-0.1-0.3s-0.1-0.2-0.1-0.2
					c-0.1-0.1-0.1-0.1-0.2-0.1s-0.2,0-0.2,0c-0.1,0-0.2,0-0.3,0.1c-0.1,0-0.2,0.1-0.3,0.2s-0.1,0.2-0.2,0.3s-0.1,0.3-0.1,0.4v1.5
					h-0.5L293.4,172L293.4,172z"/>
				<path class="st4" d="M296.8,172h0.5v4.5h-0.5V172z"/>
				<path class="st4" d="M297.9,173.7h0.6l0.8,2.2l0,0l0.8-2.2h0.6l-1.3,3.5c0,0.1-0.1,0.2-0.1,0.3c-0.1,0.1-0.1,0.2-0.2,0.3
					s-0.2,0.1-0.3,0.2s-0.2,0.1-0.4,0.1c-0.1,0-0.2,0-0.2,0c-0.1,0-0.2,0-0.2-0.1l0.1-0.5c0.1,0,0.2,0.1,0.3,0.1c0.1,0,0.2,0,0.2,0
					c0.1,0,0.1-0.1,0.1-0.1l0.1-0.1c0-0.1,0.1-0.1,0.1-0.2l0.2-0.4L297.9,173.7z"/>
			</g>
		</g>
		
			<linearGradient id="Check_5_" gradientUnits="userSpaceOnUse" x1="261.75" y1="183.45" x2="271.4869" y2="183.45" gradientTransform="matrix(1 0 0 -1 0 348)">
			<stop  offset="0" style="stop-color:#68E4F1"/>
			<stop  offset="1" style="stop-color:#66A6FF"/>
		</linearGradient>
		<path id="Check_2_" class="st12" d="M271.4,161.2c-0.2-0.2-0.4-0.2-0.6,0L265,167l-2.5-2.5c-0.2-0.2-0.4-0.2-0.6,0s-0.2,0.4,0,0.6
			l2.8,2.8c0.2,0.2,0.4,0.2,0.6,0l6.1-6C271.5,161.6,271.5,161.3,271.4,161.2C271.2,161,271.5,161.3,271.4,161.2z"/>
	</g>
</g>
</svg>
