<?xml version="1.0" encoding="utf-8"?>
<!-- Generator: Adobe Illustrator 22.0.0, SVG Export Plug-In . SVG Version: 6.00 Build 0)  -->
<svg version="1.1" id="Camada_1" xmlns="http://www.w3.org/2000/svg" xmlns:xlink="http://www.w3.org/1999/xlink" x="0px" y="0px"
	 viewBox="0 0 398 437" style="enable-background:new 0 0 398 437;" xml:space="preserve">
<style type="text/css">
	.st0{fill:url(#SVGID_1_);}
	.st1{fill:url(#SVGID_2_);}
	.st2{fill:url(#SVGID_3_);}
	.st3{fill:url(#SVGID_4_);}
	.st4{fill:url(#SVGID_5_);}
	.st5{fill:url(#SVGID_6_);}
	.st6{fill:url(#SVGID_7_);}
	.st7{fill:url(#SVGID_8_);}
	.st8{fill:url(#SVGID_9_);}
	.st9{fill:url(#SVGID_10_);}
	.st10{fill:url(#SVGID_11_);}
	.st11{fill:url(#SVGID_12_);}
	.st12{fill:url(#SVGID_13_);}
	.st13{fill:url(#SVGID_14_);}
	.st14{fill:url(#SVGID_15_);}
	.st15{fill:url(#SVGID_16_);}
	.st16{fill:url(#SVGID_17_);}
	.st17{fill:url(#SVGID_18_);}
	.st18{fill:url(#SVGID_19_);}
	.st19{fill:url(#SVGID_20_);}
	.st20{fill:url(#SVGID_21_);}
	.st21{fill:url(#SVGID_22_);}
	.st22{fill:url(#SVGID_23_);}
	.st23{fill:url(#SVGID_24_);}
	.st24{fill:url(#SVGID_25_);}
	.st25{fill:url(#SVGID_26_);}
	.st26{fill:url(#SVGID_27_);}
	.st27{fill:#FFFFFF;stroke:#DEE0E7;stroke-miterlimit:10;}
	.st28{fill:#101530;}
</style>
<g>
	
		<linearGradient id="SVGID_1_" gradientUnits="userSpaceOnUse" x1="94" y1="236.9" x2="154.4" y2="236.9" gradientTransform="matrix(1 0 0 -1 0 438)">
		<stop  offset="0" style="stop-color:#E6ECF5"/>
		<stop  offset="0.5126" style="stop-color:#EEF1F6"/>
		<stop  offset="1" style="stop-color:#EEF1F6"/>
	</linearGradient>
	<path class="st0" d="M148.4,227H100c-3.3,0-6-2.7-6-6v-39.8c0-3.3,2.7-6,6-6h48.4c3.3,0,6,2.7,6,6V221
		C154.4,224.3,151.7,227,148.4,227z"/>
	
		<linearGradient id="SVGID_2_" gradientUnits="userSpaceOnUse" x1="151.1" y1="237.25" x2="97.8" y2="237.25" gradientTransform="matrix(1 0 0 -1 0 438)">
		<stop  offset="0" style="stop-color:#68E4F1"/>
		<stop  offset="1" style="stop-color:#66A6FF"/>
	</linearGradient>
	<path class="st1" d="M145.1,223.6h-41.3c-3.3,0-6-2.7-6-6v-33.7c0-3.3,2.7-6,6-6h41.3c3.3,0,6,2.7,6,6v33.7
		C151.1,220.9,148.4,223.6,145.1,223.6z"/>
	
		<linearGradient id="SVGID_3_" gradientUnits="userSpaceOnUse" x1="97.8" y1="245.15" x2="151.1" y2="245.15" gradientTransform="matrix(1 0 0 -1 0 438)">
		<stop  offset="0" style="stop-color:#68E4F1"/>
		<stop  offset="1" style="stop-color:#66A6FF"/>
	</linearGradient>
	<path class="st2" d="M145.1,215.7h-41.3c-3.3,0-6-2.7-6-6V176c0-3.3,2.7-6,6-6h41.3c3.3,0,6,2.7,6,6v33.7
		C151.1,213,148.4,215.7,145.1,215.7z"/>
	
		<linearGradient id="SVGID_4_" gradientUnits="userSpaceOnUse" x1="168.6" y1="236.9" x2="229" y2="236.9" gradientTransform="matrix(1 0 0 -1 0 438)">
		<stop  offset="0" style="stop-color:#E6ECF5"/>
		<stop  offset="0.5126" style="stop-color:#EEF1F6"/>
		<stop  offset="1" style="stop-color:#EEF1F6"/>
	</linearGradient>
	<path class="st3" d="M223,227h-48.4c-3.3,0-6-2.7-6-6v-39.8c0-3.3,2.7-6,6-6H223c3.3,0,6,2.7,6,6V221C229,224.3,226.3,227,223,227z
		"/>
	
		<linearGradient id="SVGID_5_" gradientUnits="userSpaceOnUse" x1="225.7" y1="237.25" x2="172.4" y2="237.25" gradientTransform="matrix(1 0 0 -1 0 438)">
		<stop  offset="0" style="stop-color:#68E4F1"/>
		<stop  offset="1" style="stop-color:#66A6FF"/>
	</linearGradient>
	<path class="st4" d="M219.7,223.6h-41.3c-3.3,0-6-2.7-6-6v-33.7c0-3.3,2.7-6,6-6h41.3c3.3,0,6,2.7,6,6v33.7
		C225.7,220.9,223,223.6,219.7,223.6z"/>
	
		<linearGradient id="SVGID_6_" gradientUnits="userSpaceOnUse" x1="172.4678" y1="245.15" x2="225.7678" y2="245.15" gradientTransform="matrix(1 0 0 -1 0 438)">
		<stop  offset="0" style="stop-color:#68E4F1"/>
		<stop  offset="1" style="stop-color:#66A6FF"/>
	</linearGradient>
	<path class="st5" d="M219.7,215.7h-41.3c-3.3,0-6-2.7-6-6V176c0-3.3,2.7-6,6-6h41.3c3.3,0,6,2.7,6,6v33.7
		C225.7,213,223,215.7,219.7,215.7z"/>
	
		<linearGradient id="SVGID_7_" gradientUnits="userSpaceOnUse" x1="245.2" y1="236.9" x2="305.6" y2="236.9" gradientTransform="matrix(1 0 0 -1 0 438)">
		<stop  offset="0" style="stop-color:#E6ECF5"/>
		<stop  offset="0.5126" style="stop-color:#EEF1F6"/>
		<stop  offset="1" style="stop-color:#EEF1F6"/>
	</linearGradient>
	<path class="st6" d="M299.6,227h-48.4c-3.3,0-6-2.7-6-6v-39.8c0-3.3,2.7-6,6-6h48.4c3.3,0,6,2.7,6,6V221
		C305.6,224.3,302.9,227,299.6,227z"/>
	
		<linearGradient id="SVGID_8_" gradientUnits="userSpaceOnUse" x1="302.3" y1="237.25" x2="249" y2="237.25" gradientTransform="matrix(1 0 0 -1 0 438)">
		<stop  offset="0" style="stop-color:#68E4F1"/>
		<stop  offset="1" style="stop-color:#66A6FF"/>
	</linearGradient>
	<path class="st7" d="M296.3,223.6H255c-3.3,0-6-2.7-6-6v-33.7c0-3.3,2.7-6,6-6h41.3c3.3,0,6,2.7,6,6v33.7
		C302.3,220.9,299.6,223.6,296.3,223.6z"/>
	
		<linearGradient id="SVGID_9_" gradientUnits="userSpaceOnUse" x1="249" y1="245.15" x2="302.3" y2="245.15" gradientTransform="matrix(1 0 0 -1 0 438)">
		<stop  offset="0" style="stop-color:#68E4F1"/>
		<stop  offset="1" style="stop-color:#66A6FF"/>
	</linearGradient>
	<path class="st8" d="M296.3,215.7H255c-3.3,0-6-2.7-6-6V176c0-3.3,2.7-6,6-6h41.3c3.3,0,6,2.7,6,6v33.7
		C302.3,213,299.6,215.7,296.3,215.7z"/>
	
		<linearGradient id="SVGID_10_" gradientUnits="userSpaceOnUse" x1="94" y1="166.8" x2="154.4" y2="166.8" gradientTransform="matrix(1 0 0 -1 0 438)">
		<stop  offset="0" style="stop-color:#E6ECF5"/>
		<stop  offset="0.5126" style="stop-color:#EEF1F6"/>
		<stop  offset="1" style="stop-color:#EEF1F6"/>
	</linearGradient>
	<path class="st9" d="M148.4,297.1H100c-3.3,0-6-2.7-6-6v-39.8c0-3.3,2.7-6,6-6h48.4c3.3,0,6,2.7,6,6v39.8
		C154.4,294.4,151.7,297.1,148.4,297.1z"/>
	
		<linearGradient id="SVGID_11_" gradientUnits="userSpaceOnUse" x1="151.1" y1="167.15" x2="97.8" y2="167.15" gradientTransform="matrix(1 0 0 -1 0 438)">
		<stop  offset="0" style="stop-color:#68E4F1"/>
		<stop  offset="1" style="stop-color:#66A6FF"/>
	</linearGradient>
	<path class="st10" d="M145.1,293.7h-41.3c-3.3,0-6-2.7-6-6V254c0-3.3,2.7-6,6-6h41.3c3.3,0,6,2.7,6,6v33.7
		C151.1,291,148.4,293.7,145.1,293.7z"/>
	
		<linearGradient id="SVGID_12_" gradientUnits="userSpaceOnUse" x1="97.8" y1="175.05" x2="151.1" y2="175.05" gradientTransform="matrix(1 0 0 -1 0 438)">
		<stop  offset="0" style="stop-color:#68E4F1"/>
		<stop  offset="1" style="stop-color:#66A6FF"/>
	</linearGradient>
	<path class="st11" d="M145.1,285.8h-41.3c-3.3,0-6-2.7-6-6v-33.7c0-3.3,2.7-6,6-6h41.3c3.3,0,6,2.7,6,6v33.7
		C151.1,283.1,148.4,285.8,145.1,285.8z"/>
	
		<linearGradient id="SVGID_13_" gradientUnits="userSpaceOnUse" x1="168.6" y1="166.8" x2="229" y2="166.8" gradientTransform="matrix(1 0 0 -1 0 438)">
		<stop  offset="0" style="stop-color:#E6ECF5"/>
		<stop  offset="0.5126" style="stop-color:#EEF1F6"/>
		<stop  offset="1" style="stop-color:#EEF1F6"/>
	</linearGradient>
	<path class="st12" d="M223,297.1h-48.4c-3.3,0-6-2.7-6-6v-39.8c0-3.3,2.7-6,6-6H223c3.3,0,6,2.7,6,6v39.8
		C229,294.4,226.3,297.1,223,297.1z"/>
	
		<linearGradient id="SVGID_14_" gradientUnits="userSpaceOnUse" x1="225.7" y1="167.15" x2="172.4" y2="167.15" gradientTransform="matrix(1 0 0 -1 0 438)">
		<stop  offset="0" style="stop-color:#68E4F1"/>
		<stop  offset="1" style="stop-color:#66A6FF"/>
	</linearGradient>
	<path class="st13" d="M219.7,293.7h-41.3c-3.3,0-6-2.7-6-6V254c0-3.3,2.7-6,6-6h41.3c3.3,0,6,2.7,6,6v33.7
		C225.7,291,223,293.7,219.7,293.7z"/>
	
		<linearGradient id="SVGID_15_" gradientUnits="userSpaceOnUse" x1="172.4678" y1="175.05" x2="225.7678" y2="175.05" gradientTransform="matrix(1 0 0 -1 0 438)">
		<stop  offset="0" style="stop-color:#68E4F1"/>
		<stop  offset="1" style="stop-color:#66A6FF"/>
	</linearGradient>
	<path class="st14" d="M219.7,285.8h-41.3c-3.3,0-6-2.7-6-6v-33.7c0-3.3,2.7-6,6-6h41.3c3.3,0,6,2.7,6,6v33.7
		C225.7,283.1,223,285.8,219.7,285.8z"/>
	
		<linearGradient id="SVGID_16_" gradientUnits="userSpaceOnUse" x1="245.2" y1="166.8" x2="305.6" y2="166.8" gradientTransform="matrix(1 0 0 -1 0 438)">
		<stop  offset="0" style="stop-color:#E6ECF5"/>
		<stop  offset="0.5126" style="stop-color:#EEF1F6"/>
		<stop  offset="1" style="stop-color:#EEF1F6"/>
	</linearGradient>
	<path class="st15" d="M299.6,297.1h-48.4c-3.3,0-6-2.7-6-6v-39.8c0-3.3,2.7-6,6-6h48.4c3.3,0,6,2.7,6,6v39.8
		C305.6,294.4,302.9,297.1,299.6,297.1z"/>
	
		<linearGradient id="SVGID_17_" gradientUnits="userSpaceOnUse" x1="302.3" y1="167.15" x2="249" y2="167.15" gradientTransform="matrix(1 0 0 -1 0 438)">
		<stop  offset="0" style="stop-color:#68E4F1"/>
		<stop  offset="1" style="stop-color:#66A6FF"/>
	</linearGradient>
	<path class="st16" d="M296.3,293.7H255c-3.3,0-6-2.7-6-6V254c0-3.3,2.7-6,6-6h41.3c3.3,0,6,2.7,6,6v33.7
		C302.3,291,299.6,293.7,296.3,293.7z"/>
	
		<linearGradient id="SVGID_18_" gradientUnits="userSpaceOnUse" x1="249" y1="175.05" x2="302.3" y2="175.05" gradientTransform="matrix(1 0 0 -1 0 438)">
		<stop  offset="0" style="stop-color:#68E4F1"/>
		<stop  offset="1" style="stop-color:#66A6FF"/>
	</linearGradient>
	<path class="st17" d="M296.3,285.8H255c-3.3,0-6-2.7-6-6v-33.7c0-3.3,2.7-6,6-6h41.3c3.3,0,6,2.7,6,6v33.7
		C302.3,283.1,299.6,285.8,296.3,285.8z"/>
	
		<linearGradient id="SVGID_19_" gradientUnits="userSpaceOnUse" x1="94" y1="96.7" x2="154.4" y2="96.7" gradientTransform="matrix(1 0 0 -1 0 438)">
		<stop  offset="0" style="stop-color:#E6ECF5"/>
		<stop  offset="0.5126" style="stop-color:#EEF1F6"/>
		<stop  offset="1" style="stop-color:#EEF1F6"/>
	</linearGradient>
	<path class="st18" d="M148.4,367.2H100c-3.3,0-6-2.7-6-6v-39.8c0-3.3,2.7-6,6-6h48.4c3.3,0,6,2.7,6,6v39.8
		C154.4,364.5,151.7,367.2,148.4,367.2z"/>
	
		<linearGradient id="SVGID_20_" gradientUnits="userSpaceOnUse" x1="151.1" y1="97.05" x2="97.8" y2="97.05" gradientTransform="matrix(1 0 0 -1 0 438)">
		<stop  offset="0" style="stop-color:#68E4F1"/>
		<stop  offset="1" style="stop-color:#66A6FF"/>
	</linearGradient>
	<path class="st19" d="M145.1,363.8h-41.3c-3.3,0-6-2.7-6-6v-33.7c0-3.3,2.7-6,6-6h41.3c3.3,0,6,2.7,6,6v33.7
		C151.1,361.1,148.4,363.8,145.1,363.8z"/>
	
		<linearGradient id="SVGID_21_" gradientUnits="userSpaceOnUse" x1="97.8" y1="104.95" x2="151.1" y2="104.95" gradientTransform="matrix(1 0 0 -1 0 438)">
		<stop  offset="0" style="stop-color:#68E4F1"/>
		<stop  offset="1" style="stop-color:#66A6FF"/>
	</linearGradient>
	<path class="st20" d="M145.1,355.9h-41.3c-3.3,0-6-2.7-6-6v-33.7c0-3.3,2.7-6,6-6h41.3c3.3,0,6,2.7,6,6v33.7
		C151.1,353.2,148.4,355.9,145.1,355.9z"/>
	
		<linearGradient id="SVGID_22_" gradientUnits="userSpaceOnUse" x1="168.6" y1="96.7" x2="229" y2="96.7" gradientTransform="matrix(1 0 0 -1 0 438)">
		<stop  offset="0" style="stop-color:#E6ECF5"/>
		<stop  offset="0.5126" style="stop-color:#EEF1F6"/>
		<stop  offset="1" style="stop-color:#EEF1F6"/>
	</linearGradient>
	<path class="st21" d="M223,367.2h-48.4c-3.3,0-6-2.7-6-6v-39.8c0-3.3,2.7-6,6-6H223c3.3,0,6,2.7,6,6v39.8
		C229,364.5,226.3,367.2,223,367.2z"/>
	
		<linearGradient id="SVGID_23_" gradientUnits="userSpaceOnUse" x1="225.7" y1="97.05" x2="172.4" y2="97.05" gradientTransform="matrix(1 0 0 -1 0 438)">
		<stop  offset="0" style="stop-color:#68E4F1"/>
		<stop  offset="1" style="stop-color:#66A6FF"/>
	</linearGradient>
	<path class="st22" d="M219.7,363.8h-41.3c-3.3,0-6-2.7-6-6v-33.7c0-3.3,2.7-6,6-6h41.3c3.3,0,6,2.7,6,6v33.7
		C225.7,361.1,223,363.8,219.7,363.8z"/>
	
		<linearGradient id="SVGID_24_" gradientUnits="userSpaceOnUse" x1="172.4678" y1="104.95" x2="225.7678" y2="104.95" gradientTransform="matrix(1 0 0 -1 0 438)">
		<stop  offset="0" style="stop-color:#68E4F1"/>
		<stop  offset="1" style="stop-color:#66A6FF"/>
	</linearGradient>
	<path class="st23" d="M219.7,355.9h-41.3c-3.3,0-6-2.7-6-6v-33.7c0-3.3,2.7-6,6-6h41.3c3.3,0,6,2.7,6,6v33.7
		C225.7,353.2,223,355.9,219.7,355.9z"/>
	
		<linearGradient id="SVGID_25_" gradientUnits="userSpaceOnUse" x1="245.2" y1="96.7" x2="305.6" y2="96.7" gradientTransform="matrix(1 0 0 -1 0 438)">
		<stop  offset="0" style="stop-color:#E6ECF5"/>
		<stop  offset="0.5126" style="stop-color:#EEF1F6"/>
		<stop  offset="1" style="stop-color:#EEF1F6"/>
	</linearGradient>
	<path class="st24" d="M299.6,367.2h-48.4c-3.3,0-6-2.7-6-6v-39.8c0-3.3,2.7-6,6-6h48.4c3.3,0,6,2.7,6,6v39.8
		C305.6,364.5,302.9,367.2,299.6,367.2z"/>
	
		<linearGradient id="SVGID_26_" gradientUnits="userSpaceOnUse" x1="302.3" y1="97.05" x2="249" y2="97.05" gradientTransform="matrix(1 0 0 -1 0 438)">
		<stop  offset="0" style="stop-color:#68E4F1"/>
		<stop  offset="1" style="stop-color:#66A6FF"/>
	</linearGradient>
	<path class="st25" d="M296.3,363.8H255c-3.3,0-6-2.7-6-6v-33.7c0-3.3,2.7-6,6-6h41.3c3.3,0,6,2.7,6,6v33.7
		C302.3,361.1,299.6,363.8,296.3,363.8z"/>
	
		<linearGradient id="SVGID_27_" gradientUnits="userSpaceOnUse" x1="249" y1="104.95" x2="302.3" y2="104.95" gradientTransform="matrix(1 0 0 -1 0 438)">
		<stop  offset="0" style="stop-color:#68E4F1"/>
		<stop  offset="1" style="stop-color:#66A6FF"/>
	</linearGradient>
	<path class="st26" d="M296.3,355.9H255c-3.3,0-6-2.7-6-6v-33.7c0-3.3,2.7-6,6-6h41.3c3.3,0,6,2.7,6,6v33.7
		C302.3,353.2,299.6,355.9,296.3,355.9z"/>
</g>
<path class="st27" d="M295.3,147.4h-191c-3.3,0-6-2.7-6-6V76.9c0-3.3,2.7-6,6-6h191c3.3,0,6,2.7,6,6v64.5
	C301.3,144.7,298.6,147.4,295.3,147.4z"/>
<g>
	<path class="st28" d="M158.3,104.9l8.7-3l1.3,4.2l-8.7,2.8l5.5,7.5l-3.5,2.6l-5.7-7.7l-5.6,7.5l-3.5-2.6l5.6-7.4l-8.9-3l1.3-4.1
		l8.9,3v-9.2h4.5L158.3,104.9L158.3,104.9z"/>
	<path class="st28" d="M187.5,104.9l8.7-3l1.3,4.2l-8.7,2.8l5.5,7.5l-3.5,2.6l-5.7-7.7l-5.6,7.5l-3.5-2.6l5.6-7.4l-8.9-3l1.3-4.1
		l8.9,3v-9.2h4.5L187.5,104.9L187.5,104.9z"/>
	<path class="st28" d="M216.7,104.9l8.7-3l1.3,4.2l-8.7,2.8l5.5,7.5L220,119l-5.7-7.7l-5.6,7.5l-3.5-2.6l5.6-7.4l-8.9-3l1.3-4.1
		l8.9,3v-9.2h4.5L216.7,104.9L216.7,104.9z"/>
	<path class="st28" d="M245.8,104.9l8.7-3l1.3,4.2l-8.7,2.8l5.5,7.5l-3.5,2.6l-5.7-7.7l-5.6,7.5l-3.5-2.6l5.6-7.4l-8.9-3l1.3-4.1
		l8.9,3v-9.2h4.5L245.8,104.9L245.8,104.9z"/>
</g>
</svg>
